<svg width="120" height="122" viewBox="0 0 120 122" xmlns="http://www.w3.org/2000/svg" xmlns:xlink="http://www.w3.org/1999/xlink"><title>aecinho1</title><desc>Created with Sketch.</desc><defs><path id="a" d="M119.833 60.065c0 33.227-26.81 60.164-59.882 60.164S.07 93.29.07 60.064C.068 26.837 26.878-.1 59.95-.1c33.073 0 59.883 26.937 59.883 60.165"/></defs><g fill="none"><path d="M119.833 61.065c0 33.227-26.81 60.164-59.882 60.164S.07 94.29.07 61.064C.068 27.837 26.878.9 59.95.9c33.073 0 59.883 26.937 59.883 60.165" fill="#EAEAEA"/><g transform="translate(0 1)"><mask id="b"><use xlink:href="#a"/></mask><path d="M79.26 36.247c0-2.404 1.94-4.353 4.33-4.353h5.705c2.392 0 4.332 1.95 4.332 4.353v22.198c0 2.404-1.94 4.352-4.332 4.352H83.59c-2.39 0-4.33-1.948-4.33-4.352V36.247" fill="#414042" mask="url(#b)"/><path d="M51.27 22.445c2.393 0 4.333 1.95 4.333 4.352v.072c0 2.402-1.94 4.352-4.332 4.352H38.275c-2.392 0-4.332-1.95-4.332-4.353v-.073c0-2.403 1.94-4.352 4.332-4.352H51.27" fill="#414042" mask="url(#b)"/><path d="M50.42 22.444h30.21c7.178 0 12.997 5.846 12.997 13.058v.745c0 7.212-5.82 13.057-12.997 13.057H50.42" fill="#414042" mask="url(#b)"/><path d="M86.52 38.686c0-4.808-3.878-8.705-8.663-8.705H43.302c-4.785 0-8.664 3.898-8.664 8.706v51.76c0 4.807 3.88 8.704 8.664 8.704h34.555c4.785 0 8.664-3.897 8.664-8.705v-51.76" fill="#FBCBA8" mask="url(#b)"/><path d="M62.117 57.574c0 1.202-.97 2.176-2.166 2.176s-2.165-.974-2.165-2.176c0-1.2.97-2.176 2.166-2.176 1.197 0 2.167.975 2.167 2.176" fill="#231F1F" mask="url(#b)"/><path d="M42.19 57.575c0 1.2-.97 2.175-2.167 2.175-1.197 0-2.166-.974-2.166-2.175 0-1.202.97-2.177 2.166-2.177s2.166.975 2.166 2.177" fill="#231F1F" mask="url(#b)"/><path d="M57.176 53.11h5.548v2.175h-5.548V53.11z" fill="#414042" mask="url(#b)"/><path d="M37.25 53.11h5.547v2.175H37.25V53.11z" fill="#414042" mask="url(#b)"/><path d="M92.17 56.88c0 2.374-1.915 4.3-4.28 4.3-2.364 0-4.28-1.926-4.28-4.3 0-2.376 1.916-4.302 4.28-4.302 2.365 0 4.28 1.926 4.28 4.3" fill="#FBCBA8" mask="url(#b)"/><path d="M73.77 28.206v11.73c0 7.21 5.82 13.057 12.998 13.057h3.682v-26.16H73.843c-.046.45-.072.91-.072 1.373" fill="#414042" mask="url(#b)"/><path d="M78.62 32.51c0 2.403-1.94 4.352-4.333 4.352H69.76c-2.393 0-4.333-1.95-4.333-4.353v-2.576c0-2.403 1.94-4.353 4.332-4.353h4.527c2.393 0 4.332 1.95 4.332 4.354v2.575" fill="#414042" mask="url(#b)"/><path d="M73.77 36.91c0 2.402-1.94 4.35-4.33 4.35h-4.53c-2.39 0-4.33-1.948-4.33-4.35v-2.576c0-2.404 1.94-4.353 4.33-4.353h4.53c2.39 0 4.33 1.95 4.33 4.354v2.575" fill="#FBCBA8" mask="url(#b)"/><path d="M44.773 55.963v10.272c0 1.924 1.553 3.484 3.467 3.484 1.915 0 3.467-1.56 3.467-3.485V55.963h-6.934" fill="#EEA97B" mask="url(#b)"/><path d="M52.884 67.306c0 .956-.772 1.73-1.723 1.73-.95 0-1.722-.774-1.722-1.73s.77-1.73 1.723-1.73c.952 0 1.724.774 1.724 1.73" fill="#EEA97B" mask="url(#b)"/><path d="M47.476 67.306c0 .956-.77 1.73-1.723 1.73-.95 0-1.722-.774-1.722-1.73s.772-1.73 1.723-1.73c.952 0 1.723.774 1.723 1.73" fill="#EEA97B" mask="url(#b)"/><path d="M50.42 69.037c0 1.24-1 2.245-2.235 2.245-1.235 0-2.235-1.005-2.235-2.245 0-1.24 1-2.245 2.235-2.245 1.234 0 2.235 1.005 2.235 2.245" fill="#EEA97B" mask="url(#b)"/><path d="M44.403 78.403h7.563c1.197 0 2.166-.974 2.166-2.176H42.237c0 1.202.97 2.176 2.166 2.176" fill="#EEA97B" mask="url(#b)"/><path d="M34.638 85.1s4.016 11.15 12.838 11.15 23.768-8.562 34.635-17.847v40.77H34.64V85.1" fill="#fff" mask="url(#b)"/><path d="M46.94 99.925l-.88 3.235 2.125 3.824 2.114-2.074-1.432-5.135-1.93.15" fill="#297CAA" mask="url(#b)"/><path d="M45.753 96.212l1.015 4.316h2.31l3.105-4.316h-6.43" fill="#2980B9" mask="url(#b)"/><path d="M48.24 96.227l2.26 4.618 31.3-10.738-3.84-7.497S56.642 94.32 48.24 96.227" fill="#E6E7E8" mask="url(#b)"/><path d="M48.185 96.23l-2.432 4.615-12.632-8.44 2.993-4.224 12.072 8.05" fill="#E6E7E8" mask="url(#b)"/><path d="M73.71 84.787l-25.525 22.197-15.32-16.58v42.91c0 15.266 12.32 27.642 27.513 27.642 15.194 0 27.512-12.376 27.512-27.642V80.76l-14.18 4.027" fill="#414042" mask="url(#b)"/><path d="M86.52 69.377l-38.335 37.607 36.693-16.757-2.04-3.264 9.49-5.876-5.807-11.71" fill="#58595B" mask="url(#b)"/><path d="M48.185 106.984L34.638 82.61l-6.21 5.57 5.307 3.788-1.84 1.306 16.29 13.71" fill="#58595B" mask="url(#b)"/><path d="M47.476 22.445h-9.202c-2.392 0-4.332 1.95-4.332 4.352v.072c0 2.402 1.94 4.352 4.332 4.352h.567c1.304-.788 2.83-1.24 4.462-1.24h4.174v-7.537" fill="#3E3D3F" mask="url(#b)"/><path d="M40.023 59.75c-1.197 0-2.166-.974-2.166-2.175 0-1.202.97-2.177 2.166-2.177s2.166.975 2.166 2.177c0 1.2-.97 2.175-2.167 2.175zm-2.774-6.64h5.547v2.175H37.25V53.11zm10.226-23.13h-4.174c-1.632 0-3.158.454-4.46 1.242h.02c-2.478 1.49-4.157 4.18-4.223 7.276V38.54c-.002.01-.002.022-.002.035V82.61l4.05 7.288 8.788 5.86V78.402h-3.073c-1.196 0-2.166-.974-2.166-2.176h5.24v-5.06c-.888-.297-1.527-1.138-1.527-2.13v-.01c-.065.007-.13.01-.197.01-.95 0-1.722-.775-1.722-1.73 0-.59.294-1.11.743-1.424v-9.92h2.703V29.98z" fill="#E5B99A" mask="url(#b)"/><path d="M40.023 55.398c-1.197 0-2.166.975-2.166 2.177 0 1.2.97 2.175 2.166 2.175s2.166-.974 2.166-2.175c0-1.202-.97-2.177-2.167-2.177" fill="#231F1F" mask="url(#b)"/><path d="M37.25 53.11h5.547v2.175H37.25V53.11z" fill="#3E3D3F" mask="url(#b)"/><path d="M47.476 55.963h-2.703v9.92c.278-.194.616-.308.98-.308.82 0 1.506.576 1.68 1.347l.043-.015V55.963" fill="#D99B72" mask="url(#b)"/><path d="M45.753 65.575c-.364 0-.702.114-.98.308-.45.313-.742.833-.742 1.423 0 .956.772 1.73 1.723 1.73.067 0 .132-.002.197-.01.004-.97.622-1.796 1.483-2.104-.174-.77-.86-1.347-1.68-1.347" fill="#D99B72" mask="url(#b)"/><path d="M47.476 66.907l-.043.015c-.86.308-1.48 1.134-1.483 2.104v.01c0 .993.64 1.834 1.526 2.132v-4.26" fill="#D99B72" mask="url(#b)"/><path d="M47.476 76.227h-5.24c0 1.202.97 2.176 2.167 2.176h3.073v-2.176" fill="#D99B72" mask="url(#b)"/><path d="M46.507 99.415l-.754 1.43-1.56-1.042 3.283 5.906-1.417-2.55.715-2.632h-.007l-.26-1.113" fill="#E9E8E8" mask="url(#b)"/><path d="M47.476 100.528h-.7l-.717 2.632 1.416 2.55v-5.182" fill="#28739C" mask="url(#b)"/><path d="M47.476 97.575l-.97 1.84.262 1.113h.708v-2.953" fill="#2876A9" mask="url(#b)"/><path d="M38.688 89.898l5.505 9.905 1.56 1.042 1.723-3.27v-1.818l-8.788-5.86" fill="#D2D3D4" mask="url(#b)"/><path d="M32.865 92.585l-.97.69.97-.69m-4.437-4.404l4.437 3.167-4.437-3.166" fill="#BFC1C2" mask="url(#b)"/><path d="M32.865 91.347v1.238l.87-.617-.87-.62" fill="#3E3D3F" mask="url(#b)"/><path d="M32.865 94.09v19.647c4.565 2.33 9.466 4.09 14.61 5.185v-12.534L32.866 94.09" fill="#3E3D3F" mask="url(#b)"/><path d="M34.638 82.61l-6.21 5.57 5.307 3.788-.87.617-.97.69 15.58 13.113v-.68L34.64 82.61" fill="#535355" mask="url(#b)"/></g></g></svg>