<svg width="292" height="221" viewBox="0 0 292 221" xmlns="http://www.w3.org/2000/svg"><title>aecio_sucesso</title><desc>Created with Sketch.</desc><g fill="none"><g transform="translate(3 1)"><g stroke="#46A1DE" stroke-width="2"><path d="M143.327 202.492l-.793-.558L-.463 101.37 143.327.25l.793.56 142.996 100.56-143.79 101.122"/><path d="M143.327 142.05c-22.45 0-40.716-18.25-40.716-40.68 0-22.428 18.266-40.676 40.717-40.676 22.45 0 40.716 18.248 40.716 40.677 0 22.43-18.265 40.68-40.716 40.68z"/></g><ellipse fill="#46A1DE" cx="142.051" cy="217.985" rx="33.051" ry="1.985"/></g><g><path d="M170.453 45.403c0-3.076 2.495-5.57 5.57-5.57h7.334c3.076 0 5.57 2.494 5.57 5.57V73.82c0 3.076-2.494 5.57-5.57 5.57h-7.334c-3.075 0-5.57-2.494-5.57-5.57V45.402" fill="#414042"/><path d="M134.468 27.734c3.075 0 5.57 2.496 5.57 5.572v.093c0 3.075-2.495 5.57-5.57 5.57h-16.71c-3.077 0-5.57-2.495-5.57-5.57v-.094c0-3.076 2.493-5.572 5.57-5.572h16.71" fill="#414042"/><path d="M133.373 27.734h38.844c9.228 0 16.71 7.484 16.71 16.715v.953c0 9.232-7.482 16.715-16.71 16.715h-38.844" fill="#414042"/><path d="M179.79 48.526c0-6.155-4.987-11.144-11.14-11.144h-44.43c-6.152 0-11.14 4.99-11.14 11.144v66.256c0 6.154 4.988 11.143 11.14 11.143h44.43c6.153 0 11.14-4.99 11.14-11.143V48.526" fill="#FBCBA8"/><path d="M148.412 72.704c0 1.54-1.247 2.786-2.785 2.786s-2.785-1.247-2.785-2.786c0-1.538 1.247-2.786 2.785-2.786s2.785 1.248 2.785 2.786" fill="#231F1F"/><path d="M122.79 72.704c0 1.54-1.247 2.786-2.785 2.786s-2.785-1.247-2.785-2.786c0-1.538 1.247-2.786 2.785-2.786s2.785 1.248 2.785 2.786" fill="#231F1F"/><path d="M142.06 66.99h7.133v2.785h-7.133V66.99z" fill="#414042"/><path d="M116.437 66.99h7.134v2.785h-7.133V66.99z" fill="#414042"/><path d="M187.055 71.814c0 3.04-2.464 5.505-5.504 5.505-3.038 0-5.503-2.465-5.503-5.506 0-3.04 2.465-5.505 5.504-5.505 3.04 0 5.505 2.463 5.505 5.504" fill="#FBCBA8"/><path d="M163.397 35.11v15.015c0 9.23 7.482 16.715 16.71 16.715h4.735V33.352H163.49c-.06.578-.093 1.164-.093 1.758" fill="#414042"/><path d="M169.63 40.62c0 3.076-2.493 5.57-5.57 5.57h-5.82c-3.077 0-5.57-2.494-5.57-5.57V37.32c0-3.077 2.493-5.572 5.57-5.572h5.82c3.077 0 5.57 2.495 5.57 5.572v3.297" fill="#414042"/><path d="M163.397 46.25c0 3.077-2.493 5.572-5.57 5.572h-5.82c-3.078 0-5.572-2.495-5.572-5.57v-3.298c0-3.077 2.494-5.572 5.57-5.572h5.822c3.077 0 5.57 2.495 5.57 5.572v3.297" fill="#FBCBA8"/><path d="M126.113 70.642v13.15c0 2.462 1.996 4.458 4.458 4.458 2.463 0 4.458-1.996 4.458-4.46V70.643h-8.915" fill="#EEA97B"/><path d="M136.54 85.162c0 1.224-.99 2.216-2.214 2.216-1.223 0-2.215-.992-2.215-2.216 0-1.224.993-2.215 2.216-2.215 1.223 0 2.215.99 2.215 2.215" fill="#EEA97B"/><path d="M129.588 85.162c0 1.224-.992 2.216-2.215 2.216-1.224 0-2.215-.992-2.215-2.216 0-1.224.99-2.215 2.215-2.215 1.223 0 2.215.99 2.215 2.215" fill="#EEA97B"/><path d="M133.373 87.378c0 1.588-1.287 2.874-2.874 2.874-1.588 0-2.874-1.286-2.874-2.874s1.286-2.875 2.873-2.875c1.586 0 2.873 1.287 2.873 2.875" fill="#EEA97B"/><path d="M125.637 99.367h9.724c1.54 0 2.786-1.247 2.786-2.786h-15.294c0 1.54 1.246 2.787 2.785 2.787" fill="#EEA97B"/><path d="M113.08 107.94s5.165 14.27 16.508 14.27 30.56-10.957 44.532-22.843v52.188h-61.04V107.94" fill="#fff"/><path d="M128.898 126.917l-1.132 4.142 2.733 4.894 2.717-2.655-1.84-6.574-2.48.19" fill="#297CAA"/><path d="M127.373 122.165l1.305 5.525h2.97l3.992-5.525h-8.267" fill="#2980B9"/><path d="M130.57 122.184l2.905 5.91 40.246-13.745-4.94-9.597s-27.405 14.99-38.21 17.43" fill="#E6E7E8"/><path d="M130.5 122.186l-3.127 5.91-16.242-10.807 3.847-5.407 15.522 10.303" fill="#E6E7E8"/><path d="M163.317 107.54L130.5 135.953 110.8 114.73v54.928c0 19.542 15.838 35.384 35.375 35.384 19.535 0 35.374-15.842 35.374-35.384v-67.273l-18.233 5.154" fill="#414042"/><path d="M179.79 87.813l-49.29 48.14 47.178-21.45-2.623-4.18 12.2-7.52-7.465-14.99" fill="#58595B"/><path d="M130.5 135.954l-17.42-31.2-7.983 7.13 6.824 4.848-2.367 1.67 20.946 17.552" fill="#58595B"/><path d="M113.08 48.498v.006-.006m0-.022v.006-.006m0-.047 0-.024v.002-.002" fill="#E9E8E8"/><path d="M129.588 27.734h-11.83c-3.077 0-5.57 2.496-5.57 5.572v.093c0 3.075 2.493 5.57 5.57 5.57h.727c1.676-1.008 3.638-1.588 5.735-1.588h5.368v-9.648" fill="#3E3D3F"/><path d="M120.005 75.49c-1.538 0-2.785-1.247-2.785-2.786 0-1.538 1.247-2.786 2.785-2.786s2.785 1.248 2.785 2.786c0 1.54-1.247 2.786-2.785 2.786zm-108.568-36.5h7.134v2.785h-7.133V38.99zM24.587 9.38H19.22c-2.097 0-4.06.58-5.735 1.588h.025c-3.217 1.928-5.387 5.422-5.43 9.436v56.348l5.208 9.328 11.3 7.502V71.367h-3.95c-1.54 0-2.786-1.247-2.786-2.786h6.736v-6.475c-1.14-.38-1.962-1.458-1.962-2.727v-.014c-.083.01-.167.014-.253.014-1.224 0-2.215-.992-2.215-2.216 0-.755.378-1.422.955-1.822V42.642h3.475V9.382z" fill="#E5B99A"/><path d="M120.005 69.918c-1.538 0-2.785 1.248-2.785 2.786 0 1.54 1.247 2.786 2.785 2.786s2.785-1.247 2.785-2.786c0-1.538-1.247-2.786-2.785-2.786" fill="#231F1F"/><path d="M116.437 66.99h7.134v2.785h-7.133V66.99z" fill="#3E3D3F"/><path d="M129.588 70.642h-3.475V83.34c.357-.248.792-.393 1.26-.393 1.054 0 1.936.736 2.16 1.722l.055-.02V70.643" fill="#D99B72"/><path d="M127.373 82.947c-.468 0-.903.145-1.26.393-.577.4-.955 1.067-.955 1.822 0 1.224.99 2.216 2.215 2.216.086 0 .17-.005.253-.014.006-1.243.8-2.3 1.907-2.695-.224-.987-1.106-1.723-2.16-1.723" fill="#D99B72"/><path d="M129.588 84.65l-.055.02c-1.108.395-1.9 1.45-1.907 2.694v.014c0 1.27.822 2.346 1.962 2.727V84.65" fill="#D99B72"/><path d="M129.588 96.58h-6.736c0 1.54 1.246 2.787 2.785 2.787h3.95V96.58" fill="#D99B72"/><path d="M128.342 126.265l-.97 1.83-2.006-1.335 4.222 7.563-1.822-3.264.92-3.37h-.008l-.336-1.425" fill="#E9E8E8"/><path d="M129.588 127.69h-.9l-.922 3.37 1.822 3.263v-6.633" fill="#28739C"/><path d="M129.588 123.908l-1.246 2.357.336 1.425h.91v-3.782" fill="#2876A9"/><path d="M118.288 114.08l7.078 12.68 2.007 1.335 2.215-4.187v-2.326l-11.3-7.5" fill="#D2D3D4"/><path d="M110.802 117.52l-1.25.883 1.25-.882" fill="#E9E8E8"/><path d="M110.802 115.937v1.584l1.12-.788-1.12-.795" fill="#3E3D3F"/><path d="M110.81 170.33v.003-.004m-.003-.12v.004-.003m-.002-.08v.006-.006m0-.038v.005-.005m0-.04v.003-.002m0-.042v.008-.007m0-.035-.002-.045v.008-.008m0-.038v.01-.01m0-.037 0-.043v.01-.01m0-.037v.008-.008m0-.043v.007-.008m0-.038v.01-.01" fill="#E9E8E8"/><path d="M110.802 119.45V169.938l.002.037v.162c.002.024.002.05.003.075v.004c0 .038 0 .077.002.115v.08c.276 13.227 7.81 24.665 18.778 30.5v-65.72l-18.786-15.74" fill="#3E3D3F"/><path d="M113.08 104.753l-7.983 7.13 5.705 4.054 1.12.795-1.12.79-1.25.88 20.036 16.79v-.87l-16.508-29.57" fill="#535355"/></g></g></svg>