<?xml version="1.0" encoding="UTF-8" standalone="no"?>
<svg width="620px" height="325px" viewBox="0 0 620 325" version="1.1" xmlns="http://www.w3.org/2000/svg" xmlns:xlink="http://www.w3.org/1999/xlink" xmlns:sketch="http://www.bohemiancoding.com/sketch/ns">
    <!-- Generator: Sketch 3.0.4 (8054) - http://www.bohemiancoding.com/sketch -->
    <title>dilmavsaecio</title>
    <desc>Created with Sketch.</desc>
    <defs></defs>
    <g id="Welcome" stroke="none" stroke-width="1" fill="none" fill-rule="evenodd" sketch:type="MSPage">
        <g id="Group-+-Imported-Layers-4" sketch:type="MSLayerGroup">
            <g id="Group" sketch:type="MSShapeGroup">
                <g id="Imported-Layers" transform="translate(102.218798, 7.647059)" stroke="#92E986" stroke-width="2">
                    <path d="M207.53083,292.063037 L206.384968,291.257586 L-0.277109104,146.000509 L207.53083,-0.0620189286 L208.677489,0.743432029 L415.33877,146.000509 L207.53083,292.063037" id="Fill-2"></path>
                    <path d="M207.53083,204.757083 C175.08438,204.757083 148.687349,178.399038 148.687349,146.000509 C148.687349,113.60198 175.08438,87.2439352 207.53083,87.2439352 C239.97728,87.2439352 266.374311,113.60198 266.374311,146.000509 C266.374311,178.399038 239.97728,204.757083 207.53083,204.757083 L207.53083,204.757083 Z" id="Fill-4"></path>
                </g>
                <ellipse id="Oval-1" fill="#DBF8D7" cx="231.186441" cy="322.132353" rx="47.7657935" ry="2.86764706"></ellipse>
                <ellipse id="Oval-1" fill="#DBF8D7" cx="390.724191" cy="322.132353" rx="47.7657935" ry="2.86764706"></ellipse>
                <path d="M571.278891,0 C544.722065,0 523.194022,21.5408088 523.194022,48.1133824 C523.194022,59.1289706 526.902558,69.27375 533.126441,77.3834559 C529.004253,90.8202941 517.781202,101.324485 517.781202,101.324485 C532.962126,102.092059 542.887858,96.6521324 549.112696,90.8059559 C555.747365,94.2614706 563.281941,96.2267647 571.278891,96.2267647 C597.835716,96.2267647 619.36376,74.6859559 619.36376,48.1133824 C619.36376,21.5408088 597.835716,0 571.278891,0" id="Imported-Layers" fill="#DBF8D7"></path>
                <path d="M48.084869,0 C74.6416949,0 96.1697381,21.5408088 96.1697381,48.1133824 C96.1697381,59.1289706 92.4612018,69.27375 86.2382743,77.3834559 C90.3595069,90.8202941 101.582558,101.324485 101.582558,101.324485 C86.4016333,102.092059 76.4759014,96.6521324 70.2510632,90.8059559 C63.6163945,94.2614706 56.0818182,96.2267647 48.084869,96.2267647 C21.5280431,96.2267647 0,74.6859559 0,48.1133824 C0,21.5408088 21.5280431,0 48.084869,0" id="Imported-Layers" fill="#DBF8D7"></path>
            </g>
            <g id="Imported-Layers-4" transform="translate(161.000000, 21.745251)" sketch:type="MSShapeGroup">
                <path d="M103.421124,70.7339326 C103.421124,79.6692135 110.664809,86.9137079 119.600899,86.9137079 C128.536989,86.9137079 135.780674,79.6692135 135.780674,70.7339326 C135.780674,61.7978427 128.536989,54.5541573 119.600899,54.5541573 C110.664809,54.5541573 103.421124,61.7978427 103.421124,70.7339326" id="Fill-1" fill="#89553B"></path>
                <path d="M113.398382,55.4982472 C113.398382,62.8705618 119.374382,68.8465618 126.746697,68.8465618 C134.11982,68.8465618 140.095011,62.8705618 140.095011,55.4982472 C140.095011,48.1251236 134.11982,42.1499326 126.746697,42.1499326 C119.374382,42.1499326 113.398382,48.1251236 113.398382,55.4982472" id="Fill-2" fill="#89553B"></path>
                <path d="M92.9042697,37.0937528 C92.9042697,44.4660674 98.8802697,50.4420674 106.252584,50.4420674 C113.625708,50.4420674 119.600899,44.4660674 119.600899,37.0937528 C119.600899,29.7206292 113.625708,23.7454382 106.252584,23.7454382 C98.8802697,23.7454382 92.9042697,29.7206292 92.9042697,37.0937528" id="Fill-3" fill="#89553B"></path>
                <path d="M102.274787,82.6333483 C102.274787,89.0559101 107.753258,94.2625618 114.510742,94.2625618 C121.269034,94.2625618 126.746697,89.0559101 126.746697,82.6333483 C126.746697,76.2099775 121.269034,71.0041348 114.510742,71.0041348 C107.753258,71.0041348 102.274787,76.2099775 102.274787,82.6333483" id="Fill-4" fill="#89553B"></path>
                <path d="M92.9042697,22.1946067 C92.9042697,29.5669213 98.8802697,35.5429213 106.252584,35.5429213 C113.625708,35.5429213 119.600899,29.5669213 119.600899,22.1946067 C119.600899,14.8214831 113.625708,8.84629213 106.252584,8.84629213 C98.8802697,8.84629213 92.9042697,14.8214831 92.9042697,22.1946067" id="Fill-5" fill="#89553B"></path>
                <path d="M64.1851685,16.127191 C64.1851685,23.4995056 70.1611685,29.4755056 77.5334831,29.4755056 C84.9066067,29.4755056 90.8817978,23.4995056 90.8817978,16.127191 C90.8817978,8.75406742 84.9066067,2.7788764 77.5334831,2.7788764 C70.1611685,2.7788764 64.1851685,8.75406742 64.1851685,16.127191" id="Fill-6" fill="#89553B"></path>
                <path d="M103.421124,38.374382 C103.421124,47.3096629 110.664809,54.5541573 119.600899,54.5541573 C128.536989,54.5541573 135.780674,47.3096629 135.780674,38.374382 C135.780674,29.4382921 128.536989,22.1946067 119.600899,22.1946067 C110.664809,22.1946067 103.421124,29.4382921 103.421124,38.374382" id="Fill-7" fill="#89553B"></path>
                <path d="M71.061573,18.9586517 C71.061573,27.8939326 78.3052584,35.138427 87.2413483,35.138427 C96.1774382,35.138427 103.421124,27.8939326 103.421124,18.9586517 C103.421124,10.0225618 96.1774382,2.7788764 87.2413483,2.7788764 C78.3052584,2.7788764 71.061573,10.0225618 71.061573,18.9586517" id="Fill-8" fill="#89553B"></path>
                <path d="M65.4657978,37.0937528 C65.4657978,46.0290337 72.7094831,53.2735281 81.645573,53.2735281 C90.5816629,53.2735281 97.8253483,46.0290337 97.8253483,37.0937528 C97.8253483,28.1576629 90.5816629,20.9139775 81.645573,20.9139775 C72.7094831,20.9139775 65.4657978,28.1576629 65.4657978,37.0937528" id="Fill-9" fill="#89553B"></path>
                <path d="M71.061573,42.1499326 C71.061573,51.0852135 78.3052584,58.3297079 87.2413483,58.3297079 C96.1774382,58.3297079 103.421124,51.0852135 103.421124,42.1499326 C103.421124,33.2138427 96.1774382,25.9701573 87.2413483,25.9701573 C78.3052584,25.9701573 71.061573,33.2138427 71.061573,42.1499326" id="Fill-10" fill="#89553B"></path>
                <path d="M88.9264719,53.2735281 C88.9264719,62.208809 96.1701573,69.4533034 105.106247,69.4533034 C114.042337,69.4533034 121.286022,62.208809 121.286022,53.2735281 C121.286022,44.3374382 114.042337,37.0937528 105.106247,37.0937528 C96.1701573,37.0937528 88.9264719,44.3374382 88.9264719,53.2735281" id="Fill-11" fill="#89553B"></path>
                <path d="M75.6962697,60.4662472 C75.6962697,69.4023371 82.9399551,76.6460225 91.8760449,76.6460225 C100.812135,76.6460225 108.05582,69.4023371 108.05582,60.4662472 C108.05582,51.5301573 100.812135,44.2864719 91.8760449,44.2864719 C82.9399551,44.2864719 75.6962697,51.5301573 75.6962697,60.4662472" id="Fill-12" fill="#89553B"></path>
                <path d="M46.1681798,60.4662472 C46.1681798,69.4023371 53.4118652,76.6460225 62.3479551,76.6460225 C71.2840449,76.6460225 78.5277303,69.4023371 78.5277303,60.4662472 C78.5277303,51.5301573 71.2840449,44.2864719 62.3479551,44.2864719 C53.4118652,44.2864719 46.1681798,51.5301573 46.1681798,60.4662472" id="Fill-13" fill="#89553B"></path>
                <path d="M33.1062472,63.4166292 C33.1062472,72.3519101 40.3499326,79.5964045 49.2860225,79.5964045 C58.2221124,79.5964045 65.4657978,72.3519101 65.4657978,63.4166292 C65.4657978,54.4805393 58.2221124,47.2368539 49.2860225,47.2368539 C40.3499326,47.2368539 33.1062472,54.4805393 33.1062472,63.4166292" id="Fill-14" fill="#89553B"></path>
                <path d="M62.3479551,60.4662472 C62.3479551,69.4023371 69.5916404,76.6460225 78.5277303,76.6460225 C87.4638202,76.6460225 94.7075056,69.4023371 94.7075056,60.4662472 C94.7075056,51.5301573 87.4638202,44.2864719 78.5277303,44.2864719 C69.5916404,44.2864719 62.3479551,51.5301573 62.3479551,60.4662472" id="Fill-15" fill="#89553B"></path>
                <path d="M36.8712809,70.7339326 C36.8712809,79.6692135 29.6275955,86.9137079 20.6915056,86.9137079 C11.7554157,86.9137079 4.51173034,79.6692135 4.51173034,70.7339326 C4.51173034,61.7978427 11.7554157,54.5541573 20.6915056,54.5541573 C29.6275955,54.5541573 36.8712809,61.7978427 36.8712809,70.7339326" id="Fill-16" fill="#89553B"></path>
                <path d="M26.8940225,55.4982472 C26.8940225,62.8705618 20.9180225,68.8465618 13.5457079,68.8465618 C6.17258427,68.8465618 0.197393258,62.8705618 0.197393258,55.4982472 C0.197393258,48.1251236 6.17258427,42.1499326 13.5457079,42.1499326 C20.9180225,42.1499326 26.8940225,48.1251236 26.8940225,55.4982472" id="Fill-17" fill="#89553B"></path>
                <path d="M47.3881348,37.0937528 C47.3881348,44.4660674 41.4121348,50.4420674 34.0398202,50.4420674 C26.6666966,50.4420674 20.6915056,44.4660674 20.6915056,37.0937528 C20.6915056,29.7206292 26.6666966,23.7454382 34.0398202,23.7454382 C41.4121348,23.7454382 47.3881348,29.7206292 47.3881348,37.0937528" id="Fill-18" fill="#89553B"></path>
                <path d="M38.017618,82.6333483 C38.017618,89.0559101 32.5391461,94.2625618 25.7816629,94.2625618 C19.0233708,94.2625618 13.5457079,89.0559101 13.5457079,82.6333483 C13.5457079,76.2099775 19.0233708,71.0041348 25.7816629,71.0041348 C32.5391461,71.0041348 38.017618,76.2099775 38.017618,82.6333483" id="Fill-19" fill="#89553B"></path>
                <path d="M47.3881348,22.1946067 C47.3881348,29.5669213 41.4121348,35.5429213 34.0398202,35.5429213 C26.6666966,35.5429213 20.6915056,29.5669213 20.6915056,22.1946067 C20.6915056,14.8214831 26.6666966,8.84629213 34.0398202,8.84629213 C41.4121348,8.84629213 47.3881348,14.8214831 47.3881348,22.1946067" id="Fill-20" fill="#89553B"></path>
                <path d="M87.2413483,13.3863371 C87.2413483,20.9317753 81.1253933,27.0485393 73.5799551,27.0485393 C66.0328989,27.0485393 59.9169438,20.9317753 59.9169438,13.3863371 C59.9169438,5.84008989 66.0328989,-0.276674157 73.5799551,-0.276674157 C81.1253933,-0.276674157 87.2413483,5.84008989 87.2413483,13.3863371" id="Fill-21" fill="#89553B"></path>
                <path d="M36.8712809,38.374382 C36.8712809,47.3096629 29.6275955,54.5541573 20.6915056,54.5541573 C11.7554157,54.5541573 4.51173034,47.3096629 4.51173034,38.374382 C4.51173034,29.4382921 11.7554157,22.1946067 20.6915056,22.1946067 C29.6275955,22.1946067 36.8712809,29.4382921 36.8712809,38.374382" id="Fill-22" fill="#89553B"></path>
                <path d="M69.2308315,18.9586517 C69.2308315,27.8939326 61.9871461,35.138427 53.0510562,35.138427 C44.1149663,35.138427 36.8712809,27.8939326 36.8712809,18.9586517 C36.8712809,10.0225618 44.1149663,2.7788764 53.0510562,2.7788764 C61.9871461,2.7788764 69.2308315,10.0225618 69.2308315,18.9586517" id="Fill-23" fill="#89553B"></path>
                <path d="M83.7254831,37.0937528 C83.7254831,46.0290337 76.4817978,53.2735281 67.5457079,53.2735281 C58.609618,53.2735281 51.3659326,46.0290337 51.3659326,37.0937528 C51.3659326,28.1576629 58.609618,20.9139775 67.5457079,20.9139775 C76.4817978,20.9139775 83.7254831,28.1576629 83.7254831,37.0937528" id="Fill-24" fill="#89553B"></path>
                <path d="M69.2308315,42.1499326 C69.2308315,51.0852135 61.9871461,58.3297079 53.0510562,58.3297079 C44.1149663,58.3297079 36.8712809,51.0852135 36.8712809,42.1499326 C36.8712809,33.2138427 44.1149663,25.9701573 53.0510562,25.9701573 C61.9871461,25.9701573 69.2308315,33.2138427 69.2308315,42.1499326" id="Fill-25" fill="#89553B"></path>
                <path d="M90.8817978,48.891236 C90.8817978,57.8273258 83.6381124,65.0710112 74.7020225,65.0710112 C65.7659326,65.0710112 58.5222472,57.8273258 58.5222472,48.891236 C58.5222472,39.9559551 65.7659326,32.7114607 74.7020225,32.7114607 C83.6381124,32.7114607 90.8817978,39.9559551 90.8817978,48.891236" id="Fill-26" fill="#89553B"></path>
                <path d="M51.3659326,53.2735281 C51.3659326,62.208809 44.1222472,69.4533034 35.1861573,69.4533034 C26.2500674,69.4533034 19.006382,62.208809 19.006382,53.2735281 C19.006382,44.3374382 26.2500674,37.0937528 35.1861573,37.0937528 C44.1222472,37.0937528 51.3659326,44.3374382 51.3659326,53.2735281" id="Fill-27" fill="#89553B"></path>
                <path d="M20.6915056,60.4662472 C20.6915056,60.4662472 18.3988315,38.6186966 38.017618,38.6186966 C57.6364045,38.6186966 29.3128989,27.0485393 29.3128989,27.0485393 L13.5457079,37.0937528 L20.6915056,60.4662472" id="Fill-28" fill="#89553B"></path>
                <path d="M22.7139775,81.3082247 C22.7139775,72.3721348 29.9576629,65.1284494 38.8937528,65.1284494 L103.421124,65.1284494 C112.357213,65.1284494 119.600899,72.3721348 119.600899,81.3082247 L119.600899,177.510742 C119.600899,186.446831 112.357213,193.690517 103.421124,193.690517 L38.8937528,193.690517 C29.9576629,193.690517 22.7139775,186.446831 22.7139775,177.510742 L22.7139775,81.3082247" id="Fill-29" fill="#FBCBA8"></path>
                <path d="M100.674607,88.9094831 L100.674607,110.506247 C100.674607,114.081978 97.775191,116.980584 94.1994607,116.980584 C90.6237303,116.980584 87.7259326,114.081978 87.7259326,110.506247 L87.7259326,88.9094831 L100.674607,88.9094831" id="Fill-30" fill="#EEA97B"></path>
                <path d="M100.812135,125.798562 L100.812135,129.802247 C100.812135,131.627326 99.3316854,133.107775 97.5066067,133.107775 C95.6799101,133.107775 94.1994607,131.627326 94.1994607,129.802247 L94.1994607,125.798562 L100.812135,125.798562" id="Fill-31" fill="#FFFFFF"></path>
                <path d="M94.1994607,125.798562 L94.1994607,129.802247 C94.1994607,131.627326 92.7190112,133.107775 90.8939326,133.107775 C89.0688539,133.107775 87.5884045,131.627326 87.5884045,129.802247 L87.5884045,125.798562 L94.1994607,125.798562" id="Fill-32" fill="#FFFFFF"></path>
                <path d="M68.2867416,88.9094831 C68.2867416,91.1439101 70.0972584,92.954427 72.3316854,92.954427 C74.5653034,92.954427 76.3766292,91.1439101 76.3766292,88.9094831 C76.3766292,86.6758652 74.5653034,84.8645393 72.3316854,84.8645393 C70.0972584,84.8645393 68.2867416,86.6758652 68.2867416,88.9094831" id="Fill-33" fill="#231F1F"></path>
                <path d="M105.500225,88.9094831 C105.500225,91.1439101 107.310742,92.954427 109.545169,92.954427 C111.778787,92.954427 113.590112,91.1439101 113.590112,88.9094831 C113.590112,86.6758652 111.778787,84.8645393 109.545169,84.8645393 C107.310742,84.8645393 105.500225,86.6758652 105.500225,88.9094831" id="Fill-34" fill="#231F1F"></path>
                <path d="M13.6023371,87.6167191 C13.6023371,92.0321798 17.1813034,95.6103371 21.5959551,95.6103371 C26.0114157,95.6103371 29.590382,92.0321798 29.590382,87.6167191 C29.590382,83.2020674 26.0114157,79.6231011 21.5959551,79.6231011 C17.1813034,79.6231011 13.6023371,83.2020674 13.6023371,87.6167191" id="Fill-35" fill="#FBCBA8"></path>
                <path d="M17.5777079,94.9639551 C17.5777079,96.0738876 18.4764944,96.9726742 19.586427,96.9726742 C20.6963596,96.9726742 21.5959551,96.0738876 21.5959551,94.9639551 C21.5959551,93.8540225 20.6963596,92.954427 19.586427,92.954427 C18.4764944,92.954427 17.5777079,93.8540225 17.5777079,94.9639551" id="Fill-36" fill="#F1F2F2"></path>
                <path d="M66.742382,80.3795056 L75.3395056,82.5896629 L75.743191,81.0226517 L67.1452584,78.8124944" id="Fill-37" fill="#414042"></path>
                <path d="M92.1203596,172.454562 C97.9013933,172.454562 103.103191,171.098697 106.724225,168.937888 L106.724225,189.241079 L77.5164944,189.241079 L77.5164944,168.937888 C81.1375281,171.098697 86.3393258,172.454562 92.1203596,172.454562" id="Fill-38" fill="#231F1F"></path>
                <path d="M46.6390112,139.48827 L94.3030112,180.746697 L122.910472,149.929888 L122.910472,229.684045 C122.910472,258.059326 99.9076854,281.061303 71.5332135,281.061303 C43.1595506,281.061303 20.1559551,258.059326 20.1559551,229.684045 L20.1559551,132.005124 L46.6390112,139.48827" id="Fill-39" fill="#C0392B"></path>
                <path d="M22.7139775,110.846831 L94.3030112,180.746697 L25.7816629,149.600629 L29.590382,143.533213 L11.8702921,132.611865 L22.7139775,110.846831" id="Fill-40" fill="#E74C3C"></path>
                <path d="M94.3030112,180.746697 L119.600899,135.443326 L131.196135,145.796764 L121.286022,152.836584 L124.724225,155.263551 L94.3030112,180.746697" id="Fill-41" fill="#E74C3C"></path>
                <path d="M99.7127191,65.0710112 L119.600899,65.0710112 L119.600899,81.3074157 L99.7127191,81.3074157 L99.7127191,65.0710112 Z" id="Fill-42" fill="#FBCBA8"></path>
                <path d="M113.641888,78.8124944 L105.044764,81.0234607 L105.44764,82.5896629 L114.044764,80.3795056 L113.641888,78.8124944" id="Fill-43" fill="#414042"></path>
                <path d="M106.359371,8.84629213 L106.306787,8.84629213 C113.654022,8.87541573 119.600899,14.8400899 119.600899,22.1946067 C128.536989,22.1946067 135.780674,29.4382921 135.780674,38.374382 C135.780674,40.5974831 135.332494,42.7170337 134.521079,44.6448539 C137.896989,47.0677753 140.095011,51.0253483 140.095011,55.4982472 C140.095011,59.7276404 138.12836,63.4967191 135.059865,65.9422921 C135.52827,67.4567191 135.780674,69.0657978 135.780674,70.7339326 C135.780674,77.2438652 131.935551,82.8566292 126.39236,85.4235506 C125.493573,88.8941124 122.954157,91.7514607 119.600899,93.2116854 L119.600899,135.443326 L131.196135,145.796764 L122.910472,151.682966 L122.910472,153.982921 L124.724225,155.263551 L122.910472,156.782831 L122.910472,229.684045 C122.910472,249.882876 111.255371,267.358652 94.3030112,275.752719 L94.3030112,275.795596 C111.309573,267.420135 123.017258,249.923326 123.017258,229.684045 L123.017258,156.782831 L124.831011,155.263551 L123.017258,153.982921 L123.017258,151.682157 L131.302921,145.796764 L119.707685,135.443326 L119.707685,93.1987416 C123.060944,91.7360899 125.591461,88.8819775 126.48782,85.4097978 C132.032629,82.8428764 135.887461,77.2446742 135.887461,70.7339326 C135.887461,69.0617528 135.633438,67.4502472 135.163416,65.9342022 C138.231101,63.4878202 140.201798,59.7260225 140.201798,55.4982472 C140.201798,51.0261573 137.996494,47.0791011 134.622202,44.6569888 C135.436854,42.7251236 135.887461,40.6031461 135.887461,38.374382 C135.887461,29.4382921 128.643775,22.1946067 119.707685,22.1946067 C119.707685,14.8214831 113.731685,8.84629213 106.359371,8.84629213 M94.3030112,4.34993258 L94.3030112,4.39685393 C96.9200899,5.66777528 99.144,7.62552809 100.739326,10.0338876 C100.765213,10.0225618 100.790292,10.011236 100.815371,9.99991011 C99.2006292,7.57698876 96.9500225,5.61519101 94.3030112,4.34993258" id="Fill-44" fill="#E9E8E8"></path>
                <path d="M135.059865,65.9422921 C132.779326,67.7600899 129.890427,68.8465618 126.746697,68.8465618 C124.118292,68.8465618 121.667056,68.0869213 119.600899,66.7747416 L119.600899,72.0542022 C123.817348,73.8906067 126.746697,77.9363596 126.746697,82.6333483 C126.746697,83.595236 126.624539,84.529618 126.39236,85.4235506 C131.935551,82.8566292 135.780674,77.2438652 135.780674,70.7339326 C135.780674,69.0657978 135.52827,67.4567191 135.059865,65.9422921 M116.826067,64.4286742 C116.61573,64.6495281 116.400539,64.8631011 116.178876,65.0710112 L117.444944,65.0710112 C117.231371,64.8639101 117.025079,64.6495281 116.826067,64.4286742" id="Fill-45" fill="#7F4F38"></path>
                <path d="M134.521079,44.6448539 C132.272899,49.9866067 127.241798,53.8673258 121.242337,54.4716404 C120.960809,58.320809 119.332315,61.7962247 116.826067,64.4286742 C117.025079,64.6495281 117.231371,64.8639101 117.444944,65.0710112 L119.600899,65.0710112 L119.600899,66.7747416 C121.667056,68.0869213 124.118292,68.8465618 126.746697,68.8465618 C129.890427,68.8465618 132.779326,67.7600899 135.059865,65.9422921 C138.12836,63.4967191 140.095011,59.7276404 140.095011,55.4982472 C140.095011,51.0253483 137.896989,47.0677753 134.521079,44.6448539" id="Fill-46" fill="#7F4F38"></path>
                <path d="M101.61627,34.7153258 C102.038562,35.5299775 102.393708,36.3866966 102.673618,37.2749663 C102.93573,37.2353258 103.199461,37.2021573 103.465618,37.1754607 C103.51173,36.5404045 103.595056,35.9142472 103.713169,35.3010337 C102.991551,35.1618876 102.290966,34.9653034 101.61627,34.7153258" id="Fill-47" fill="#7F4F38"></path>
                <path d="M119.600899,72.0542022 L119.600899,93.2116854 C122.954157,91.7514607 125.493573,88.8941124 126.39236,85.4235506 C126.624539,84.529618 126.746697,83.595236 126.746697,82.6333483 C126.746697,77.9363596 123.817348,73.8906067 119.600899,72.0542022" id="Fill-48" fill="#7F4F38"></path>
                <path d="M106.306787,8.84629213 C104.357933,8.85357303 102.513438,9.28961798 100.846921,10.0476404 C100.836404,10.0314607 100.825888,10.0152809 100.815371,9.99991011 C100.790292,10.011236 100.765213,10.0225618 100.739326,10.0338876 C102.434966,12.5919101 103.421124,15.6595955 103.421124,18.9586517 C103.421124,23.5051685 101.545888,27.6148315 98.5259326,30.5538876 C99.7653034,31.7608989 100.812944,33.1653034 101.61627,34.7153258 C102.290966,34.9653034 102.991551,35.1618876 103.713169,35.3010337 C105.148315,27.8340674 111.715685,22.1946067 119.600899,22.1946067 C119.600899,14.8400899 113.654022,8.87541573 106.306787,8.84629213" id="Fill-49" fill="#7F4F38"></path>
                <path d="M119.600899,22.1946067 L119.600899,22.1946067 C111.715685,22.1946067 105.148315,27.8340674 103.713169,35.3010337 C103.595056,35.9142472 103.51173,36.5404045 103.465618,37.1754607 C104.004404,37.1212584 104.55209,37.0937528 105.106247,37.0937528 C114.042337,37.0937528 121.286022,44.3374382 121.286022,53.2735281 C121.286022,53.6764045 121.271461,54.0760449 121.242337,54.4716404 C127.241798,53.8673258 132.272899,49.9866067 134.521079,44.6448539 C135.332494,42.7170337 135.780674,40.5974831 135.780674,38.374382 C135.780674,29.4382921 128.536989,22.1946067 119.600899,22.1946067" id="Fill-50" fill="#7F4F38"></path>
                <path d="M94.3030112,4.39685393 L94.3030112,27.0137528 C94.5432809,27.3146966 94.7730337,27.6245393 94.9914607,27.9432809 C96.2874607,28.6519551 97.4758652,29.5321348 98.5259326,30.5538876 C101.545888,27.6148315 103.421124,23.5051685 103.421124,18.9586517 C103.421124,15.6595955 102.434966,12.5919101 100.739326,10.0338876 C99.144,7.62552809 96.9200899,5.66777528 94.3030112,4.39685393" id="Fill-51" fill="#7F4F38"></path>
                <path d="M94.3030112,27.0137528 L94.3030112,27.5881348 C94.535191,27.7005843 94.7657528,27.8195056 94.9914607,27.9432809 C94.7730337,27.6245393 94.5432809,27.3146966 94.3030112,27.0137528" id="Fill-52" fill="#7F4F38"></path>
                <path d="M94.3030112,27.5881348 L94.3030112,41.2284944 C96.5973034,39.169618 99.4829663,37.7563146 102.673618,37.2749663 C102.393708,36.3866966 102.038562,35.5299775 101.61627,34.7153258 C100.812944,33.1653034 99.7653034,31.7608989 98.5259326,30.5538876 C97.4758652,29.5321348 96.2874607,28.6519551 94.9914607,27.9432809 C94.7657528,27.8195056 94.535191,27.7005843 94.3030112,27.5881348" id="Fill-53" fill="#7F4F38"></path>
                <path d="M105.106247,37.0937528 C104.55209,37.0937528 104.004404,37.1212584 103.465618,37.1754607 C103.199461,37.2021573 102.93573,37.2353258 102.673618,37.2749663 C99.4829663,37.7563146 96.5973034,39.169618 94.3030112,41.2284944 L94.3030112,44.4676854 C102.08791,45.6382921 108.05582,52.3553258 108.05582,60.4662472 C108.05582,62.066427 107.82364,63.6115955 107.390831,65.0710112 L116.178876,65.0710112 C116.400539,64.8631011 116.61573,64.6495281 116.826067,64.4286742 C119.332315,61.7962247 120.960809,58.320809 121.242337,54.4716404 C121.271461,54.0760449 121.286022,53.6764045 121.286022,53.2735281 C121.286022,44.3374382 114.042337,37.0937528 105.106247,37.0937528" id="Fill-54" fill="#7F4F38"></path>
                <path d="M94.3030112,44.4676854 L94.3030112,56.8549213 C94.5675506,58.0166292 94.7075056,59.2244494 94.7075056,60.4662472 C94.7075056,61.707236 94.5675506,62.9158652 94.3030112,64.077573 L94.3030112,65.1284494 L99.7127191,65.1284494 L99.7127191,65.0710112 L107.390831,65.0710112 C107.82364,63.6115955 108.05582,62.066427 108.05582,60.4662472 C108.05582,52.3553258 102.08791,45.6382921 94.3030112,44.4676854" id="Fill-55" fill="#7F4F38"></path>
                <path d="M94.3030112,56.8549213 L94.3030112,64.077573 C94.5675506,62.9158652 94.7075056,61.707236 94.7075056,60.4662472 C94.7075056,59.2244494 94.5675506,58.0166292 94.3030112,56.8549213" id="Fill-56" fill="#7F4F38"></path>
                <path d="M109.545169,92.954427 C107.310742,92.954427 105.500225,91.1439101 105.500225,88.9094831 C105.500225,86.6758652 107.310742,84.8645393 109.545169,84.8645393 C111.778787,84.8645393 113.590112,86.6758652 113.590112,88.9094831 C113.590112,91.1439101 111.778787,92.954427 109.545169,92.954427 M99.7127191,65.1284494 L94.3030112,65.1284494 L94.3030112,88.9094831 L100.674607,88.9094831 L100.674607,110.506247 C100.674607,114.047191 97.8310112,116.923955 94.3030112,116.979775 L94.3030112,125.798562 L100.812135,125.798562 L100.812135,129.802247 C100.812135,131.627326 99.3316854,133.107775 97.5066067,133.107775 C95.9646742,133.107775 94.6694831,132.052045 94.3030112,130.625798 L94.3030112,172.389034 C96.0649888,172.283865 97.7573933,172.051685 99.3494831,171.709483 L119.600899,135.443326 L119.600899,81.3082247 L110.433438,81.3082247 L105.44764,82.5896629 L105.117573,81.3082247 L99.7127191,81.3082247 L99.7127191,65.1284494" id="Fill-57" fill="#E5B99A"></path>
                <path d="M100.674607,88.9094831 L94.3030112,88.9094831 L94.3030112,116.979775 C97.8310112,116.923955 100.674607,114.047191 100.674607,110.506247 L100.674607,88.9094831" id="Fill-58" fill="#D99B72"></path>
                <path d="M100.812135,125.798562 L94.3030112,125.798562 L94.3030112,130.625798 C94.6694831,132.052045 95.9646742,133.107775 97.5066067,133.107775 C99.3316854,133.107775 100.812135,131.627326 100.812135,129.802247 L100.812135,125.798562" id="Fill-59" fill="#E9E8E8"></path>
                <path d="M109.545169,84.8645393 C107.310742,84.8645393 105.500225,86.6758652 105.500225,88.9094831 C105.500225,91.1439101 107.310742,92.954427 109.545169,92.954427 C111.778787,92.954427 113.590112,91.1439101 113.590112,88.9094831 C113.590112,86.6758652 111.778787,84.8645393 109.545169,84.8645393" id="Fill-60" fill="#231F1F"></path>
                <path d="M99.3494831,171.709483 C97.7573933,172.051685 96.0649888,172.283865 94.3030112,172.389034 L94.3030112,180.746697 L99.3494831,171.709483" id="Fill-61" fill="#231F1F"></path>
                <path d="M122.910472,156.782831 L94.3030112,180.746697 L94.3030112,275.752719 C111.255371,267.358652 122.910472,249.882876 122.910472,229.684045 L122.910472,156.782831 M122.910472,151.682966 L121.286022,152.836584 L122.910472,153.982921 L122.910472,151.682966" id="Fill-62" fill="#B0362A"></path>
                <path d="M119.600899,135.443326 L119.600899,135.443326 L94.3030112,180.746697 L124.724225,155.263551 L121.286022,152.836584 L131.196135,145.796764 L119.600899,135.443326" id="Fill-63" fill="#D34739"></path>
                <path d="M119.600899,65.0710112 L99.7127191,65.0710112 L99.7127191,81.3082247 L105.117573,81.3082247 L105.044764,81.0234607 L113.641888,78.8124944 L114.044764,80.3795056 L110.433438,81.3082247 L119.600899,81.3082247 L119.600899,65.0710112" id="Fill-64" fill="#E5B99A"></path>
                <path d="M113.641888,78.8124944 L105.044764,81.0234607 L105.117573,81.3082247 L105.44764,82.5896629 L110.433438,81.3082247 L114.044764,80.3795056 L113.641888,78.8124944" id="Fill-65" fill="#3E3D3F"></path>
                <path d="M11.5054382,79.1191011 C11.5054382,75.9737528 14.0553708,73.4246292 17.1999101,73.4246292 C20.3444494,73.4246292 22.893573,75.9737528 22.893573,79.1191011 C22.893573,82.2628315 20.3444494,84.812764 17.1999101,84.812764 C14.0553708,84.812764 11.5054382,82.2628315 11.5054382,79.1191011" id="Fill-66" fill="#89553B"></path>
                <path d="M261.063101,49.2690337 C261.063101,44.8017978 264.686562,41.1791461 269.152989,41.1791461 L279.804135,41.1791461 C284.271371,41.1791461 287.894022,44.8017978 287.894022,49.2690337 L287.894022,90.5274607 C287.894022,94.9955056 284.271371,98.6173483 279.804135,98.6173483 L269.152989,98.6173483 C264.686562,98.6173483 261.063101,94.9955056 261.063101,90.5274607 L261.063101,49.2690337" id="Fill-67" fill="#414042"></path>
                <path d="M208.798382,23.614382 C213.264809,23.614382 216.88827,27.2378427 216.88827,31.7042697 L216.88827,31.8385618 C216.88827,36.3057978 213.264809,39.9284494 208.798382,39.9284494 L184.528719,39.9284494 C180.059865,39.9284494 176.438831,36.3057978 176.438831,31.8385618 L176.438831,31.7042697 C176.438831,27.2378427 180.059865,23.614382 184.528719,23.614382 L208.798382,23.614382" id="Fill-68" fill="#414042"></path>
                <path d="M207.208719,23.614382 L263.62436,23.614382 C277.027685,23.614382 287.894022,34.4807191 287.894022,47.8840449 L287.894022,49.2690337 C287.894022,62.6731685 277.027685,73.5386966 263.62436,73.5386966 L207.208719,73.5386966" id="Fill-69" fill="#414042"></path>
                <path d="M274.623371,53.8026067 C274.623371,44.8665169 267.380494,37.6228315 258.443596,37.6228315 L193.915416,37.6228315 C184.980135,37.6228315 177.73564,44.8665169 177.73564,53.8026067 L177.73564,150.005124 C177.73564,158.941213 184.980135,166.184899 193.915416,166.184899 L258.443596,166.184899 C267.380494,166.184899 274.623371,158.941213 274.623371,150.005124 L274.623371,53.8026067" id="Fill-70" fill="#FBCBA8"></path>
                <path d="M229.050607,88.9094831 C229.050607,91.1439101 227.24009,92.954427 225.005663,92.954427 C222.772045,92.954427 220.961528,91.1439101 220.961528,88.9094831 C220.961528,86.6758652 222.772045,84.8645393 225.005663,84.8645393 C227.24009,84.8645393 229.050607,86.6758652 229.050607,88.9094831" id="Fill-71" fill="#231F1F"></path>
                <path d="M191.837933,88.9094831 C191.837933,91.1439101 190.027416,92.954427 187.792989,92.954427 C185.558562,92.954427 183.748045,91.1439101 183.748045,88.9094831 C183.748045,86.6758652 185.558562,84.8645393 187.792989,84.8645393 C190.027416,84.8645393 191.837933,86.6758652 191.837933,88.9094831" id="Fill-72" fill="#231F1F"></path>
                <path d="M219.824899,80.6108764 L230.185618,80.6108764 L230.185618,84.6558202 L219.824899,84.6558202 L219.824899,80.6108764 Z" id="Fill-73" fill="#414042"></path>
                <path d="M182.611416,80.6108764 L192.972135,80.6108764 L192.972135,84.6558202 L182.611416,84.6558202 L182.611416,80.6108764 Z" id="Fill-74" fill="#414042"></path>
                <path d="M285.175011,87.6167191 C285.175011,92.0321798 281.596045,95.6103371 277.181393,95.6103371 C272.766742,95.6103371 269.187775,92.0321798 269.187775,87.6167191 C269.187775,83.2020674 272.766742,79.6231011 277.181393,79.6231011 C281.596045,79.6231011 285.175011,83.2020674 285.175011,87.6167191" id="Fill-75" fill="#FBCBA8"></path>
                <path d="M250.814831,34.3229663 L250.814831,56.1252135 C250.814831,69.5285393 261.681169,80.3948764 275.084494,80.3948764 L281.960899,80.3948764 L281.960899,31.7714157 L250.949124,31.7714157 C250.862562,32.6103371 250.814831,33.4605843 250.814831,34.3229663" id="Fill-76" fill="#414042"></path>
                <path d="M259.869034,42.3222472 C259.869034,46.7902921 256.247191,50.4121348 251.779146,50.4121348 L243.323596,50.4121348 C238.855551,50.4121348 235.233708,46.7902921 235.233708,42.3222472 L235.233708,37.5354607 C235.233708,33.0682247 238.855551,29.445573 243.323596,29.445573 L251.779146,29.445573 C256.247191,29.445573 259.869034,33.0682247 259.869034,37.5354607 L259.869034,42.3222472" id="Fill-77" fill="#414042"></path>
                <path d="M250.814831,50.4995056 C250.814831,54.9667416 247.193798,58.5893933 242.724944,58.5893933 L234.270202,58.5893933 C229.802157,58.5893933 226.179506,54.9667416 226.179506,50.4995056 L226.179506,45.7127191 C226.179506,41.2446742 229.802157,37.6228315 234.270202,37.6228315 L242.724944,37.6228315 C247.193798,37.6228315 250.814831,41.2446742 250.814831,45.7127191 L250.814831,50.4995056" id="Fill-78" fill="#FBCBA8"></path>
                <path d="M196.663551,85.9146067 L196.663551,105.007551 C196.663551,108.583281 199.562966,111.481888 203.138697,111.481888 C206.714427,111.481888 209.611416,108.583281 209.611416,105.007551 L209.611416,85.9146067 L196.663551,85.9146067" id="Fill-79" fill="#EEA97B"></path>
                <path d="M211.809438,106.998472 C211.809438,108.775011 210.368629,110.215011 208.592899,110.215011 C206.815551,110.215011 205.375551,108.775011 205.375551,106.998472 C205.375551,105.221124 206.815551,103.781124 208.592899,103.781124 C210.368629,103.781124 211.809438,105.221124 211.809438,106.998472" id="Fill-80" fill="#EEA97B"></path>
                <path d="M201.71164,106.998472 C201.71164,108.775011 200.270831,110.215011 198.494292,110.215011 C196.716944,110.215011 195.277753,108.775011 195.277753,106.998472 C195.277753,105.221124 196.716944,103.781124 198.494292,103.781124 C200.270831,103.781124 201.71164,105.221124 201.71164,106.998472" id="Fill-81" fill="#EEA97B"></path>
                <path d="M207.208719,110.215011 C207.208719,112.520629 205.339146,114.388584 203.034337,114.388584 C200.728719,114.388584 198.861573,112.520629 198.861573,110.215011 C198.861573,107.910202 200.728719,106.041438 203.034337,106.041438 C205.339146,106.041438 207.208719,107.910202 207.208719,110.215011" id="Fill-82" fill="#EEA97B"></path>
                <path d="M195.972674,127.62364 L210.095191,127.62364 C212.329618,127.62364 214.140135,125.813124 214.140135,123.578697 L191.92773,123.578697 C191.92773,125.813124 193.738247,127.62364 195.972674,127.62364" id="Fill-83" fill="#EEA97B"></path>
                <path d="M177.73564,140.07236 C177.73564,140.07236 185.236584,160.79218 201.71164,160.79218 C218.185079,160.79218 246.096809,144.881798 266.387865,127.62364 L266.387865,203.399191 L177.73564,203.399191 L177.73564,140.07236" id="Fill-84" fill="#FFFFFF"></path>
                <path d="M200.708494,167.625708 L199.064629,173.638921 L203.034337,180.746697 L206.982202,176.891865 L204.309303,167.347416 L200.708494,167.625708" id="Fill-85" fill="#297CAA"></path>
                <path d="M198.494292,160.725034 L200.388944,168.746966 L204.70409,168.746966 L210.501303,160.725034 L198.494292,160.725034" id="Fill-86" fill="#2980B9"></path>
                <path d="M203.137079,160.752539 L207.356764,169.33591 L265.809438,149.377348 L258.634517,135.443326 C258.634517,135.443326 218.829843,157.206742 203.137079,160.752539" id="Fill-87" fill="#E6E7E8"></path>
                <path d="M203.034337,160.756584 L198.494292,169.33591 L174.90418,153.645573 L180.491056,145.796764 L203.034337,160.756584" id="Fill-88" fill="#E6E7E8"></path>
                <path d="M250.698337,139.48827 L203.034337,180.746697 L174.426876,149.929888 L174.426876,229.684045 C174.426876,258.059326 197.429663,281.061303 225.804135,281.061303 C254.176989,281.061303 277.181393,258.059326 277.181393,229.684045 L277.181393,132.005124 L250.698337,139.48827" id="Fill-89" fill="#414042"></path>
                <path d="M274.623371,110.846831 L203.034337,180.746697 L271.556494,149.600629 L267.746966,143.533213 L285.467056,132.611865 L274.623371,110.846831" id="Fill-90" fill="#58595B"></path>
                <path d="M203.034337,180.746697 L177.73564,135.443326 L166.141213,145.796764 L176.051326,152.836584 L172.613124,155.263551 L203.034337,180.746697" id="Fill-91" fill="#58595B"></path>
                <path d="M177.73564,53.7629663 L177.73564,53.7710562 L177.73564,53.7629663 M177.73564,53.7306067 L177.73564,53.7386966 L177.73564,53.7306067 M177.736449,53.6618427 L177.736449,53.6658876 L177.736449,53.6618427 M177.736449,53.6286742 L177.736449,53.6319101 L177.736449,53.6286742" id="Fill-92" fill="#E9E8E8"></path>
                <path d="M201.71164,23.614382 L184.528719,23.614382 C180.059865,23.614382 176.438831,27.2378427 176.438831,31.7042697 L176.438831,31.8385618 C176.438831,36.3057978 180.059865,39.9284494 184.528719,39.9284494 L185.586067,39.9284494 C188.019506,38.4649888 190.868764,37.6228315 193.915416,37.6228315 L201.71164,37.6228315 L201.71164,23.614382" id="Fill-93" fill="#3E3D3F"></path>
                <path d="M187.792989,92.954427 C185.558562,92.954427 183.748045,91.1439101 183.748045,88.9094831 C183.748045,86.6758652 185.558562,84.8645393 187.792989,84.8645393 C190.027416,84.8645393 191.837933,86.6758652 191.837933,88.9094831 C191.837933,91.1439101 190.027416,92.954427 187.792989,92.954427 L187.792989,92.954427 Z M182.611416,80.6108764 L192.972135,80.6108764 L192.972135,84.6558202 L182.611416,84.6558202 L182.611416,80.6108764 Z M201.71164,37.6228315 L193.915416,37.6228315 C190.868764,37.6228315 188.019506,38.4649888 185.586067,39.9284494 L185.621663,39.9284494 C180.949753,42.7275506 177.797933,47.8015281 177.736449,53.6286742 L177.736449,53.6319101 L177.736449,53.6618427 L177.736449,53.6658876 C177.736449,53.6869213 177.736449,53.708764 177.73564,53.7306067 L177.73564,53.7386966 L177.73564,53.7629663 L177.73564,53.7710562 L177.73564,53.8026067 L177.73564,135.443326 L185.298876,148.987416 L201.71164,159.878831 L201.71164,127.62364 L195.972674,127.62364 C193.738247,127.62364 191.92773,125.813124 191.92773,123.578697 L201.71164,123.578697 L201.71164,114.175011 C200.054831,113.621663 198.861573,112.058697 198.861573,110.215011 L198.861573,110.194787 C198.741034,110.20773 198.618876,110.215011 198.494292,110.215011 C196.716944,110.215011 195.277753,108.775011 195.277753,106.998472 C195.277753,105.901483 195.825438,104.933933 196.663551,104.353079 L196.663551,85.9146067 L201.71164,85.9146067 L201.71164,37.6228315 L201.71164,37.6228315 Z" id="Fill-94" fill="#E5B99A"></path>
                <path d="M187.792989,84.8645393 C185.558562,84.8645393 183.748045,86.6758652 183.748045,88.9094831 C183.748045,91.1439101 185.558562,92.954427 187.792989,92.954427 C190.027416,92.954427 191.837933,91.1439101 191.837933,88.9094831 C191.837933,86.6758652 190.027416,84.8645393 187.792989,84.8645393" id="Fill-95" fill="#231F1F"></path>
                <path d="M182.611416,80.6108764 L192.972135,80.6108764 L192.972135,84.6558202 L182.611416,84.6558202 L182.611416,80.6108764 Z" id="Fill-96" fill="#3E3D3F"></path>
                <path d="M201.71164,85.9146067 L196.663551,85.9146067 L196.663551,104.353079 C197.182921,103.99227 197.813933,103.781124 198.494292,103.781124 C200.024899,103.781124 201.306337,104.850607 201.631551,106.282517 C201.658247,106.273618 201.684944,106.26391 201.71164,106.25582 L201.71164,85.9146067" id="Fill-97" fill="#D99B72"></path>
                <path d="M198.494292,103.781124 C197.813933,103.781124 197.182921,103.99227 196.663551,104.353079 C195.825438,104.933933 195.277753,105.901483 195.277753,106.998472 C195.277753,108.775011 196.716944,110.215011 198.494292,110.215011 C198.618876,110.215011 198.741034,110.20773 198.861573,110.194787 C198.869663,108.389933 200.022472,106.856899 201.631551,106.282517 C201.306337,104.850607 200.024899,103.781124 198.494292,103.781124" id="Fill-98" fill="#D99B72"></path>
                <path d="M201.71164,106.25582 C201.684944,106.26391 201.658247,106.273618 201.631551,106.282517 C200.022472,106.856899 198.869663,108.389933 198.861573,110.194787 L198.861573,110.215011 C198.861573,112.058697 200.054831,113.621663 201.71164,114.175011 L201.71164,106.25582" id="Fill-99" fill="#D99B72"></path>
                <path d="M201.71164,123.578697 L191.92773,123.578697 C191.92773,125.813124 193.738247,127.62364 195.972674,127.62364 L201.71164,127.62364 L201.71164,123.578697" id="Fill-100" fill="#D99B72"></path>
                <path d="M199.901124,166.678382 L198.494292,169.33591 L195.579506,167.397573 L201.71164,178.377978 L199.064629,173.638921 L200.401888,168.746966 L200.388944,168.746966 L199.901124,166.678382" id="Fill-101" fill="#E9E8E8"></path>
                <path d="M201.71164,168.746966 L200.401888,168.746966 L199.064629,173.638921 L201.71164,178.377978 L201.71164,168.746966" id="Fill-102" fill="#28739C"></path>
                <path d="M201.71164,163.25636 L199.901124,166.678382 L200.388944,168.746966 L201.71164,168.746966 L201.71164,163.25636" id="Fill-103" fill="#2876A9"></path>
                <path d="M185.298876,148.987416 L195.579506,167.397573 L198.494292,169.33591 L201.71164,163.25636 L201.71164,159.878831 L185.298876,148.987416" id="Fill-104" fill="#D2D3D4"></path>
                <path d="M174.426876,153.982921 L172.613124,155.263551 L174.426876,153.982921" id="Fill-105" fill="#E9E8E8"></path>
                <path d="M174.426876,151.682966 L174.426876,153.982921 L176.051326,152.836584 L174.426876,151.682966" id="Fill-106" fill="#3E3D3F"></path>
                <path d="M174.436584,230.658876 L174.436584,230.66373 L174.436584,230.658876 M174.433348,230.487371 L174.433348,230.492225 L174.433348,230.487371 M174.43173,230.369258 L174.43173,230.378157 L174.43173,230.369258 M174.430921,230.314247 L174.430921,230.322337 L174.430921,230.314247 M174.430112,230.257618 L174.430112,230.260045 L174.430112,230.257618 M174.429303,230.196944 C174.429303,230.199371 174.430112,230.205034 174.430112,230.207461 C174.430112,230.204225 174.430112,230.20018 174.429303,230.196944 M174.429303,230.14436 L174.429303,230.145978 L174.429303,230.14436 M174.428494,230.07964 L174.428494,230.090966 L174.428494,230.07964 M174.428494,230.02382 L174.428494,230.038382 L174.428494,230.02382 M174.427685,229.969618 L174.427685,229.972045 L174.427685,229.969618 M174.427685,229.907326 L174.427685,229.92027 L174.427685,229.907326 M174.427685,229.853933 L174.427685,229.865258 L174.427685,229.853933 M174.426876,229.79164 L174.426876,229.802157 L174.426876,229.79164 M174.426876,229.73582 L174.426876,229.750382 L174.426876,229.73582" id="Fill-107" fill="#E9E8E8"></path>
                <path d="M174.426876,156.782831 L174.426876,229.684045 L174.426876,229.73582 L174.426876,229.750382 L174.426876,229.79164 L174.426876,229.802157 C174.427685,229.819146 174.427685,229.837753 174.427685,229.853933 L174.427685,229.865258 L174.427685,229.907326 L174.427685,229.92027 L174.427685,229.969618 L174.427685,229.972045 C174.427685,229.990652 174.428494,230.006022 174.428494,230.02382 L174.428494,230.038382 L174.428494,230.07964 L174.428494,230.090966 C174.428494,230.108764 174.429303,230.125753 174.429303,230.14436 L174.429303,230.145978 L174.429303,230.196944 C174.430112,230.20018 174.430112,230.204225 174.430112,230.207461 L174.430112,230.257618 L174.430112,230.260045 C174.430921,230.277843 174.430921,230.296449 174.430921,230.314247 L174.430921,230.322337 C174.430921,230.338517 174.43173,230.35227 174.43173,230.369258 L174.43173,230.378157 C174.432539,230.413753 174.432539,230.450966 174.433348,230.487371 L174.433348,230.492225 C174.434157,230.547236 174.434966,230.603865 174.436584,230.658876 L174.436584,230.66373 C174.437393,230.700944 174.438202,230.738966 174.439011,230.77618 C174.839461,249.981573 185.781843,266.588494 201.71164,275.063461 L201.71164,179.638382 L174.426876,156.782831" id="Fill-108" fill="#3E3D3F"></path>
                <path d="M177.73564,135.443326 L177.73564,135.443326 L166.141213,145.796764 L174.426876,151.682157 L174.426876,151.682966 L176.051326,152.836584 L174.426876,153.982921 L172.613124,155.263551 L201.71164,179.638382 L201.71164,178.377978 L177.73564,135.443326" id="Fill-109" fill="#535355"></path>
            </g>
        </g>
    </g>
</svg>