<svg width="121" height="121" viewBox="0 0 121 121" xmlns="http://www.w3.org/2000/svg" xmlns:xlink="http://www.w3.org/1999/xlink"><title>dilminha1</title><desc>Created with Sketch.</desc><defs><path id="a" d="M119.236 59.568c0 32.953-26.714 59.668-59.668 59.668-32.953 0-59.666-26.715-59.666-59.668S26.615-.1 59.568-.1c32.954 0 59.668 26.715 59.668 59.668"/></defs><g fill="none"><path d="M120.236 60.568c0 32.953-26.714 59.668-59.668 59.668C27.615 120.236.902 93.52.902 60.568S27.615.9 60.568.9c32.954 0 59.668 26.715 59.668 59.668" fill="#EAEAEA"/><g transform="translate(1 1)"><mask id="b"><use xlink:href="#a"/></mask><path d="M76.778 49.422c0 4.768 3.865 8.633 8.633 8.633 4.77 0 8.634-3.865 8.634-8.633 0-4.77-3.865-8.633-8.633-8.633-4.767 0-8.632 3.863-8.632 8.632" fill="#89553B" mask="url(#b)"/><path d="M82.102 41.293c0 3.933 3.188 7.122 7.122 7.122 3.934 0 7.122-3.19 7.122-7.122 0-3.935-3.188-7.123-7.122-7.123-3.934 0-7.122 3.188-7.122 7.123" fill="#89553B" mask="url(#b)"/><path d="M71.166 31.472c0 3.934 3.19 7.123 7.123 7.123 3.933 0 7.12-3.19 7.12-7.123 0-3.934-3.187-7.122-7.12-7.122-3.935 0-7.124 3.188-7.124 7.122" fill="#89553B" mask="url(#b)"/><path d="M76.166 55.77c0 3.428 2.923 6.206 6.53 6.206 3.605 0 6.528-2.778 6.528-6.205 0-3.426-2.923-6.204-6.53-6.204-3.605 0-6.528 2.778-6.528 6.205" fill="#89553B" mask="url(#b)"/><path d="M71.166 23.523c0 3.933 3.19 7.122 7.123 7.122 3.933 0 7.12-3.19 7.12-7.122 0-3.935-3.187-7.123-7.12-7.123-3.935 0-7.124 3.188-7.124 7.123" fill="#89553B" mask="url(#b)"/><path d="M55.843 20.285c0 3.934 3.188 7.122 7.122 7.122 3.934 0 7.122-3.188 7.122-7.122 0-3.934-3.188-7.122-7.122-7.122-3.934 0-7.122 3.188-7.122 7.122" fill="#89553B" mask="url(#b)"/><path d="M76.778 32.156c0 4.768 3.865 8.633 8.633 8.633 4.77 0 8.634-3.866 8.634-8.634 0-4.768-3.865-8.633-8.633-8.633-4.767 0-8.632 3.865-8.632 8.633" fill="#89553B" mask="url(#b)"/><path d="M59.512 21.796c0 4.768 3.865 8.633 8.633 8.633 4.768 0 8.633-3.866 8.633-8.634 0-4.768-3.865-8.633-8.633-8.633-4.768 0-8.633 3.865-8.633 8.633" fill="#89553B" mask="url(#b)"/><path d="M56.526 31.472c0 4.768 3.865 8.633 8.633 8.633 4.767 0 8.632-3.865 8.632-8.633 0-4.768-3.865-8.633-8.633-8.633-4.77 0-8.634 3.864-8.634 8.632" fill="#89553B" mask="url(#b)"/><path d="M59.512 34.17c0 4.768 3.865 8.633 8.633 8.633 4.768 0 8.633-3.865 8.633-8.633 0-4.768-3.865-8.633-8.633-8.633-4.768 0-8.633 3.865-8.633 8.633" fill="#89553B" mask="url(#b)"/><path d="M69.044 40.105c0 4.768 3.865 8.634 8.633 8.634 4.768 0 8.633-3.867 8.633-8.635s-3.865-8.633-8.633-8.633c-4.768 0-8.633 3.865-8.633 8.633" fill="#89553B" mask="url(#b)"/><path d="M61.985 43.943c0 4.768 3.865 8.633 8.633 8.633 4.768 0 8.633-3.865 8.633-8.633 0-4.768-3.864-8.633-8.632-8.633s-8.633 3.865-8.633 8.633" fill="#89553B" mask="url(#b)"/><path d="M46.23 43.943c0 4.768 3.864 8.633 8.632 8.633 4.77 0 8.634-3.865 8.634-8.633 0-4.768-3.865-8.633-8.634-8.633-4.768 0-8.633 3.865-8.633 8.633" fill="#89553B" mask="url(#b)"/><path d="M39.26 45.518c0 4.768 3.865 8.633 8.633 8.633 4.768 0 8.633-3.864 8.633-8.632 0-4.77-3.865-8.634-8.633-8.634-4.768 0-8.633 3.865-8.633 8.634" fill="#89553B" mask="url(#b)"/><path d="M54.862 43.943c0 4.768 3.865 8.633 8.634 8.633 4.768 0 8.633-3.865 8.633-8.633 0-4.768-3.866-8.633-8.634-8.633-4.77 0-8.634 3.865-8.634 8.633" fill="#89553B" mask="url(#b)"/><path d="M41.27 49.422c0 4.768-3.867 8.633-8.635 8.633-4.767 0-8.632-3.865-8.632-8.633 0-4.768 3.865-8.633 8.632-8.633 4.768 0 8.634 3.864 8.634 8.632" fill="#89553B" mask="url(#b)"/><path d="M35.945 41.293c0 3.933-3.188 7.122-7.122 7.122-3.934 0-7.122-3.19-7.122-7.122 0-3.935 3.19-7.123 7.123-7.123 3.934 0 7.122 3.188 7.122 7.123" fill="#89553B" mask="url(#b)"/><path d="M46.88 31.472c0 3.934-3.188 7.123-7.122 7.123-3.934 0-7.123-3.19-7.123-7.123 0-3.934 3.19-7.122 7.123-7.122 3.934 0 7.122 3.188 7.122 7.122" fill="#89553B" mask="url(#b)"/><path d="M41.88 55.77c0 3.428-2.923 6.206-6.528 6.206-3.606 0-6.53-2.778-6.53-6.205 0-3.426 2.924-6.204 6.53-6.204 3.605 0 6.528 2.778 6.528 6.205" fill="#89553B" mask="url(#b)"/><path d="M46.88 23.523c0 3.933-3.188 7.122-7.122 7.122-3.934 0-7.123-3.19-7.123-7.122 0-3.935 3.19-7.123 7.123-7.123 3.934 0 7.122 3.188 7.122 7.123" fill="#89553B" mask="url(#b)"/><path d="M68.145 18.823c0 4.026-3.263 7.29-7.29 7.29-4.026 0-7.29-3.264-7.29-7.29 0-4.027 3.264-7.29 7.29-7.29 4.027 0 7.29 3.263 7.29 7.29" fill="#89553B" mask="url(#b)"/><path d="M41.27 32.156c0 4.768-3.867 8.633-8.635 8.633-4.767 0-8.632-3.866-8.632-8.634 0-4.768 3.865-8.633 8.632-8.633 4.768 0 8.634 3.865 8.634 8.633" fill="#89553B" mask="url(#b)"/><path d="M58.535 21.796c0 4.768-3.866 8.633-8.633 8.633-4.768 0-8.633-3.866-8.633-8.634 0-4.768 3.864-8.633 8.632-8.633 4.767 0 8.633 3.865 8.633 8.633" fill="#89553B" mask="url(#b)"/><path d="M66.27 31.472c0 4.768-3.867 8.633-8.634 8.633-4.768 0-8.634-3.865-8.634-8.633 0-4.768 3.866-8.633 8.634-8.633 4.767 0 8.633 3.864 8.633 8.632" fill="#89553B" mask="url(#b)"/><path d="M58.535 34.17c0 4.768-3.866 8.633-8.633 8.633-4.768 0-8.633-3.865-8.633-8.633 0-4.768 3.864-8.633 8.632-8.633 4.767 0 8.633 3.865 8.633 8.633" fill="#89553B" mask="url(#b)"/><path d="M70.087 37.768c0 4.768-3.865 8.633-8.633 8.633-4.768 0-8.633-3.864-8.633-8.632s3.866-8.633 8.634-8.633c4.768 0 8.633 3.865 8.633 8.633" fill="#89553B" mask="url(#b)"/><path d="M49.002 40.105c0 4.768-3.865 8.634-8.632 8.634-4.768 0-8.633-3.867-8.633-8.635s3.865-8.633 8.633-8.633c4.767 0 8.632 3.865 8.632 8.633" fill="#89553B" mask="url(#b)"/><path d="M32.635 43.943s-1.223-11.657 9.245-11.657-4.644-6.173-4.644-6.173l-8.413 5.36 3.812 12.47" fill="#89553B" mask="url(#b)"/><path d="M33.715 55.064c0-4.768 3.865-8.633 8.632-8.633h34.43c4.77 0 8.634 3.866 8.634 8.634v51.33c0 4.77-3.864 8.634-8.632 8.634h-34.43c-4.768 0-8.633-3.865-8.633-8.633v-51.33" fill="#FBCBA8" mask="url(#b)"/><path d="M75.313 59.12v11.523c0 1.908-1.548 3.454-3.455 3.454-1.908 0-3.455-1.546-3.455-3.454V59.12h6.91" fill="#EEA97B" mask="url(#b)"/><path d="M75.386 78.803v2.136c0 .973-.79 1.763-1.764 1.763-.975 0-1.764-.79-1.764-1.764v-2.137h3.528" fill="#fff" mask="url(#b)"/><path d="M71.858 78.803v2.136c0 .973-.79 1.763-1.764 1.763s-1.764-.79-1.764-1.764v-2.137h3.528" fill="#fff" mask="url(#b)"/><path d="M58.03 59.12c0 1.192.967 2.158 2.16 2.158 1.19 0 2.158-.966 2.158-2.158s-.967-2.158-2.16-2.158c-1.19 0-2.157.966-2.157 2.158" fill="#231F1F" mask="url(#b)"/><path d="M77.887 59.12c0 1.192.966 2.158 2.16 2.158 1.19 0 2.156-.966 2.156-2.158s-.966-2.158-2.157-2.158c-1.193 0-2.16.966-2.16 2.158" fill="#231F1F" mask="url(#b)"/><path d="M28.853 58.43c0 2.356 1.91 4.266 4.265 4.266 2.356 0 4.266-1.91 4.266-4.266 0-2.355-1.91-4.265-4.266-4.265-2.355 0-4.265 1.91-4.265 4.265" fill="#FBCBA8" mask="url(#b)"/><path d="M30.974 62.35c0 .593.48 1.072 1.072 1.072.592 0 1.072-.48 1.072-1.072 0-.592-.48-1.072-1.072-1.072-.592 0-1.072.48-1.072 1.072" fill="#F1F2F2" mask="url(#b)"/><path d="M61.794 55.748l.215-.836-4.588-1.18-.215.837 4.587 1.178" fill="#414042" mask="url(#b)"/><path d="M70.748 103.697c3.085 0 5.86-.723 7.792-1.876v10.834H62.956V101.82c1.932 1.154 4.708 1.877 7.792 1.877" fill="#231F1F" mask="url(#b)"/><path d="M46.48 86.107l25.433 22.015L87.177 91.68v42.553c0 15.14-12.274 27.414-27.414 27.414-15.14 0-27.413-12.273-27.413-27.414V82.115l14.13 3.992" fill="#C0392B" mask="url(#b)"/><path d="M33.715 70.825l38.198 37.297-36.56-16.62 2.03-3.236-9.454-5.828 5.785-11.613" fill="#E74C3C" mask="url(#b)"/><path d="M71.913 108.122L85.41 83.95l6.188 5.523-5.288 3.757 1.835 1.295-16.232 13.597" fill="#E74C3C" mask="url(#b)"/><path d="M74.8 46.4h10.61v8.664H74.8V46.4z" fill="#FBCBA8" mask="url(#b)"/><path d="M77.86 55.748l4.586-1.18-.214-.835-4.588 1.18.215.835" fill="#414042" mask="url(#b)"/><path d="M78.346 16.4h-.028c3.92.015 7.093 3.198 7.093 7.123 4.77 0 8.634 3.865 8.634 8.633 0 1.186-.24 2.317-.672 3.346 1.8 1.292 2.974 3.404 2.974 5.79 0 2.257-1.05 4.268-2.686 5.573.25.808.384 1.667.384 2.557 0 3.474-2.05 6.468-5.01 7.838-.48 1.852-1.834 3.376-3.623 4.155V83.95l6.188 5.523-4.42 3.14v1.228l.967.685-.968.81v17.142l.057-.03V95.335l.968-.81-.968-.684v-1.226l4.42-3.14-6.186-5.525V61.407c1.79-.78 3.14-2.302 3.618-4.155 2.958-1.37 5.015-4.357 5.015-7.83 0-.893-.134-1.753-.385-2.562 1.637-1.304 2.688-3.312 2.688-5.567 0-2.387-1.177-4.493-2.977-5.785.434-1.03.675-2.164.675-3.352 0-4.768-3.864-8.633-8.632-8.633 0-3.935-3.19-7.123-7.122-7.123M71.913 14v.026c1.396.678 2.583 1.723 3.434 3.008l.04-.018c-.86-1.293-2.06-2.34-3.474-3.015" fill="#BFC1C2" mask="url(#b)"/><path d="M93.66 46.865c-1.217.97-2.76 1.55-4.436 1.55-1.403 0-2.71-.406-3.813-1.106v2.817c2.25.98 3.814 3.138 3.814 5.644 0 .514-.066 1.013-.19 1.49 2.96-1.37 5.01-4.364 5.01-7.838 0-.89-.135-1.75-.384-2.557m-9.73-.807c-.11.117-.227.23-.345.343h.675c-.113-.11-.223-.225-.33-.342" fill="#7F4F38" mask="url(#b)"/><path d="M93.372 35.502c-1.2 2.85-3.884 4.92-7.085 5.243-.15 2.054-1.02 3.908-2.356 5.313.107.117.217.232.33.343h1.15v.91c1.104.7 2.41 1.105 3.814 1.105 1.677 0 3.22-.58 4.436-1.55 1.637-1.305 2.686-3.316 2.686-5.572 0-2.387-1.173-4.5-2.974-5.79" fill="#7F4F38" mask="url(#b)"/><path d="M75.815 30.203c.225.435.415.892.564 1.366.14-.022.28-.04.42-.054.026-.34.07-.673.134-1-.385-.074-.76-.18-1.12-.313" fill="#7F4F38" mask="url(#b)"/><path d="M85.41 50.127v11.288c1.79-.78 3.145-2.303 3.625-4.155.123-.477.19-.976.19-1.49 0-2.505-1.564-4.664-3.814-5.643" fill="#7F4F38" mask="url(#b)"/><path d="M78.318 16.4c-1.04.004-2.024.237-2.914.64-.005-.007-.01-.016-.017-.024l-.04.018c.904 1.365 1.43 3.002 1.43 4.762 0 2.426-1 4.62-2.61 6.187.66.644 1.22 1.393 1.648 2.22.36.134.734.24 1.12.313.765-3.984 4.27-6.993 8.476-6.993 0-3.925-3.172-7.108-7.092-7.123" fill="#7F4F38" mask="url(#b)"/><path d="M85.41 23.523c-4.206 0-7.71 3.01-8.476 6.993-.063.327-.108.66-.133 1 .29-.03.582-.044.877-.044 4.768 0 8.633 3.865 8.633 8.633 0 .215-.008.43-.023.64 3.2-.323 5.886-2.393 7.085-5.243.433-1.03.672-2.16.672-3.346 0-4.768-3.865-8.633-8.633-8.633" fill="#7F4F38" mask="url(#b)"/><path d="M71.913 14.026v12.068c.128.16.25.326.367.496.692.378 1.326.847 1.886 1.393 1.61-1.568 2.612-3.76 2.612-6.187 0-1.76-.527-3.397-1.43-4.762-.852-1.285-2.04-2.33-3.435-3.008" fill="#7F4F38" mask="url(#b)"/><path fill="#7F4F38" mask="url(#b)" d="M71.913 26.094v.306c.124.06.246.124.367.19-.116-.17-.24-.335-.367-.496"/><path d="M71.913 26.4v7.28c1.224-1.1 2.764-1.854 4.466-2.11-.15-.475-.34-.932-.565-1.367-.43-.827-.988-1.576-1.65-2.22-.56-.546-1.193-1.015-1.885-1.393-.12-.066-.243-.13-.367-.19" fill="#7F4F38" mask="url(#b)"/><path d="M77.677 31.472c-.295 0-.588.015-.876.044-.14.014-.28.032-.42.053-1.703.256-3.243 1.01-4.467 2.11v1.727c4.154.625 7.338 4.21 7.338 8.536 0 .854-.123 1.68-.354 2.458h4.69c.117-.11.233-.225.345-.342 1.338-1.405 2.207-3.26 2.357-5.313.015-.21.023-.425.023-.64 0-4.768-3.865-8.633-8.633-8.633" fill="#7F4F38" mask="url(#b)"/><path d="M71.913 35.407v6.61c.14.62.216 1.264.216 1.926 0 .662-.076 1.307-.217 1.927v.56H74.8v-.03h4.096c.23-.778.355-1.603.355-2.457 0-4.327-3.183-7.91-7.337-8.536" fill="#7F4F38" mask="url(#b)"/><path fill="#7F4F38" mask="url(#b)" d="M71.913 42.017v3.853c.14-.62.216-1.265.216-1.927 0-.662-.076-1.307-.217-1.926"/><path d="M80.046 61.278c-1.193 0-2.16-.966-2.16-2.158s.967-2.158 2.16-2.158c1.19 0 2.157.966 2.157 2.158s-.966 2.158-2.157 2.158M74.8 46.43h-2.887v12.69h3.4v11.523c0 1.89-1.518 3.425-3.4 3.454v4.706h3.473v2.136c0 .973-.79 1.763-1.764 1.763-.823 0-1.514-.563-1.71-1.325v22.284c.94-.056 1.844-.18 2.693-.362L85.41 83.95V55.063h-4.89l-2.66.684-.176-.684H74.8V46.43" fill="#E5B99A" mask="url(#b)"/><path d="M75.313 59.12h-3.4v14.977c1.882-.03 3.4-1.564 3.4-3.454V59.12" fill="#D99B72" mask="url(#b)"/><path d="M75.386 78.803h-3.473v2.575c.195.762.886 1.325 1.71 1.325.973 0 1.763-.79 1.763-1.764v-2.137" fill="#E9E8E8" mask="url(#b)"/><path d="M80.046 56.962c-1.193 0-2.16.966-2.16 2.158s.967 2.158 2.16 2.158c1.19 0 2.157-.966 2.157-2.158s-.966-2.158-2.157-2.158" fill="#231F1F" mask="url(#b)"/><path d="M74.605 103.3c-.85.182-1.752.306-2.692.362v4.46l2.692-4.822" fill="#231F1F" mask="url(#b)"/><path d="M87.177 95.335l-15.264 12.787v9.835c5.392-1.134 10.515-2.997 15.264-5.48V95.335m0-2.72l-.867.615.867.61v-1.226" fill="#B0362A" mask="url(#b)"/><path d="M85.41 83.95L71.914 108.12l16.232-13.597-1.835-1.295 5.288-3.757-6.187-5.524" fill="#D34739" mask="url(#b)"/><path d="M85.41 46.4H74.8v8.664h2.884l-.04-.152 4.588-1.18.214.837-1.926.494h4.89V46.4" fill="#E5B99A" mask="url(#b)"/><path d="M82.232 53.733l-4.588 1.18.215.835 4.586-1.18-.214-.835" fill="#3E3D3F" mask="url(#b)"/><path d="M27.734 53.896c0-1.678 1.36-3.038 3.04-3.038 1.677 0 3.037 1.36 3.037 3.038 0 1.678-1.36 3.038-3.037 3.038-1.68 0-3.04-1.36-3.04-3.038" fill="#89553B" mask="url(#b)"/></g></g></svg>