<svg width="292" height="221" viewBox="0 0 292 221" xmlns="http://www.w3.org/2000/svg"><title>dilma_sucesso</title><desc>Created with Sketch.</desc><g fill="none"><g id="Group" transform="translate(3 1)"><g stroke="#E74C3C" stroke-width="2"><path d="M143.327 202.492l-.793-.558L-.463 101.37 143.327.25l.793.56 142.996 100.56-143.79 101.122" id="Fill-2"/><path d="M143.327 142.05c-22.45 0-40.716-18.25-40.716-40.68 0-22.428 18.266-40.676 40.717-40.676 22.45 0 40.716 18.248 40.716 40.677 0 22.43-18.265 40.68-40.716 40.68z" id="Fill-4"/></g><ellipse fill="#E74C3C" cx="142.051" cy="217.985" rx="33.051" ry="1.985"/></g><g><path d="M169.963 60.024c0 6.186 5.012 11.2 11.195 11.2 6.183 0 11.195-5.014 11.195-11.2 0-6.187-5.012-11.202-11.195-11.202-6.183 0-11.195 5.015-11.195 11.202" fill="#89553B"/><path d="M176.866 49.476c0 5.104 4.135 9.24 9.237 9.24 5.1 0 9.236-4.136 9.236-9.24 0-5.105-4.136-9.24-9.237-9.24-5.102 0-9.237 4.135-9.237 9.24" fill="#89553B"/><path d="M162.686 36.734c0 5.104 4.135 9.24 9.236 9.24 5.102 0 9.236-4.136 9.236-9.24s-4.134-9.24-9.236-9.24c-5.1 0-9.236 4.136-9.236 9.24" fill="#89553B"/><path d="M169.17 68.262c0 4.446 3.79 8.05 8.466 8.05 4.676 0 8.467-3.604 8.467-8.05 0-4.447-3.79-8.05-8.467-8.05-4.676 0-8.466 3.603-8.466 8.05" fill="#89553B"/><path d="M162.686 26.42c0 5.103 4.135 9.24 9.236 9.24 5.102 0 9.236-4.137 9.236-9.24 0-5.105-4.134-9.242-9.236-9.242-5.1 0-9.236 4.137-9.236 9.24" fill="#89553B"/><path d="M142.814 22.22c0 5.103 4.135 9.24 9.236 9.24 5.102 0 9.236-4.137 9.236-9.24 0-5.105-4.134-9.242-9.236-9.242-5.1 0-9.236 4.137-9.236 9.24" fill="#89553B"/><path d="M169.963 37.62c0 6.187 5.012 11.202 11.195 11.202 6.183 0 11.195-5.015 11.195-11.2 0-6.188-5.012-11.203-11.195-11.203-6.183 0-11.195 5.014-11.195 11.2" fill="#89553B"/><path d="M147.572 24.18c0 6.185 5.012 11.2 11.195 11.2 6.184 0 11.196-5.015 11.196-11.2 0-6.187-5.012-11.202-11.196-11.202-6.183 0-11.195 5.015-11.195 11.2" fill="#89553B"/><path d="M143.7 36.734c0 6.186 5.012 11.202 11.195 11.202 6.184 0 11.196-5.016 11.196-11.202s-5.01-11.2-11.195-11.2c-6.183 0-11.195 5.014-11.195 11.2" fill="#89553B"/><path d="M147.572 40.235c0 6.186 5.012 11.2 11.195 11.2 6.184 0 11.196-5.014 11.196-11.2 0-6.187-5.012-11.202-11.196-11.202-6.183 0-11.195 5.015-11.195 11.202" fill="#89553B"/><path d="M159.933 47.936c0 6.186 5.013 11.2 11.196 11.2 6.182 0 11.194-5.014 11.194-11.2 0-6.187-5.012-11.202-11.195-11.202-6.184 0-11.197 5.015-11.197 11.202" fill="#89553B"/><path d="M150.78 52.915c0 6.187 5.01 11.202 11.194 11.202 6.183 0 11.196-5.015 11.196-11.202 0-6.186-5.013-11.2-11.196-11.2s-11.195 5.014-11.195 11.2" fill="#89553B"/><path d="M130.347 52.915c0 6.187 5.013 11.202 11.196 11.202s11.195-5.015 11.195-11.202c0-6.186-5.012-11.2-11.195-11.2-6.183 0-11.196 5.014-11.196 11.2" fill="#89553B"/><path d="M121.31 54.958c0 6.186 5.012 11.2 11.195 11.2 6.183 0 11.195-5.014 11.195-11.2 0-6.187-5.012-11.202-11.195-11.202-6.183 0-11.196 5.015-11.196 11.202" fill="#89553B"/><path d="M141.543 52.915c0 6.187 5.012 11.202 11.195 11.202 6.183 0 11.195-5.015 11.195-11.202 0-6.186-5.012-11.2-11.195-11.2-6.183 0-11.195 5.014-11.195 11.2" fill="#89553B"/><path d="M123.915 60.024c0 6.186-5.013 11.2-11.196 11.2-6.184 0-11.196-5.014-11.196-11.2 0-6.187 5.012-11.202 11.195-11.202 6.182 0 11.195 5.015 11.195 11.202" fill="#89553B"/><path d="M117.01 49.476c0 5.104-4.134 9.24-9.235 9.24-5.102 0-9.236-4.136-9.236-9.24 0-5.105 4.133-9.24 9.235-9.24 5.1 0 9.236 4.135 9.236 9.24" fill="#89553B"/><path d="M131.192 36.734c0 5.104-4.135 9.24-9.237 9.24-5.1 0-9.236-4.136-9.236-9.24s4.134-9.24 9.235-9.24c5.102 0 9.237 4.136 9.237 9.24" fill="#89553B"/><path d="M124.708 68.262c0 4.446-3.79 8.05-8.467 8.05-4.675 0-8.465-3.604-8.465-8.05 0-4.447 3.79-8.05 8.466-8.05 4.677 0 8.468 3.603 8.468 8.05" fill="#89553B"/><path d="M131.192 26.42c0 5.103-4.135 9.24-9.237 9.24-5.1 0-9.236-4.137-9.236-9.24 0-5.105 4.134-9.242 9.235-9.242 5.102 0 9.237 4.137 9.237 9.24" fill="#89553B"/><path d="M158.767 20.32c0 5.225-4.23 9.46-9.452 9.46-5.222 0-9.454-4.235-9.454-9.46 0-5.223 4.233-9.458 9.455-9.458 5.22 0 9.452 4.235 9.452 9.46" fill="#89553B"/><path d="M123.915 37.62c0 6.187-5.013 11.202-11.196 11.202-6.184 0-11.196-5.015-11.196-11.2 0-6.188 5.012-11.203 11.195-11.203 6.182 0 11.195 5.014 11.195 11.2" fill="#89553B"/><path d="M146.305 24.18c0 6.185-5.012 11.2-11.195 11.2-6.183 0-11.195-5.015-11.195-11.2 0-6.187 5.012-11.202 11.195-11.202 6.183 0 11.195 5.015 11.195 11.2" fill="#89553B"/><path d="M156.335 36.734c0 6.186-5.013 11.202-11.196 11.202-6.184 0-11.196-5.016-11.196-11.202s5.012-11.2 11.195-11.2c6.182 0 11.195 5.014 11.195 11.2" fill="#89553B"/><path d="M146.305 40.235c0 6.186-5.012 11.2-11.195 11.2-6.183 0-11.195-5.014-11.195-11.2 0-6.187 5.012-11.202 11.195-11.202 6.183 0 11.195 5.015 11.195 11.202" fill="#89553B"/><path d="M161.286 44.902c0 6.186-5.012 11.2-11.195 11.2-6.182 0-11.194-5.014-11.194-11.2 0-6.186 5.012-11.202 11.195-11.202 6.184 0 11.196 5.016 11.196 11.202" fill="#89553B"/><path d="M133.944 47.936c0 6.186-5.012 11.2-11.195 11.2-6.185 0-11.197-5.014-11.197-11.2 0-6.187 5.012-11.202 11.196-11.202 6.182 0 11.194 5.015 11.194 11.202" fill="#89553B"/><path d="M112.72 52.915s-1.587-15.125 11.988-15.125-6.023-8.01-6.023-8.01l-10.91 6.954 4.944 16.18" fill="#89553B"/><path d="M114.12 67.344c0-6.186 5.01-11.2 11.194-11.2h44.65c6.182 0 11.194 5.014 11.194 11.2v66.602c0 6.187-5.012 11.2-11.195 11.2h-44.65c-6.182 0-11.194-5.013-11.194-11.2V67.344" fill="#FBCBA8"/><path d="M168.062 72.607v14.95c0 2.477-2.006 4.484-4.48 4.484-2.474 0-4.48-2.006-4.48-4.482v-14.95h8.96" fill="#EEA97B"/><path d="M168.157 98.145v2.772c0 1.264-1.024 2.29-2.287 2.29-1.264 0-2.288-1.026-2.288-2.29v-2.772h4.575" fill="#fff"/><path d="M163.582 98.145v2.772c0 1.264-1.024 2.29-2.287 2.29s-2.287-1.026-2.287-2.29v-2.772h4.574" fill="#fff"/><path d="M145.652 72.607c0 1.547 1.253 2.8 2.8 2.8 1.544 0 2.798-1.253 2.798-2.8s-1.254-2.8-2.8-2.8c-1.545 0-2.798 1.253-2.798 2.8" fill="#231F1F"/><path d="M171.4 72.607c0 1.547 1.254 2.8 2.8 2.8 1.546 0 2.8-1.253 2.8-2.8s-1.254-2.8-2.8-2.8c-1.546 0-2.8 1.253-2.8 2.8" fill="#231F1F"/><path d="M107.814 71.712c0 3.057 2.476 5.534 5.53 5.534 3.056 0 5.533-2.477 5.533-5.534s-2.477-5.534-5.532-5.534-5.53 2.477-5.53 5.534" fill="#FBCBA8"/><path d="M110.565 76.798c0 .77.622 1.39 1.39 1.39.768 0 1.39-.62 1.39-1.39 0-.768-.622-1.39-1.39-1.39-.768 0-1.39.622-1.39 1.39" fill="#F1F2F2"/><path d="M144.583 66.7l5.95 1.53.278-1.083-5.948-1.53" fill="#414042"/><path d="M162.143 130.446c4 0 7.6-.94 10.105-2.435v14.057h-20.21V128.01c2.506 1.497 6.105 2.436 10.105 2.436" fill="#231F1F"/><path d="M130.673 107.623l32.98 28.563 19.795-21.334v55.214c0 19.644-15.916 35.57-35.55 35.57-19.632 0-35.55-15.926-35.55-35.57v-67.624l18.325 5.18" fill="#C0392B"/><path d="M114.12 87.794l49.534 48.392-47.413-21.562 2.637-4.2-12.262-7.562 7.504-15.068" fill="#E74C3C"/><path d="M163.654 136.186l17.504-31.364 8.023 7.168-6.856 4.874 2.38 1.68-21.05 17.642" fill="#E74C3C"/><path d="M167.397 56.103h13.76v11.24h-13.76v-11.24z" fill="#FBCBA8"/><path d="M177.035 65.616l-5.95 1.53.28 1.085 5.95-1.53-.28-1.084" fill="#414042"/><path d="M171.996 17.178h-.037c5.083.02 9.198 4.15 9.198 9.24 6.183 0 11.195 5.016 11.195 11.203 0 1.54-.31 3.007-.87 4.342 2.335 1.677 3.856 4.417 3.856 7.514 0 2.928-1.362 5.537-3.485 7.23.324 1.05.498 2.163.498 3.318 0 4.507-2.66 8.392-6.496 10.17-.622 2.402-2.38 4.38-4.7 5.39v29.238l8.024 7.168-5.732 4.075v1.593l1.255.886-1.255 1.052v50.47c0 13.984-8.064 26.082-19.794 31.894v.03c11.767-5.8 19.868-17.912 19.868-31.924v-50.47l1.255-1.052-1.255-.886v-1.593l5.733-4.075-8.023-7.168V75.576c2.32-1.012 4.07-2.988 4.69-5.392 3.838-1.777 6.505-5.653 6.505-10.16 0-1.158-.175-2.274-.5-3.323 2.122-1.693 3.486-4.297 3.486-7.224 0-3.096-1.526-5.83-3.86-7.506.563-1.337.874-2.806.874-4.35 0-6.186-5.012-11.2-11.195-11.2 0-5.105-4.135-9.242-9.236-9.242m-8.342-3.113v.033c1.81.88 3.35 2.235 4.453 3.903l.053-.023c-1.118-1.677-2.675-3.036-4.506-3.912" fill="#E9E8E8"/><path d="M191.855 56.706c-1.578 1.26-3.577 2.01-5.752 2.01-1.82 0-3.515-.525-4.945-1.433v3.655c2.918 1.27 4.945 4.072 4.945 7.324 0 .666-.085 1.313-.246 1.93 3.836-1.776 6.496-5.66 6.496-10.168 0-1.155-.174-2.27-.498-3.318m-12.617-1.048c-.145.153-.294.3-.448.445h.876c-.147-.143-.29-.292-.428-.445" fill="#7F4F38"/><path d="M191.482 41.962c-1.556 3.698-5.037 6.385-9.188 6.803-.195 2.665-1.322 5.07-3.056 6.893.138.153.28.302.428.445h1.492v1.18c1.43.908 3.126 1.434 4.945 1.434 2.175 0 4.174-.752 5.752-2.01 2.123-1.694 3.484-4.303 3.484-7.23 0-3.098-1.522-5.838-3.858-7.515" fill="#7F4F38"/><path d="M168.714 35.088c.292.564.538 1.157.732 1.772.18-.028.363-.05.548-.07.03-.44.09-.872.17-1.297-.498-.096-.983-.232-1.45-.405" fill="#7F4F38"/><path d="M181.158 60.938v14.647c2.32-1.01 4.077-2.99 4.7-5.392.16-.618.245-1.265.245-1.93 0-3.253-2.027-6.054-4.945-7.325" fill="#7F4F38"/><path d="M171.96 17.178c-1.35.005-2.625.307-3.778.832-.008-.01-.015-.022-.022-.033l-.053.024c1.173 1.77 1.856 3.895 1.856 6.18 0 3.147-1.298 5.992-3.387 8.027.857.835 1.582 1.808 2.138 2.88.467.174.952.31 1.45.406.994-5.17 5.538-9.074 10.994-9.074 0-5.092-4.115-9.22-9.2-9.242" fill="#7F4F38"/><path d="M181.158 26.42c-5.456 0-10 3.904-10.993 9.073-.082.425-.14.858-.17 1.298.37-.037.75-.056 1.134-.056 6.182 0 11.194 5.015 11.194 11.202 0 .28-.01.555-.03.83 4.15-.42 7.632-3.106 9.188-6.804.56-1.335.87-2.802.87-4.34 0-6.188-5.01-11.203-11.194-11.203" fill="#7F4F38"/><path d="M163.654 14.098v15.658c.166.208.325.423.476.643.897.49 1.72 1.1 2.446 1.807 2.09-2.035 3.387-4.88 3.387-8.028 0-2.285-.683-4.41-1.856-6.18-1.104-1.667-2.643-3.022-4.453-3.902" fill="#7F4F38"/><path d="M163.654 29.756v.397c.16.078.32.16.476.246-.15-.22-.31-.436-.476-.644" fill="#7F4F38"/><path d="M163.654 30.153v9.444c1.587-1.426 3.584-2.404 5.792-2.737-.194-.615-.44-1.208-.732-1.772-.556-1.073-1.28-2.046-2.138-2.88-.727-.71-1.55-1.318-2.446-1.81-.156-.084-.316-.167-.476-.245" fill="#7F4F38"/><path d="M171.13 36.734c-.385 0-.764.02-1.136.057-.185.02-.367.042-.548.07-2.208.333-4.205 1.31-5.792 2.737v2.242c5.386.81 9.516 5.46 9.516 11.075 0 1.108-.16 2.178-.46 3.188h6.08c.154-.144.303-.292.448-.445 1.734-1.822 2.86-4.228 3.056-6.893.02-.274.03-.55.03-.83 0-6.186-5.012-11.2-11.195-11.2" fill="#7F4F38"/><path d="M163.654 41.84v8.575c.183.804.28 1.64.28 2.5 0 .86-.097 1.696-.28 2.5v.728h3.743v-.04h5.313c.3-1.01.46-2.08.46-3.188 0-5.615-4.13-10.265-9.516-11.076" fill="#7F4F38"/><path d="M163.654 50.415v5c.183-.804.28-1.64.28-2.5 0-.86-.097-1.696-.28-2.5" fill="#7F4F38"/><path d="M174.2 75.407c-1.546 0-2.8-1.253-2.8-2.8s1.254-2.8 2.8-2.8c1.546 0 2.8 1.253 2.8 2.8s-1.254 2.8-2.8 2.8m-6.803-19.264h-3.743v16.464h4.408v14.95c0 2.453-1.967 4.444-4.408 4.483v6.105h4.503v2.772c0 1.264-1.024 2.29-2.287 2.29-1.067 0-1.963-.732-2.216-1.72V130.4c1.22-.073 2.39-.233 3.49-.47l14.014-25.108V67.344h-6.343l-3.45.887-.228-.886h-3.74v-11.2" fill="#E5B99A"/><path d="M168.062 72.607h-4.408V92.04c2.44-.04 4.408-2.03 4.408-4.482v-14.95" fill="#D99B72"/><path d="M168.157 98.145h-4.503v3.342c.253.988 1.15 1.72 2.216 1.72 1.263 0 2.287-1.026 2.287-2.29v-2.772" fill="#E9E8E8"/><path d="M174.2 69.806c-1.546 0-2.8 1.254-2.8 2.8 0 1.548 1.254 2.8 2.8 2.8 1.546 0 2.8-1.252 2.8-2.8 0-1.546-1.254-2.8-2.8-2.8" fill="#231F1F"/><path d="M167.145 129.93c-1.1.237-2.272.397-3.49.47v5.786l3.49-6.256" fill="#231F1F"/><path d="M183.448 119.596l-19.794 16.59v65.774c11.73-5.812 19.794-17.91 19.794-31.894v-50.47m0-3.53l-1.124.798 1.124.794v-1.593" fill="#B0362A"/><path d="M181.158 104.822l-17.504 31.364 21.05-17.642-2.38-1.68 6.857-4.874-8.022-7.168" fill="#D34739"/><path d="M181.158 56.103h-13.76v11.24h3.74l-.052-.196 5.95-1.53.278 1.084-2.5.644h6.344v-11.24" fill="#E5B99A"/><path d="M177.035 65.616l-5.95 1.53.052.198.228.887 3.45-.886 2.5-.643-.28-1.084" fill="#3E3D3F"/><path d="M106.363 65.83c0-2.18 1.764-3.944 3.94-3.944s3.94 1.765 3.94 3.943c0 2.175-1.764 3.94-3.94 3.94s-3.94-1.765-3.94-3.94" fill="#89553B"/></g></g></svg>