<?xml version="1.0" encoding="UTF-8" standalone="no"?>
<svg width="120px" height="122px" viewBox="0 0 120 122" version="1.1" xmlns="http://www.w3.org/2000/svg" xmlns:xlink="http://www.w3.org/1999/xlink" xmlns:sketch="http://www.bohemiancoding.com/sketch/ns">
    <!-- Generator: Sketch 3.0.4 (8054) - http://www.bohemiancoding.com/sketch -->
    <title>aecinho1</title>
    <desc>Created with Sketch.</desc>
    <defs>
        <path id="path-1" d="M119.83278,60.0647482 C119.83278,93.2923058 93.0225271,120.229169 59.9506137,120.229169 C26.8782671,120.229169 0.0680144404,93.2923058 0.0680144404,60.0647482 C0.0680144404,26.8367554 26.8782671,-0.0996726619 59.9506137,-0.0996726619 C93.0225271,-0.0996726619 119.83278,26.8367554 119.83278,60.0647482"></path>
    </defs>
    <g id="Welcome" stroke="none" stroke-width="1" fill="none" fill-rule="evenodd" sketch:type="MSPage">
        <g id="Imported-Layers" sketch:type="MSLayerGroup" transform="translate(0.000000, 1.000000)">
            <path d="M119.83278,60.0647482 C119.83278,93.2923058 93.0225271,120.229169 59.9506137,120.229169 C26.8782671,120.229169 0.0680144404,93.2923058 0.0680144404,60.0647482 C0.0680144404,26.8367554 26.8782671,-0.0996726619 59.9506137,-0.0996726619 C93.0225271,-0.0996726619 119.83278,26.8367554 119.83278,60.0647482" id="Fill-1" fill="#EAEAEA" sketch:type="MSShapeGroup"></path>
            <g id="Group-45">
                <mask id="mask-2" sketch:name="Clip 3" fill="white">
                    <use xlink:href="#path-1"></use>
                </mask>
                <g id="Clip-3"></g>
                <path d="M79.2593502,36.2468993 C79.2593502,33.8434388 81.1988448,31.8943813 83.5914801,31.8943813 L89.2947292,31.8943813 C91.6869314,31.8943813 93.6268592,33.8434388 93.6268592,36.2468993 L93.6268592,58.444741 C93.6268592,60.8486367 91.6869314,62.797259 89.2947292,62.797259 L83.5914801,62.797259 C81.1988448,62.797259 79.2593502,60.8486367 79.2593502,58.444741 L79.2593502,36.2468993" id="Fill-2" fill="#414042" sketch:type="MSShapeGroup" mask="url(#mask-2)"></path>
                <path d="M51.2707581,22.4446295 C53.6629603,22.4446295 55.6033213,24.3936871 55.6033213,26.7967122 L55.6033213,26.868964 C55.6033213,29.2724245 53.6629603,31.2219173 51.2707581,31.2219173 L38.2743682,31.2219173 C35.8817329,31.2219173 33.9422383,29.2724245 33.9422383,26.868964 L33.9422383,26.7967122 C33.9422383,24.3936871 35.8817329,22.4446295 38.2743682,22.4446295 L51.2707581,22.4446295" id="Fill-4" fill="#414042" sketch:type="MSShapeGroup" mask="url(#mask-2)"></path>
                <path d="M50.4199278,22.4441942 L80.6304693,22.4441942 C87.8079422,22.4441942 93.6268592,28.2904964 93.6268592,35.5017482 L93.6268592,36.2468993 C93.6268592,43.4585863 87.8079422,49.3044532 80.6304693,49.3044532 L50.4199278,49.3044532" id="Fill-5" fill="#414042" sketch:type="MSShapeGroup" mask="url(#mask-2)"></path>
                <path d="M86.5208664,38.6860504 C86.5208664,33.878259 82.6418773,29.9810144 77.8566065,29.9810144 L43.3018051,29.9810144 C38.5165343,29.9810144 34.6375451,33.878259 34.6375451,38.6860504 L34.6375451,90.4448885 C34.6375451,95.2526799 38.5165343,99.1499245 43.3018051,99.1499245 L77.8566065,99.1499245 C82.6418773,99.1499245 86.5208664,95.2526799 86.5208664,90.4448885 L86.5208664,38.6860504" id="Fill-6" fill="#FBCBA8" sketch:type="MSShapeGroup" mask="url(#mask-2)"></path>
                <path d="M62.1166787,57.5742374 C62.1166787,58.7764029 61.1467148,59.7504964 59.9506137,59.7504964 C58.7540794,59.7504964 57.7845487,58.7764029 57.7845487,57.5742374 C57.7845487,56.3725072 58.7540794,55.3979784 59.9506137,55.3979784 C61.1467148,55.3979784 62.1166787,56.3725072 62.1166787,57.5742374" id="Fill-7" fill="#231F1F" sketch:type="MSShapeGroup" mask="url(#mask-2)"></path>
                <path d="M42.1888809,57.5746727 C42.1888809,58.7764029 41.218917,59.7504964 40.0228159,59.7504964 C38.8262816,59.7504964 37.8567509,58.7764029 37.8567509,57.5746727 C37.8567509,56.3725072 38.8262816,55.3979784 40.0228159,55.3979784 C41.218917,55.3979784 42.1888809,56.3725072 42.1888809,57.5746727" id="Fill-8" fill="#231F1F" sketch:type="MSShapeGroup" mask="url(#mask-2)"></path>
                <path d="M57.1763177,53.1089892 L62.7240433,53.1089892 L62.7240433,55.2852482 L57.1763177,55.2852482 L57.1763177,53.1089892 Z" id="Fill-9" fill="#414042" sketch:type="MSShapeGroup" mask="url(#mask-2)"></path>
                <path d="M37.2485199,53.1094245 L42.7966787,53.1094245 L42.7966787,55.2852482 L37.2485199,55.2852482 L37.2485199,53.1094245 Z" id="Fill-10" fill="#414042" sketch:type="MSShapeGroup" mask="url(#mask-2)"></path>
                <path d="M92.1712635,56.878705 C92.1712635,59.2543094 90.2547292,61.1798633 87.8906859,61.1798633 C85.5262094,61.1798633 83.6096751,59.2543094 83.6096751,56.878705 C83.6096751,54.503536 85.5262094,52.577982 87.8906859,52.577982 C90.2547292,52.577982 92.1712635,54.503536 92.1712635,56.878705" id="Fill-11" fill="#FBCBA8" sketch:type="MSShapeGroup" mask="url(#mask-2)"></path>
                <path d="M73.7714079,28.2056223 L73.7714079,39.9356583 C73.7714079,47.1469101 79.5903249,52.9932122 86.7677978,52.9932122 L90.4501083,52.9932122 L90.4501083,26.8328381 L73.8433213,26.8328381 C73.7965343,27.2841942 73.7714079,27.7416439 73.7714079,28.2056223" id="Fill-12" fill="#414042" sketch:type="MSShapeGroup" mask="url(#mask-2)"></path>
                <path d="M78.6194946,32.5093921 C78.6194946,34.9132878 76.68,36.8619101 74.2873646,36.8619101 L69.7594224,36.8619101 C67.3672202,36.8619101 65.4272924,34.9132878 65.4272924,32.5093921 L65.4272924,29.9340072 C65.4272924,27.5305468 67.3672202,25.5814892 69.7594224,25.5814892 L74.2873646,25.5814892 C76.68,25.5814892 78.6194946,27.5305468 78.6194946,29.9340072 L78.6194946,32.5093921" id="Fill-13" fill="#414042" sketch:type="MSShapeGroup" mask="url(#mask-2)"></path>
                <path d="M73.7714079,36.9089173 C73.7714079,39.3123777 71.8314801,41.2614353 69.439278,41.2614353 L64.9113357,41.2614353 C62.5187004,41.2614353 60.5792058,39.3123777 60.5792058,36.9089173 L60.5792058,34.3335324 C60.5792058,31.9296367 62.5187004,29.9810144 64.9113357,29.9810144 L69.439278,29.9810144 C71.8314801,29.9810144 73.7714079,31.9296367 73.7714079,34.3335324 L73.7714079,36.9089173" id="Fill-14" fill="#FBCBA8" sketch:type="MSShapeGroup" mask="url(#mask-2)"></path>
                <path d="M44.7725632,55.9629353 L44.7725632,66.2353129 C44.7725632,68.1591259 46.3256318,69.7186331 48.24,69.7186331 C50.1548014,69.7186331 51.7065704,68.1591259 51.7065704,66.2353129 L51.7065704,55.9629353 L44.7725632,55.9629353" id="Fill-15" fill="#EEA97B" sketch:type="MSShapeGroup" mask="url(#mask-2)"></path>
                <path d="M52.8836101,67.3064676 C52.8836101,68.2622806 52.112491,69.0370288 51.1611552,69.0370288 C50.2093863,69.0370288 49.4382671,68.2622806 49.4382671,67.3064676 C49.4382671,66.3502194 50.2093863,65.5754712 51.1611552,65.5754712 C52.112491,65.5754712 52.8836101,66.3502194 52.8836101,67.3064676" id="Fill-16" fill="#EEA97B" sketch:type="MSShapeGroup" mask="url(#mask-2)"></path>
                <path d="M47.4762455,67.3064676 C47.4762455,68.2622806 46.7046931,69.0370288 45.7533574,69.0370288 C44.8020217,69.0370288 44.0309025,68.2622806 44.0309025,67.3064676 C44.0309025,66.3502194 44.8020217,65.5754712 45.7533574,65.5754712 C46.7046931,65.5754712 47.4762455,66.3502194 47.4762455,67.3064676" id="Fill-17" fill="#EEA97B" sketch:type="MSShapeGroup" mask="url(#mask-2)"></path>
                <path d="M50.4199278,69.0370288 C50.4199278,70.2770612 49.4192058,71.2824928 48.1845487,71.2824928 C46.9503249,71.2824928 45.9496029,70.2770612 45.9496029,69.0370288 C45.9496029,67.7969964 46.9503249,66.7915647 48.1845487,66.7915647 C49.4192058,66.7915647 50.4199278,67.7969964 50.4199278,69.0370288" id="Fill-18" fill="#EEA97B" sketch:type="MSShapeGroup" mask="url(#mask-2)"></path>
                <path d="M44.4034657,78.4032122 L51.966065,78.4032122 C53.1625993,78.4032122 54.13213,77.4286835 54.13213,76.2269532 L42.2374007,76.2269532 C42.2374007,77.4286835 43.2069314,78.4032122 44.4034657,78.4032122" id="Fill-19" fill="#EEA97B" sketch:type="MSShapeGroup" mask="url(#mask-2)"></path>
                <path d="M34.6375451,85.1013022 C34.6375451,85.1013022 38.654296,96.248536 47.4762455,96.248536 C56.2981949,96.248536 71.2444765,87.6884388 82.1107581,78.4032122 L82.1107581,119.171942 L34.6375451,119.171942 L34.6375451,85.1013022" id="Fill-20" fill="#FFFFFF" sketch:type="MSShapeGroup" mask="url(#mask-2)"></path>
                <path d="M46.9394946,99.9251079 L46.0592058,103.160335 L48.1845487,106.984457 L50.2986282,104.910482 L48.8677256,99.7753813 L46.9394946,99.9251079" id="Fill-21" fill="#297CAA" sketch:type="MSShapeGroup" mask="url(#mask-2)"></path>
                <path d="M45.7533574,96.2124101 L46.7683755,100.528367 L49.0787004,100.528367 L52.1831047,96.2124101 L45.7533574,96.2124101" id="Fill-22" fill="#2980B9" sketch:type="MSShapeGroup" mask="url(#mask-2)"></path>
                <path d="M48.2395668,96.2272086 L50.499639,100.84523 L81.8010108,90.1071331 L77.9588448,82.6103561 C77.9588448,82.6103561 56.6434657,94.3195 48.2395668,96.2272086" id="Fill-23" fill="#E6E7E8" sketch:type="MSShapeGroup" mask="url(#mask-2)"></path>
                <path d="M48.1845487,96.2293849 L45.7533574,100.84523 L33.1212996,92.4035216 L36.1126354,88.1807086 L48.1845487,96.2293849" id="Fill-24" fill="#E6E7E8" sketch:type="MSShapeGroup" mask="url(#mask-2)"></path>
                <path d="M73.7090253,84.7866151 L48.1845487,106.984457 L32.8652708,90.4044101 L32.8652708,133.313709 C32.8652708,148.580165 45.1836823,160.95568 60.3777617,160.95568 C75.5718412,160.95568 87.8902527,148.580165 87.8902527,133.313709 L87.8902527,80.760536 L73.7090253,84.7866151" id="Fill-25" fill="#414042" sketch:type="MSShapeGroup" mask="url(#mask-2)"></path>
                <path d="M86.5208664,69.3765252 L48.1845487,106.984457 L84.8781227,90.2272626 L82.838556,86.9628741 L92.3272202,81.0869748 L86.5208664,69.3765252" id="Fill-26" fill="#58595B" sketch:type="MSShapeGroup" mask="url(#mask-2)"></path>
                <path d="M48.1845487,106.984457 L34.6375451,82.6099209 L28.4283032,88.1807086 L33.7351625,91.9682698 L31.8940072,93.2740252 L48.1845487,106.984457" id="Fill-27" fill="#58595B" sketch:type="MSShapeGroup" mask="url(#mask-2)"></path>
                <path id="Fill-28" fill="#BFC1C2" sketch:type="MSShapeGroup" mask="url(#mask-2)"></path>
                <path d="M47.4762455,22.4446295 L38.2743682,22.4446295 C35.8817329,22.4446295 33.9422383,24.3936871 33.9422383,26.7967122 L33.9422383,26.868964 C33.9422383,29.2724245 35.8817329,31.2219173 38.2743682,31.2219173 L38.8410108,31.2219173 C40.1441155,30.4341115 41.6703249,29.9810144 43.3018051,29.9810144 L47.4762455,29.9810144 L47.4762455,22.4446295" id="Fill-29" fill="#3E3D3F" sketch:type="MSShapeGroup" mask="url(#mask-2)"></path>
                <path d="M40.0228159,59.7504964 C38.8262816,59.7504964 37.8567509,58.7764029 37.8567509,57.5746727 C37.8567509,56.3725072 38.8262816,55.3979784 40.0228159,55.3979784 C41.218917,55.3979784 42.1888809,56.3725072 42.1888809,57.5746727 C42.1888809,58.7764029 41.218917,59.7504964 40.0228159,59.7504964 L40.0228159,59.7504964 Z M37.2485199,53.1094245 L42.7966787,53.1094245 L42.7966787,55.2852482 L37.2485199,55.2852482 L37.2485199,53.1094245 Z M47.4762455,29.9810144 L43.3018051,29.9810144 C41.6703249,29.9810144 40.1441155,30.4341115 38.8410108,31.2219173 L38.8605054,31.2219173 C36.3838267,32.7126547 34.7046931,35.402946 34.639278,38.4984568 L34.639278,38.5032446 C34.639278,38.5141259 34.6388448,38.5245719 34.6388448,38.5354532 L34.6388448,38.5389353 C34.6384116,38.5506871 34.6384116,38.5624388 34.6384116,38.5746259 L34.6384116,38.5750612 C34.6379783,38.5859424 34.6379783,38.5968237 34.6379783,38.607705 C34.6375451,38.6111871 34.6375451,38.6146691 34.6375451,38.6181511 L34.6375451,38.6420899 L34.6375451,38.6529712 L34.6375451,38.6860504 L34.6375451,82.6099209 L38.6880866,89.897777 L47.4762455,95.7567014 L47.4762455,78.4032122 L44.4034657,78.4032122 C43.2069314,78.4032122 42.2374007,77.4286835 42.2374007,76.2269532 L47.4762455,76.2269532 L47.4762455,71.1675863 C46.5890253,70.8698741 45.9496029,70.0285324 45.9496029,69.0370288 L45.9496029,69.0257122 C45.8854874,69.0335468 45.8200722,69.0370288 45.7533574,69.0370288 C44.8020217,69.0370288 44.0309025,68.2622806 44.0309025,67.3064676 C44.0309025,66.7162662 44.3241877,66.195705 44.7725632,65.8831942 L44.7725632,55.9629353 L47.4762455,55.9629353 L47.4762455,29.9810144 L47.4762455,29.9810144 Z" id="Fill-30" fill="#E5B99A" sketch:type="MSShapeGroup" mask="url(#mask-2)"></path>
                <path d="M40.0228159,55.3979784 C38.8262816,55.3979784 37.8567509,56.3725072 37.8567509,57.5746727 C37.8567509,58.7764029 38.8262816,59.7504964 40.0228159,59.7504964 C41.218917,59.7504964 42.1888809,58.7764029 42.1888809,57.5746727 C42.1888809,56.3725072 41.218917,55.3979784 40.0228159,55.3979784" id="Fill-31" fill="#231F1F" sketch:type="MSShapeGroup" mask="url(#mask-2)"></path>
                <path d="M37.2485199,53.1094245 L42.7966787,53.1094245 L42.7966787,55.2852482 L37.2485199,55.2852482 L37.2485199,53.1094245 Z" id="Fill-32" fill="#3E3D3F" sketch:type="MSShapeGroup" mask="url(#mask-2)"></path>
                <path d="M47.4762455,55.9629353 L44.7725632,55.9629353 L44.7725632,65.8831942 C45.0511191,65.6890719 45.3890253,65.5754712 45.7533574,65.5754712 C46.5734296,65.5754712 47.2592058,66.1508741 47.4333574,66.921705 C47.4476534,66.916482 47.4615162,66.9116942 47.4762455,66.9069065 L47.4762455,55.9629353" id="Fill-33" fill="#D99B72" sketch:type="MSShapeGroup" mask="url(#mask-2)"></path>
                <path d="M45.7533574,65.5754712 C45.3890253,65.5754712 45.0511191,65.6890719 44.7725632,65.8831942 C44.3241877,66.195705 44.0309025,66.7162662 44.0309025,67.3064676 C44.0309025,68.2622806 44.8020217,69.0370288 45.7533574,69.0370288 C45.8200722,69.0370288 45.8854874,69.0335468 45.9496029,69.0257122 C45.9543682,68.055536 46.57213,67.2302986 47.4333574,66.921705 C47.2592058,66.1508741 46.5734296,65.5754712 45.7533574,65.5754712" id="Fill-34" fill="#D99B72" sketch:type="MSShapeGroup" mask="url(#mask-2)"></path>
                <path d="M47.4762455,66.9069065 C47.4615162,66.9116942 47.4476534,66.916482 47.4333574,66.921705 C46.57213,67.2302986 45.9543682,68.055536 45.9496029,69.0257122 L45.9496029,69.0370288 C45.9496029,70.0285324 46.5890253,70.8698741 47.4762455,71.1675863 L47.4762455,66.9069065" id="Fill-35" fill="#D99B72" sketch:type="MSShapeGroup" mask="url(#mask-2)"></path>
                <path d="M47.4762455,76.2269532 L42.2374007,76.2269532 C42.2374007,77.4286835 43.2069314,78.4032122 44.4034657,78.4032122 L47.4762455,78.4032122 L47.4762455,76.2269532" id="Fill-36" fill="#D99B72" sketch:type="MSShapeGroup" mask="url(#mask-2)"></path>
                <path d="M46.5067148,99.4154281 L45.7533574,100.84523 L44.1933574,99.8028022 L47.4762455,105.709169 L46.0592058,103.160335 L46.7753069,100.528367 L46.7683755,100.528367 L46.5067148,99.4154281" id="Fill-37" fill="#E9E8E8" sketch:type="MSShapeGroup" mask="url(#mask-2)"></path>
                <path d="M47.4762455,100.528367 L46.7753069,100.528367 L46.0592058,103.160335 L47.4762455,105.709169 L47.4762455,100.528367" id="Fill-38" fill="#28739C" sketch:type="MSShapeGroup" mask="url(#mask-2)"></path>
                <path d="M47.4762455,97.5751835 L46.5067148,99.4154281 L46.7683755,100.528367 L47.4762455,100.528367 L47.4762455,97.5751835" id="Fill-39" fill="#2876A9" sketch:type="MSShapeGroup" mask="url(#mask-2)"></path>
                <path d="M38.6880866,89.897777 L44.1933574,99.8028022 L45.7533574,100.84523 L47.4762455,97.5751835 L47.4762455,95.7567014 L38.6880866,89.897777" id="Fill-40" fill="#D2D3D4" sketch:type="MSShapeGroup" mask="url(#mask-2)"></path>
                <path d="M32.8652708,92.5850216 L31.8940072,93.2740252 L32.8652708,92.5854568 L32.8652708,92.5850216 M28.4283032,88.1807086 L32.8652708,91.3471655 L28.4283032,88.1807086" id="Fill-41" fill="#BFC1C2" sketch:type="MSShapeGroup" mask="url(#mask-2)"></path>
                <path d="M32.8652708,91.3471655 L32.8652708,92.5854568 L33.7351625,91.9682698 L32.8652708,91.3471655" id="Fill-42" fill="#3E3D3F" sketch:type="MSShapeGroup" mask="url(#mask-2)"></path>
                <path d="M32.8652708,94.0914281 L32.8652708,113.737388 C37.4296029,116.067291 42.3305415,117.826144 47.4762455,118.921673 L47.4762455,106.388162 L32.8652708,94.0914281" id="Fill-43" fill="#3E3D3F" sketch:type="MSShapeGroup" mask="url(#mask-2)"></path>
                <path d="M34.6375451,82.6099209 L34.6375451,82.6099209 L28.4283032,88.1807086 L33.7351625,91.9682698 L32.8652708,92.5854568 L31.8940072,93.2740252 L47.4762455,106.388162 L47.4762455,105.709169 L34.6375451,82.6099209" id="Fill-44" fill="#535355" sketch:type="MSShapeGroup" mask="url(#mask-2)"></path>
            </g>
        </g>
    </g>
</svg>