<?xml version="1.0" encoding="UTF-8" standalone="no"?>
<svg width="292px" height="221px" viewBox="0 0 292 221" version="1.1" xmlns="http://www.w3.org/2000/svg" xmlns:xlink="http://www.w3.org/1999/xlink" xmlns:sketch="http://www.bohemiancoding.com/sketch/ns">
    <!-- Generator: Sketch 3.0.4 (8054) - http://www.bohemiancoding.com/sketch -->
    <title>aecio_sucesso</title>
    <desc>Created with Sketch.</desc>
    <defs></defs>
    <g id="Welcome" stroke="none" stroke-width="1" fill="none" fill-rule="evenodd" sketch:type="MSPage">
        <g id="Group-+-Group-3" sketch:type="MSLayerGroup" transform="translate(3.000000, 1.000000)">
            <g id="Group" sketch:type="MSShapeGroup">
                <g id="Imported-Layers" transform="translate(-0.271186, 0.294118)" stroke="#46A1DE" stroke-width="2">
                    <path d="M143.597945,202.197487 L142.805083,201.639867 L-0.191741622,101.077276 L143.597945,-0.0429361814 L144.391359,0.514683712 L287.387633,101.077276 L143.597945,202.197487" id="Fill-2"></path>
                    <path d="M143.597945,141.754904 C121.147095,141.754904 102.882053,123.507027 102.882053,101.077276 C102.882053,78.6475245 121.147095,60.3996474 143.597945,60.3996474 C166.048796,60.3996474 184.313838,78.6475245 184.313838,101.077276 C184.313838,123.507027 166.048796,141.754904 143.597945,141.754904 L143.597945,141.754904 Z" id="Fill-4"></path>
                </g>
                <ellipse id="Oval-1" fill="#46A1DE" cx="142.050847" cy="217.985294" rx="33.0508475" ry="1.98529412"></ellipse>
            </g>
            <g id="Group-3" transform="translate(102.000000, 27.000000)" sketch:type="MSShapeGroup">
                <path d="M65.4532827,17.4031866 C65.4532827,14.32653 67.9481245,11.831552 71.0233693,11.831552 L78.3569453,11.831552 C81.4327471,11.831552 83.9270319,14.32653 83.9270319,17.4031866 L83.9270319,45.8185235 C83.9270319,48.8957373 81.4327471,51.3901582 78.3569453,51.3901582 L71.0233693,51.3901582 C67.9481245,51.3901582 65.4532827,48.8957373 65.4532827,45.8185235 L65.4532827,17.4031866" id="Fill-67" fill="#414042"></path>
                <path d="M29.4677384,-0.265581253 C32.5429832,-0.265581253 35.037825,2.22995392 35.037825,5.30605343 L35.037825,5.39854256 C35.037825,8.47519923 32.5429832,10.9701772 29.4677384,10.9701772 L12.7574787,10.9701772 C9.6805629,10.9701772 7.18739215,8.47519923 7.18739215,5.39854256 L7.18739215,5.30605343 C7.18739215,2.22995392 9.6805629,-0.265581253 12.7574787,-0.265581253 L29.4677384,-0.265581253" id="Fill-68" fill="#414042"></path>
                <path d="M28.3732164,-0.265581253 L67.2167721,-0.265581253 C76.4452916,-0.265581253 83.9270319,7.21823845 83.9270319,16.4493228 L83.9270319,17.4031866 C83.9270319,26.6348281 76.4452916,34.1180907 67.2167721,34.1180907 L28.3732164,34.1180907" id="Fill-69" fill="#414042"></path>
                <path d="M74.7898619,20.5255307 C74.7898619,14.371103 69.8029633,9.38226136 63.6496887,9.38226136 L19.2204502,9.38226136 C13.0682896,9.38226136 8.08027703,14.371103 8.08027703,20.5255307 L8.08027703,86.7817388 C8.08027703,92.9361665 13.0682896,97.9250082 19.2204502,97.9250082 L63.6496887,97.9250082 C69.8029633,97.9250082 74.7898619,92.9361665 74.7898619,86.7817388 L74.7898619,20.5255307" id="Fill-70" fill="#FBCBA8"></path>
                <path d="M43.4118932,44.7041966 C43.4118932,46.2430821 42.1653078,47.4900139 40.6268499,47.4900139 C39.088949,47.4900139 37.8423636,46.2430821 37.8423636,44.7041966 C37.8423636,43.1658682 39.088949,41.9183792 40.6268499,41.9183792 C42.1653078,41.9183792 43.4118932,43.1658682 43.4118932,44.7041966" id="Fill-71" fill="#231F1F"></path>
                <path d="M17.7900519,44.7041966 C17.7900519,46.2430821 16.5434666,47.4900139 15.0050087,47.4900139 C13.4665507,47.4900139 12.2199654,46.2430821 12.2199654,44.7041966 C12.2199654,43.1658682 13.4665507,41.9183792 15.0050087,41.9183792 C16.5434666,41.9183792 17.7900519,43.1658682 17.7900519,44.7041966" id="Fill-72" fill="#231F1F"></path>
                <path d="M37.0597664,38.9888137 L44.1933763,38.9888137 L44.1933763,41.774631 L37.0597664,41.774631 L37.0597664,38.9888137 Z" id="Fill-73" fill="#414042"></path>
                <path d="M11.4373682,38.9888137 L18.5709781,38.9888137 L18.5709781,41.774631 L11.4373682,41.774631 L11.4373682,38.9888137 Z" id="Fill-74" fill="#414042"></path>
                <path d="M82.0549258,43.8138493 C82.0549258,46.8548475 79.5907195,49.3191816 76.5511232,49.3191816 C73.511527,49.3191816 71.0473207,46.8548475 71.0473207,43.8138493 C71.0473207,40.7734083 73.511527,38.3085171 76.5511232,38.3085171 C79.5907195,38.3085171 82.0549258,40.7734083 82.0549258,43.8138493" id="Fill-75" fill="#FBCBA8"></path>
                <path d="M58.3970971,7.10959157 L58.3970971,22.125147 C58.3970971,31.3562314 65.8788374,38.8400511 75.1073568,38.8400511 L79.8419304,38.8400511 L79.8419304,5.35229799 L58.4895605,5.35229799 C58.4299606,5.93007651 58.3970971,6.51565531 58.3970971,7.10959157" id="Fill-76" fill="#414042"></path>
                <path d="M64.631138,12.6188239 C64.631138,15.6960378 62.1374102,18.1904586 59.0610514,18.1904586 L53.2391969,18.1904586 C50.1628381,18.1904586 47.6691103,15.6960378 47.6691103,12.6188239 L47.6691103,9.3220877 C47.6691103,6.24543103 50.1628381,3.75045302 53.2391969,3.75045302 L59.0610514,3.75045302 C62.1374102,3.75045302 64.631138,6.24543103 64.631138,9.3220877 L64.631138,12.6188239" id="Fill-77" fill="#414042"></path>
                <path d="M58.3970971,18.2506323 C58.3970971,21.3272889 55.9039263,23.822267 52.8270105,23.822267 L47.005713,23.822267 C43.9293542,23.822267 41.4350694,21.3272889 41.4350694,18.2506323 L41.4350694,14.953896 C41.4350694,11.8766822 43.9293542,9.38226136 47.005713,9.38226136 L52.8270105,9.38226136 C55.9039263,9.38226136 58.3970971,11.8766822 58.3970971,14.953896 L58.3970971,18.2506323" id="Fill-78" fill="#FBCBA8"></path>
                <path d="M21.1126086,42.6415774 L21.1126086,55.7911924 C21.1126086,58.2538549 23.1089276,60.2501716 25.5709059,60.2501716 C28.0328841,60.2501716 30.0275321,58.2538549 30.0275321,55.7911924 L30.0275321,42.6415774 L21.1126086,42.6415774" id="Fill-79" fill="#EEA97B"></path>
                <path d="M31.5409247,57.1623717 C31.5409247,58.3859027 30.5488922,59.3776537 29.3262582,59.3776537 C28.1025102,59.3776537 27.1110348,58.3859027 27.1110348,57.1623717 C27.1110348,55.9382836 28.1025102,54.9465326 29.3262582,54.9465326 C30.5488922,54.9465326 31.5409247,55.9382836 31.5409247,57.1623717" id="Fill-80" fill="#EEA97B"></path>
                <path d="M24.5883426,57.1623717 C24.5883426,58.3859027 23.5963102,59.3776537 22.3731192,59.3776537 C21.1493712,59.3776537 20.1584528,58.3859027 20.1584528,57.1623717 C20.1584528,55.9382836 21.1493712,54.9465326 22.3731192,54.9465326 C23.5963102,54.9465326 24.5883426,55.9382836 24.5883426,57.1623717" id="Fill-81" fill="#EEA97B"></path>
                <path d="M28.3732164,59.3776537 C28.3732164,60.9655695 27.0859694,62.25206 25.4990518,62.25206 C23.9115771,62.25206 22.6260011,60.9655695 22.6260011,59.3776537 C22.6260011,57.7902949 23.9115771,56.5032473 25.4990518,56.5032473 C27.0859694,56.5032473 28.3732164,57.7902949 28.3732164,59.3776537" id="Fill-82" fill="#EEA97B"></path>
                <path d="M20.6369232,71.3672543 L30.3606233,71.3672543 C31.8990812,71.3672543 33.1456666,70.1203225 33.1456666,68.581437 L17.8518799,68.581437 C17.8518799,70.1203225 19.0984653,71.3672543 20.6369232,71.3672543" id="Fill-83" fill="#EEA97B"></path>
                <path d="M8.08027703,79.9408858 C8.08027703,79.9408858 13.2448613,94.2109565 24.5883426,94.2109565 C35.9307099,94.2109565 55.1486226,83.2532226 69.1195137,71.3672543 L69.1195137,123.555085 L8.08027703,123.555085 L8.08027703,79.9408858" id="Fill-84" fill="#FFFFFF"></path>
                <path d="M23.8976519,98.9173163 L22.7658103,103.058712 L25.4990518,107.953951 L28.217254,105.299067 L26.3768974,98.7256521 L23.8976519,98.9173163" id="Fill-85" fill="#297CAA"></path>
                <path d="M22.3731192,94.1647119 L23.6776334,99.6895449 L26.6487176,99.6895449 L30.6402417,94.1647119 L22.3731192,94.1647119" id="Fill-86" fill="#2980B9"></path>
                <path d="M25.5697919,94.1836555 L28.475149,100.09516 L68.7212525,86.34938 L63.7811428,76.7527964 C63.7811428,76.7527964 36.3746458,91.741608 25.5697919,94.1836555" id="Fill-87" fill="#E6E7E8"></path>
                <path d="M25.4990518,94.1864413 L22.3731192,100.09516 L6.13074673,89.2889744 L9.97744852,83.8833745 L25.4990518,94.1864413" id="Fill-88" fill="#E6E7E8"></path>
                <path d="M58.3168878,79.5386137 L25.4990518,107.953951 L5.80211162,86.7299226 L5.80211162,141.657883 C5.80211162,161.200392 21.6400958,177.042221 41.1766174,177.042221 C60.7120251,177.042221 76.5511232,161.200392 76.5511232,141.657883 L76.5511232,74.3848517 L58.3168878,79.5386137" id="Fill-89" fill="#414042"></path>
                <path d="M74.7898619,59.8127983 L25.4990518,107.953951 L72.678242,86.5031571 L70.0552883,82.3244311 L82.2560059,74.8027243 L74.7898619,59.8127983" id="Fill-90" fill="#58595B"></path>
                <path d="M25.4990518,107.953951 L8.08027703,76.7527964 L0.0972289556,83.8833745 L6.92058501,88.731811 L4.55329821,90.4033014 L25.4990518,107.953951" id="Fill-91" fill="#58595B"></path>
                <path d="M8.08027703,20.4982297 L8.08027703,20.5038013 L8.08027703,20.4982297 M8.08027703,20.4759432 L8.08027703,20.4815148 L8.08027703,20.4759432 M8.08083404,20.4285843 L8.08083404,20.4313701 L8.08083404,20.4285843 M8.08083404,20.4057406 L8.08083404,20.4079692 L8.08083404,20.4057406" id="Fill-92" fill="#E9E8E8"></path>
                <path d="M24.5883426,-0.265581253 L12.7574787,-0.265581253 C9.6805629,-0.265581253 7.18739215,2.22995392 7.18739215,5.30605343 L7.18739215,5.39854256 C7.18739215,8.47519923 9.6805629,10.9701772 12.7574787,10.9701772 L13.485489,10.9701772 C15.1609711,9.96226853 17.1227556,9.38226136 19.2204502,9.38226136 L24.5883426,9.38226136 L24.5883426,-0.265581253" id="Fill-93" fill="#3E3D3F"></path>
                <path d="M15.0050087,47.4900139 C13.4665507,47.4900139 12.2199654,46.2430821 12.2199654,44.7041966 C12.2199654,43.1658682 13.4665507,41.9183792 15.0050087,41.9183792 C16.5434666,41.9183792 17.7900519,43.1658682 17.7900519,44.7041966 C17.7900519,46.2430821 16.5434666,47.4900139 15.0050087,47.4900139 L15.0050087,47.4900139 Z M11.4373682,38.9888137 L18.5709781,38.9888137 L18.5709781,41.774631 L11.4373682,41.774631 L11.4373682,38.9888137 Z M24.5883426,9.38226136 L19.2204502,9.38226136 C17.1227556,9.38226136 15.1609711,9.96226853 13.485489,10.9701772 L13.5099974,10.9701772 C10.2932724,12.8979628 8.1231667,16.3924921 8.08083404,20.4057406 L8.08083404,20.4079692 L8.08083404,20.4285843 L8.08083404,20.4313701 C8.08083404,20.4458563 8.08083404,20.4608998 8.08027703,20.4759432 L8.08027703,20.4815148 L8.08027703,20.4982297 L8.08027703,20.5038013 L8.08027703,20.5255307 L8.08027703,76.7527964 L13.287751,86.0808272 L24.5883426,93.5819189 L24.5883426,71.3672543 L20.6369232,71.3672543 C19.0984653,71.3672543 17.8518799,70.1203225 17.8518799,68.581437 L24.5883426,68.581437 L24.5883426,62.1049688 C23.4475889,61.723869 22.6260011,60.6474292 22.6260011,59.3776537 L22.6260011,59.3637246 C22.5430068,59.3726392 22.4588985,59.3776537 22.3731192,59.3776537 C21.1493712,59.3776537 20.1584528,58.3859027 20.1584528,57.1623717 C20.1584528,56.406858 20.5355476,55.7404905 21.1126086,55.3404472 L21.1126086,42.6415774 L24.5883426,42.6415774 L24.5883426,9.38226136 L24.5883426,9.38226136 Z" id="Fill-94" fill="#E5B99A"></path>
                <path d="M15.0050087,41.9183792 C13.4665507,41.9183792 12.2199654,43.1658682 12.2199654,44.7041966 C12.2199654,46.2430821 13.4665507,47.4900139 15.0050087,47.4900139 C16.5434666,47.4900139 17.7900519,46.2430821 17.7900519,44.7041966 C17.7900519,43.1658682 16.5434666,41.9183792 15.0050087,41.9183792" id="Fill-95" fill="#231F1F"></path>
                <path d="M11.4373682,38.9888137 L18.5709781,38.9888137 L18.5709781,41.774631 L11.4373682,41.774631 L11.4373682,38.9888137 Z" id="Fill-96" fill="#3E3D3F"></path>
                <path d="M24.5883426,42.6415774 L21.1126086,42.6415774 L21.1126086,55.3404472 C21.4702081,55.0919523 21.9046749,54.9465326 22.3731192,54.9465326 C23.4269796,54.9465326 24.3092813,55.6831027 24.5331987,56.669282 C24.55158,56.6631532 24.5699613,56.6564673 24.5883426,56.6508956 L24.5883426,42.6415774" id="Fill-97" fill="#D99B72"></path>
                <path d="M22.3731192,54.9465326 C21.9046749,54.9465326 21.4702081,55.0919523 21.1126086,55.3404472 C20.5355476,55.7404905 20.1584528,56.406858 20.1584528,57.1623717 C20.1584528,58.3859027 21.1493712,59.3776537 22.3731192,59.3776537 C22.4588985,59.3776537 22.5430068,59.3726392 22.6260011,59.3637246 C22.6315712,58.1206929 23.4253085,57.0648681 24.5331987,56.669282 C24.3092813,55.6831027 23.4269796,54.9465326 22.3731192,54.9465326" id="Fill-98" fill="#D99B72"></path>
                <path d="M24.5883426,56.6508956 C24.5699613,56.6564673 24.55158,56.6631532 24.5331987,56.669282 C23.4253085,57.0648681 22.6315712,58.1206929 22.6260011,59.3637246 L22.6260011,59.3776537 C22.6260011,60.6474292 23.4475889,61.723869 24.5883426,62.1049688 L24.5883426,56.6508956" id="Fill-99" fill="#D99B72"></path>
                <path d="M24.5883426,68.581437 L17.8518799,68.581437 C17.8518799,70.1203225 19.0984653,71.3672543 20.6369232,71.3672543 L24.5883426,71.3672543 L24.5883426,68.581437" id="Fill-100" fill="#D99B72"></path>
                <path d="M23.3417572,98.2648779 L22.3731192,100.09516 L20.366217,98.7601962 L24.5883426,106.322576 L22.7658103,103.058712 L23.6865456,99.6895449 L23.6776334,99.6895449 L23.3417572,98.2648779" id="Fill-101" fill="#E9E8E8"></path>
                <path d="M24.5883426,99.6895449 L23.6865456,99.6895449 L22.7658103,103.058712 L24.5883426,106.322576 L24.5883426,99.6895449" id="Fill-102" fill="#28739C"></path>
                <path d="M24.5883426,95.9080764 L23.3417572,98.2648779 L23.6776334,99.6895449 L24.5883426,99.6895449 L24.5883426,95.9080764" id="Fill-103" fill="#2876A9"></path>
                <path d="M13.287751,86.0808272 L20.366217,98.7601962 L22.3731192,100.09516 L24.5883426,95.9080764 L24.5883426,93.5819189 L13.287751,86.0808272" id="Fill-104" fill="#D2D3D4"></path>
                <path d="M5.80211162,89.5213116 L4.55329821,90.4033014 L5.80211162,89.5213116" id="Fill-105" fill="#E9E8E8"></path>
                <path d="M5.80211162,87.9372959 L5.80211162,89.5213116 L6.92058501,88.731811 L5.80211162,87.9372959" id="Fill-106" fill="#3E3D3F"></path>
                <path d="M5.80879573,142.329265 L5.80879573,142.332608 L5.80879573,142.329265 M5.80656769,142.211146 L5.80656769,142.214489 L5.80656769,142.211146 M5.80545367,142.129801 L5.80545367,142.135929 L5.80545367,142.129801 M5.80489667,142.091913 L5.80489667,142.097485 L5.80489667,142.091913 M5.80433966,142.052912 L5.80433966,142.054583 L5.80433966,142.052912 M5.80378265,142.011125 C5.80378265,142.012796 5.80433966,142.016696 5.80433966,142.018368 C5.80433966,142.016139 5.80433966,142.013353 5.80378265,142.011125 M5.80378265,141.974909 L5.80378265,141.976023 L5.80378265,141.974909 M5.80322564,141.930336 L5.80322564,141.938136 L5.80322564,141.930336 M5.80322564,141.891892 L5.80322564,141.901921 L5.80322564,141.891892 M5.80266863,141.854562 L5.80266863,141.856233 L5.80266863,141.854562 M5.80266863,141.81166 L5.80266863,141.820575 L5.80266863,141.81166 M5.80266863,141.774887 L5.80266863,141.782688 L5.80266863,141.774887 M5.80211162,141.731986 L5.80211162,141.739229 L5.80211162,141.731986 M5.80211162,141.693542 L5.80211162,141.70357 L5.80211162,141.693542" id="Fill-107" fill="#E9E8E8"></path>
                <path d="M5.80211162,91.4496544 L5.80211162,141.657883 L5.80211162,141.693542 L5.80211162,141.70357 L5.80211162,141.731986 L5.80211162,141.739229 C5.80266863,141.750929 5.80266863,141.763744 5.80266863,141.774887 L5.80266863,141.782688 L5.80266863,141.81166 L5.80266863,141.820575 L5.80266863,141.854562 L5.80266863,141.856233 C5.80266863,141.869048 5.80322564,141.879634 5.80322564,141.891892 L5.80322564,141.901921 L5.80322564,141.930336 L5.80322564,141.938136 C5.80322564,141.950394 5.80378265,141.962094 5.80378265,141.974909 L5.80378265,141.976023 L5.80378265,142.011125 C5.80433966,142.013353 5.80433966,142.016139 5.80433966,142.018368 L5.80433966,142.052912 L5.80433966,142.054583 C5.80489667,142.066841 5.80489667,142.079656 5.80489667,142.091913 L5.80489667,142.097485 C5.80489667,142.108628 5.80545367,142.1181 5.80545367,142.129801 L5.80545367,142.135929 C5.80601068,142.160445 5.80601068,142.186074 5.80656769,142.211146 L5.80656769,142.214489 C5.8071247,142.252377 5.80768171,142.291378 5.80879573,142.329265 L5.80879573,142.332608 C5.80935274,142.358238 5.80990974,142.384424 5.81046675,142.410054 C6.08618604,155.637115 13.6202851,167.074566 24.5883426,172.911411 L24.5883426,107.190637 L5.80211162,91.4496544" id="Fill-108" fill="#3E3D3F"></path>
                <path d="M8.08027703,76.7527964 L8.08027703,76.7527964 L0.0972289556,83.8833745 L5.80211162,87.9367387 L5.80211162,87.9372959 L6.92058501,88.731811 L5.80211162,89.5213116 L4.55329821,90.4033014 L24.5883426,107.190637 L24.5883426,106.322576 L8.08027703,76.7527964" id="Fill-109" fill="#535355"></path>
            </g>
        </g>
    </g>
</svg>