<?xml version="1.0" encoding="UTF-8" standalone="no"?>
<svg width="121px" height="121px" viewBox="0 0 121 121" version="1.1" xmlns="http://www.w3.org/2000/svg" xmlns:xlink="http://www.w3.org/1999/xlink" xmlns:sketch="http://www.bohemiancoding.com/sketch/ns">
    <!-- Generator: Sketch 3.0.4 (8054) - http://www.bohemiancoding.com/sketch -->
    <title>dilminha1</title>
    <desc>Created with Sketch.</desc>
    <defs>
        <path id="path-1" d="M119.23554,59.5683453 C119.23554,92.521295 92.5217266,119.23554 59.5683453,119.23554 C26.614964,119.23554 -0.0984172662,92.521295 -0.0984172662,59.5683453 C-0.0984172662,26.6153957 26.614964,-0.0988489209 59.5683453,-0.0988489209 C92.5217266,-0.0988489209 119.23554,26.6153957 119.23554,59.5683453"></path>
    </defs>
    <g id="Welcome" stroke="none" stroke-width="1" fill="none" fill-rule="evenodd" sketch:type="MSPage">
        <g id="Imported-Layers-2" sketch:type="MSLayerGroup" transform="translate(1.000000, 1.000000)">
            <path d="M119.23554,59.5683453 C119.23554,92.521295 92.5217266,119.23554 59.5683453,119.23554 C26.614964,119.23554 -0.0984172662,92.521295 -0.0984172662,59.5683453 C-0.0984172662,26.6153957 26.614964,-0.0988489209 59.5683453,-0.0988489209 C92.5217266,-0.0988489209 119.23554,26.6153957 119.23554,59.5683453" id="Fill-1" fill="#EAEAEA" sketch:type="MSShapeGroup"></path>
            <g id="Group-69">
                <mask id="mask-2" sketch:name="Clip 3" fill="white">
                    <use xlink:href="#path-1"></use>
                </mask>
                <g id="Clip-3"></g>
                <path d="M76.7779856,49.4218705 C76.7779856,54.1899281 80.6430216,58.054964 85.4110791,58.054964 C90.1791367,58.054964 94.0441727,54.1899281 94.0441727,49.4218705 C94.0441727,44.6533813 90.1791367,40.788777 85.4110791,40.788777 C80.6430216,40.788777 76.7779856,44.6533813 76.7779856,49.4218705" id="Fill-2" fill="#89553B" sketch:type="MSShapeGroup" mask="url(#mask-2)"></path>
                <path d="M82.1015827,41.292518 C82.1015827,45.2261871 85.2902158,48.4148201 89.2238849,48.4148201 C93.157554,48.4148201 96.3461871,45.2261871 96.3461871,41.292518 C96.3461871,37.3584173 93.157554,34.1702158 89.2238849,34.1702158 C85.2902158,34.1702158 82.1015827,37.3584173 82.1015827,41.292518" id="Fill-4" fill="#89553B" sketch:type="MSShapeGroup" mask="url(#mask-2)"></path>
                <path d="M71.1664748,31.4723741 C71.1664748,35.4060432 74.3551079,38.5946763 78.288777,38.5946763 C82.2228777,38.5946763 85.4110791,35.4060432 85.4110791,31.4723741 C85.4110791,27.5382734 82.2228777,24.3496403 78.288777,24.3496403 C74.3551079,24.3496403 71.1664748,27.5382734 71.1664748,31.4723741" id="Fill-5" fill="#89553B" sketch:type="MSShapeGroup" mask="url(#mask-2)"></path>
                <path d="M76.1663309,55.7706475 C76.1663309,59.1979856 79.0894964,61.9756835 82.6951079,61.9756835 C86.3011511,61.9756835 89.2238849,59.1979856 89.2238849,55.7706475 C89.2238849,52.3441727 86.3011511,49.5656115 82.6951079,49.5656115 C79.0894964,49.5656115 76.1663309,52.3441727 76.1663309,55.7706475" id="Fill-6" fill="#89553B" sketch:type="MSShapeGroup" mask="url(#mask-2)"></path>
                <path d="M71.1664748,23.5225899 C71.1664748,27.456259 74.3551079,30.6448921 78.288777,30.6448921 C82.2228777,30.6448921 85.4110791,27.456259 85.4110791,23.5225899 C85.4110791,19.5884892 82.2228777,16.4002878 78.288777,16.4002878 C74.3551079,16.4002878 71.1664748,19.5884892 71.1664748,23.5225899" id="Fill-7" fill="#89553B" sketch:type="MSShapeGroup" mask="url(#mask-2)"></path>
                <path d="M55.8427338,20.2851799 C55.8427338,24.2188489 59.0313669,27.407482 62.965036,27.407482 C66.898705,27.407482 70.0873381,24.2188489 70.0873381,20.2851799 C70.0873381,16.3510791 66.898705,13.1628777 62.965036,13.1628777 C59.0313669,13.1628777 55.8427338,16.3510791 55.8427338,20.2851799" id="Fill-8" fill="#89553B" sketch:type="MSShapeGroup" mask="url(#mask-2)"></path>
                <path d="M76.7779856,32.1556835 C76.7779856,36.923741 80.6430216,40.788777 85.4110791,40.788777 C90.1791367,40.788777 94.0441727,36.923741 94.0441727,32.1556835 C94.0441727,27.3876259 90.1791367,23.5225899 85.4110791,23.5225899 C80.6430216,23.5225899 76.7779856,27.3876259 76.7779856,32.1556835" id="Fill-9" fill="#89553B" sketch:type="MSShapeGroup" mask="url(#mask-2)"></path>
                <path d="M59.5117986,21.7959712 C59.5117986,26.5635971 63.3768345,30.4290647 68.1448921,30.4290647 C72.9129496,30.4290647 76.7779856,26.5635971 76.7779856,21.7959712 C76.7779856,17.0279137 72.9129496,13.1628777 68.1448921,13.1628777 C63.3768345,13.1628777 59.5117986,17.0279137 59.5117986,21.7959712" id="Fill-10" fill="#89553B" sketch:type="MSShapeGroup" mask="url(#mask-2)"></path>
                <path d="M56.5260432,31.4723741 C56.5260432,36.2404317 60.3910791,40.105036 65.1591367,40.105036 C69.9271942,40.105036 73.7922302,36.2404317 73.7922302,31.4723741 C73.7922302,26.7038849 69.9271942,22.8392806 65.1591367,22.8392806 C60.3910791,22.8392806 56.5260432,26.7038849 56.5260432,31.4723741" id="Fill-11" fill="#89553B" sketch:type="MSShapeGroup" mask="url(#mask-2)"></path>
                <path d="M59.5117986,34.1702158 C59.5117986,38.9382734 63.3768345,42.8033094 68.1448921,42.8033094 C72.9129496,42.8033094 76.7779856,38.9382734 76.7779856,34.1702158 C76.7779856,29.4021583 72.9129496,25.5371223 68.1448921,25.5371223 C63.3768345,25.5371223 59.5117986,29.4021583 59.5117986,34.1702158" id="Fill-12" fill="#89553B" sketch:type="MSShapeGroup" mask="url(#mask-2)"></path>
                <path d="M69.0440288,40.105036 C69.0440288,44.8730935 72.9090647,48.7385612 77.6771223,48.7385612 C82.4451799,48.7385612 86.3102158,44.8730935 86.3102158,40.105036 C86.3102158,35.3374101 82.4451799,31.4723741 77.6771223,31.4723741 C72.9090647,31.4723741 69.0440288,35.3374101 69.0440288,40.105036" id="Fill-13" fill="#89553B" sketch:type="MSShapeGroup" mask="url(#mask-2)"></path>
                <path d="M61.9847482,43.9433094 C61.9847482,48.7113669 65.8497842,52.5764029 70.6178417,52.5764029 C75.3858993,52.5764029 79.2509353,48.7113669 79.2509353,43.9433094 C79.2509353,39.1752518 75.3858993,35.3102158 70.6178417,35.3102158 C65.8497842,35.3102158 61.9847482,39.1752518 61.9847482,43.9433094" id="Fill-14" fill="#89553B" sketch:type="MSShapeGroup" mask="url(#mask-2)"></path>
                <path d="M46.2293525,43.9433094 C46.2293525,48.7113669 50.0943885,52.5764029 54.862446,52.5764029 C59.6305036,52.5764029 63.4955396,48.7113669 63.4955396,43.9433094 C63.4955396,39.1752518 59.6305036,35.3102158 54.862446,35.3102158 C50.0943885,35.3102158 46.2293525,39.1752518 46.2293525,43.9433094" id="Fill-15" fill="#89553B" sketch:type="MSShapeGroup" mask="url(#mask-2)"></path>
                <path d="M39.2598561,45.517554 C39.2598561,50.2856115 43.1248921,54.1506475 47.8929496,54.1506475 C52.6610072,54.1506475 56.5260432,50.2856115 56.5260432,45.517554 C56.5260432,40.7494964 52.6610072,36.8844604 47.8929496,36.8844604 C43.1248921,36.8844604 39.2598561,40.7494964 39.2598561,45.517554" id="Fill-16" fill="#89553B" sketch:type="MSShapeGroup" mask="url(#mask-2)"></path>
                <path d="M54.862446,43.9433094 C54.862446,48.7113669 58.727482,52.5764029 63.4955396,52.5764029 C68.2635971,52.5764029 72.1286331,48.7113669 72.1286331,43.9433094 C72.1286331,39.1752518 68.2635971,35.3102158 63.4955396,35.3102158 C58.727482,35.3102158 54.862446,39.1752518 54.862446,43.9433094" id="Fill-17" fill="#89553B" sketch:type="MSShapeGroup" mask="url(#mask-2)"></path>
                <path d="M41.268777,49.4218705 C41.268777,54.1899281 37.4033094,58.054964 32.6352518,58.054964 C27.8676259,58.054964 24.0025899,54.1899281 24.0025899,49.4218705 C24.0025899,44.6538129 27.8676259,40.788777 32.6352518,40.788777 C37.4033094,40.788777 41.268777,44.6538129 41.268777,49.4218705" id="Fill-18" fill="#89553B" sketch:type="MSShapeGroup" mask="url(#mask-2)"></path>
                <path d="M35.9451799,41.292518 C35.9451799,45.2261871 32.7565468,48.4148201 28.8228777,48.4148201 C24.888777,48.4148201 21.7005755,45.2261871 21.7005755,41.292518 C21.7005755,37.3584173 24.888777,34.1702158 28.8228777,34.1702158 C32.7565468,34.1702158 35.9451799,37.3584173 35.9451799,41.292518" id="Fill-19" fill="#89553B" sketch:type="MSShapeGroup" mask="url(#mask-2)"></path>
                <path d="M46.8798561,31.4723741 C46.8798561,35.4060432 43.6916547,38.5946763 39.757554,38.5946763 C35.8238849,38.5946763 32.6352518,35.4060432 32.6352518,31.4723741 C32.6352518,27.5382734 35.8238849,24.3500719 39.757554,24.3500719 C43.6916547,24.3500719 46.8798561,27.5382734 46.8798561,31.4723741" id="Fill-20" fill="#89553B" sketch:type="MSShapeGroup" mask="url(#mask-2)"></path>
                <path d="M41.88,55.7710791 C41.88,59.1979856 38.9572662,61.9761151 35.3516547,61.9761151 C31.7456115,61.9761151 28.8228777,59.1979856 28.8228777,55.7710791 C28.8228777,52.343741 31.7456115,49.5660432 35.3516547,49.5660432 C38.9572662,49.5660432 41.88,52.343741 41.88,55.7710791" id="Fill-21" fill="#89553B" sketch:type="MSShapeGroup" mask="url(#mask-2)"></path>
                <path d="M46.8798561,23.5225899 C46.8798561,27.456259 43.6916547,30.6448921 39.757554,30.6448921 C35.8238849,30.6448921 32.6352518,27.456259 32.6352518,23.5225899 C32.6352518,19.5884892 35.8238849,16.4002878 39.757554,16.4002878 C43.6916547,16.4002878 46.8798561,19.5884892 46.8798561,23.5225899" id="Fill-22" fill="#89553B" sketch:type="MSShapeGroup" mask="url(#mask-2)"></path>
                <path d="M68.1448921,18.8227338 C68.1448921,22.848777 64.8815827,26.112518 60.8555396,26.112518 C56.8286331,26.112518 53.5653237,22.848777 53.5653237,18.8227338 C53.5653237,14.796259 56.8286331,11.532518 60.8555396,11.532518 C64.8815827,11.532518 68.1448921,14.796259 68.1448921,18.8227338" id="Fill-23" fill="#89553B" sketch:type="MSShapeGroup" mask="url(#mask-2)"></path>
                <path d="M41.268777,32.1556835 C41.268777,36.923741 37.4033094,40.788777 32.6352518,40.788777 C27.8676259,40.788777 24.0025899,36.923741 24.0025899,32.1556835 C24.0025899,27.3876259 27.8676259,23.5225899 32.6352518,23.5225899 C37.4033094,23.5225899 41.268777,27.3876259 41.268777,32.1556835" id="Fill-24" fill="#89553B" sketch:type="MSShapeGroup" mask="url(#mask-2)"></path>
                <path d="M58.5345324,21.7959712 C58.5345324,26.5640288 54.6694964,30.4290647 49.9018705,30.4290647 C45.1338129,30.4290647 41.268777,26.5640288 41.268777,21.7959712 C41.268777,17.0279137 45.1338129,13.1628777 49.9018705,13.1628777 C54.6694964,13.1628777 58.5345324,17.0279137 58.5345324,21.7959712" id="Fill-25" fill="#89553B" sketch:type="MSShapeGroup" mask="url(#mask-2)"></path>
                <path d="M66.2689209,31.4723741 C66.2689209,36.24 62.4034532,40.1054676 57.6358273,40.1054676 C52.8677698,40.1054676 49.0023022,36.24 49.0023022,31.4723741 C49.0023022,26.7043165 52.8677698,22.8392806 57.6358273,22.8392806 C62.4034532,22.8392806 66.2689209,26.7043165 66.2689209,31.4723741" id="Fill-26" fill="#89553B" sketch:type="MSShapeGroup" mask="url(#mask-2)"></path>
                <path d="M58.5345324,34.1702158 C58.5345324,38.9382734 54.6694964,42.8033094 49.9018705,42.8033094 C45.1338129,42.8033094 41.268777,38.9382734 41.268777,34.1702158 C41.268777,29.4021583 45.1338129,25.5371223 49.9018705,25.5371223 C54.6694964,25.5371223 58.5345324,29.4021583 58.5345324,34.1702158" id="Fill-27" fill="#89553B" sketch:type="MSShapeGroup" mask="url(#mask-2)"></path>
                <path d="M70.0873381,37.7676259 C70.0873381,42.5356835 66.2223022,46.4007194 61.4542446,46.4007194 C56.6861871,46.4007194 52.8211511,42.5356835 52.8211511,37.7676259 C52.8211511,32.9995683 56.6861871,29.1345324 61.4542446,29.1345324 C66.2223022,29.1345324 70.0873381,32.9995683 70.0873381,37.7676259" id="Fill-28" fill="#89553B" sketch:type="MSShapeGroup" mask="url(#mask-2)"></path>
                <path d="M49.0023022,40.1054676 C49.0023022,44.8730935 45.1372662,48.7385612 40.3696403,48.7385612 C35.6015827,48.7385612 31.7365468,44.8730935 31.7365468,40.1054676 C31.7365468,35.3374101 35.6015827,31.4723741 40.3696403,31.4723741 C45.1372662,31.4723741 49.0023022,35.3374101 49.0023022,40.1054676" id="Fill-29" fill="#89553B" sketch:type="MSShapeGroup" mask="url(#mask-2)"></path>
                <path d="M32.6352518,43.9433094 C32.6352518,43.9433094 31.4123741,32.2860432 41.88,32.2860432 C52.3480576,32.2860432 37.2358273,26.112518 37.2358273,26.112518 L28.8228777,31.4723741 L32.6352518,43.9433094" id="Fill-30" fill="#89553B" sketch:type="MSShapeGroup" mask="url(#mask-2)"></path>
                <path d="M33.7148201,55.0640288 C33.7148201,50.2959712 37.5798561,46.4309353 42.347482,46.4309353 L76.7779856,46.4309353 C81.5460432,46.4309353 85.4110791,50.2959712 85.4110791,55.0640288 L85.4110791,106.395108 C85.4110791,111.162734 81.5460432,115.028201 76.7779856,115.028201 L42.347482,115.028201 C37.5798561,115.028201 33.7148201,111.162734 33.7148201,106.395108 L33.7148201,55.0640288" id="Fill-31" fill="#FBCBA8" sketch:type="MSShapeGroup" mask="url(#mask-2)"></path>
                <path d="M75.312518,59.1198561 L75.312518,70.6433094 C75.312518,72.5507914 73.7654676,74.0974101 71.857554,74.0974101 C69.9496403,74.0974101 68.4034532,72.5507914 68.4034532,70.6433094 L68.4034532,59.1198561 L75.312518,59.1198561" id="Fill-32" fill="#EEA97B" sketch:type="MSShapeGroup" mask="url(#mask-2)"></path>
                <path d="M75.3858993,78.8028777 L75.3858993,80.9391367 C75.3858993,81.9129496 74.5955396,82.7028777 73.6221583,82.7028777 C72.647482,82.7028777 71.857554,81.9129496 71.857554,80.9391367 L71.857554,78.8028777 L75.3858993,78.8028777" id="Fill-33" fill="#FFFFFF" sketch:type="MSShapeGroup" mask="url(#mask-2)"></path>
                <path d="M71.857554,78.8028777 L71.857554,80.9391367 C71.857554,81.9129496 71.0676259,82.7028777 70.0938129,82.7028777 C69.12,82.7028777 68.3300719,81.9129496 68.3300719,80.9391367 L68.3300719,78.8028777 L71.857554,78.8028777" id="Fill-34" fill="#FFFFFF" sketch:type="MSShapeGroup" mask="url(#mask-2)"></path>
                <path d="M58.031223,59.1198561 C58.031223,60.3120863 58.9972662,61.2781295 60.1890647,61.2781295 C61.381295,61.2781295 62.3477698,60.3120863 62.3477698,59.1198561 C62.3477698,57.9280576 61.381295,56.9615827 60.1890647,56.9615827 C58.9972662,56.9615827 58.031223,57.9280576 58.031223,59.1198561" id="Fill-35" fill="#231F1F" sketch:type="MSShapeGroup" mask="url(#mask-2)"></path>
                <path d="M77.8873381,59.1198561 C77.8873381,60.3120863 78.8533813,61.2781295 80.0456115,61.2781295 C81.2374101,61.2781295 82.2034532,60.3120863 82.2034532,59.1198561 C82.2034532,57.9280576 81.2374101,56.9615827 80.0456115,56.9615827 C78.8533813,56.9615827 77.8873381,57.9280576 77.8873381,59.1198561" id="Fill-36" fill="#231F1F" sketch:type="MSShapeGroup" mask="url(#mask-2)"></path>
                <path d="M28.8530935,58.4300719 C28.8530935,60.7860432 30.7627338,62.6956835 33.1182734,62.6956835 C35.4742446,62.6956835 37.3838849,60.7860432 37.3838849,58.4300719 C37.3838849,56.0745324 35.4742446,54.1648921 33.1182734,54.1648921 C30.7627338,54.1648921 28.8530935,56.0745324 28.8530935,58.4300719" id="Fill-37" fill="#FBCBA8" sketch:type="MSShapeGroup" mask="url(#mask-2)"></path>
                <path d="M30.9742446,62.3503597 C30.9742446,62.9425899 31.4538129,63.4221583 32.0460432,63.4221583 C32.6382734,63.4221583 33.1182734,62.9425899 33.1182734,62.3503597 C33.1182734,61.7581295 32.6382734,61.2781295 32.0460432,61.2781295 C31.4538129,61.2781295 30.9742446,61.7581295 30.9742446,62.3503597" id="Fill-38" fill="#F1F2F2" sketch:type="MSShapeGroup" mask="url(#mask-2)"></path>
                <path d="M61.7943885,55.7482014 L62.0093525,54.9116547 L57.4221583,53.7323741 L57.2071942,54.5689209 L61.7943885,55.7482014" id="Fill-39" fill="#414042" sketch:type="MSShapeGroup" mask="url(#mask-2)"></path>
                <path d="M70.7477698,103.696835 C73.8328058,103.696835 76.6083453,102.973813 78.5404317,101.821295 L78.5404317,112.654101 L62.9559712,112.654101 L62.9559712,101.821295 C64.8880576,102.973813 67.6635971,103.696835 70.7477698,103.696835" id="Fill-40" fill="#231F1F" sketch:type="MSShapeGroup" mask="url(#mask-2)"></path>
                <path d="M46.4805755,86.1073381 L71.9128058,108.121727 L87.1769784,91.6791367 L87.1769784,134.233381 C87.1769784,149.373669 74.9028777,161.646906 59.7634532,161.646906 C44.6240288,161.646906 32.3499281,149.373669 32.3499281,134.233381 L32.3499281,82.1145324 L46.4805755,86.1073381" id="Fill-41" fill="#C0392B" sketch:type="MSShapeGroup" mask="url(#mask-2)"></path>
                <path d="M33.7148201,70.825036 L71.9128058,108.121727 L35.3516547,91.5030216 L37.3838849,88.2656115 L27.9289209,82.4382734 L33.7148201,70.825036" id="Fill-42" fill="#E74C3C" sketch:type="MSShapeGroup" mask="url(#mask-2)"></path>
                <path d="M71.9128058,108.121727 L85.4110791,83.9486331 L91.5979856,89.4729496 L86.3102158,93.2296403 L88.1447482,94.5246043 L71.9128058,108.121727" id="Fill-43" fill="#E74C3C" sketch:type="MSShapeGroup" mask="url(#mask-2)"></path>
                <path d="M74.7992806,46.4007194 L85.4110791,46.4007194 L85.4110791,55.0640288 L74.7992806,55.0640288 L74.7992806,46.4007194 Z" id="Fill-44" fill="#FBCBA8" sketch:type="MSShapeGroup" mask="url(#mask-2)"></path>
                <path d="M77.8592806,55.7477698 L82.4464748,54.5689209 L82.2315108,53.7328058 L77.6443165,54.9116547 L77.8592806,55.7477698" id="Fill-45" fill="#414042" sketch:type="MSShapeGroup" mask="url(#mask-2)"></path>
                <path d="M78.3457554,16.4002878 L78.3176978,16.4002878 C82.2384173,16.4153957 85.4110791,19.5979856 85.4110791,23.5225899 C90.1791367,23.5225899 94.0441727,27.3876259 94.0441727,32.1556835 C94.0441727,33.3418705 93.8046043,34.4728058 93.3720863,35.5018705 C95.1729496,36.7942446 96.3461871,38.9063309 96.3461871,41.292518 C96.3461871,43.5492086 95.2968345,45.5602878 93.66,46.8651799 C93.9094964,47.6728058 94.0441727,48.5317986 94.0441727,49.4218705 C94.0441727,52.8958273 91.992518,55.8902158 89.0348201,57.2598561 C88.5548201,59.1116547 87.2002878,60.636259 85.4110791,61.414964 L85.4110791,83.9486331 L91.5979856,89.4729496 L87.1769784,92.6141007 L87.1769784,93.841295 L88.1447482,94.5246043 L87.1769784,95.3352518 L87.1769784,112.477122 C87.1955396,112.467626 87.2153957,112.457266 87.2339568,112.447338 L87.2339568,95.3352518 L88.2017266,94.5246043 L87.2339568,93.841295 L87.2339568,92.6136691 L91.654964,89.4729496 L85.4680576,83.9486331 L85.4680576,61.4084892 C87.2568345,60.6284892 88.6070504,59.1056115 89.0857554,57.2529496 C92.0438849,55.8828777 94.1011511,52.896259 94.1011511,49.4218705 C94.1011511,48.5296403 93.9656115,47.6697842 93.7148201,46.861295 C95.3516547,45.5559712 96.4031655,43.5483453 96.4031655,41.292518 C96.4031655,38.9063309 95.2260432,36.8002878 93.4256115,35.5079137 C93.8602878,34.477554 94.1011511,33.3444604 94.1011511,32.1556835 C94.1011511,27.3876259 90.2361151,23.5225899 85.4680576,23.5225899 C85.4680576,19.5884892 82.2794245,16.4002878 78.3457554,16.4002878 M71.9128058,14.0011511 L71.9128058,14.0261871 C73.3092086,14.7043165 74.4958273,15.7489209 75.347482,17.0339568 C75.3604317,17.0279137 75.3738129,17.0218705 75.3871942,17.0158273 C74.5256115,15.7230216 73.3256115,14.6766906 71.9128058,14.0011511" id="Fill-46" fill="#BFC1C2" sketch:type="MSShapeGroup" mask="url(#mask-2)"></path>
                <path d="M93.66,46.8651799 C92.4427338,47.8351079 90.9008633,48.4148201 89.2238849,48.4148201 C87.8210072,48.4148201 86.5135252,48.0094964 85.4110791,47.3093525 L85.4110791,50.1267626 C87.661295,51.1061871 89.2238849,53.2648921 89.2238849,55.7706475 C89.2238849,56.2843165 89.1582734,56.7828777 89.0348201,57.2598561 C91.992518,55.8902158 94.0441727,52.8958273 94.0441727,49.4218705 C94.0441727,48.5317986 93.9094964,47.6728058 93.66,46.8651799 M83.9305036,46.057554 C83.818705,46.1753957 83.7034532,46.2893525 83.5851799,46.4007194 L84.2602878,46.4007194 C84.1471942,46.2897842 84.0366906,46.1753957 83.9305036,46.057554" id="Fill-47" fill="#7F4F38" sketch:type="MSShapeGroup" mask="url(#mask-2)"></path>
                <path d="M93.3720863,35.5018705 C92.172518,38.3516547 89.4876259,40.4223022 86.2873381,40.7447482 C86.1366906,42.7989928 85.2677698,44.6529496 83.9305036,46.057554 C84.0366906,46.1753957 84.1471942,46.2897842 84.2602878,46.4007194 L85.4110791,46.4007194 L85.4110791,47.3093525 C86.5135252,48.0094964 87.8210072,48.4148201 89.2238849,48.4148201 C90.9008633,48.4148201 92.4427338,47.8351079 93.66,46.8651799 C95.2968345,45.5602878 96.3461871,43.5492086 96.3461871,41.292518 C96.3461871,38.9063309 95.1729496,36.7942446 93.3720863,35.5018705" id="Fill-48" fill="#7F4F38" sketch:type="MSShapeGroup" mask="url(#mask-2)"></path>
                <path d="M75.814964,30.2033094 C76.0402878,30.6384173 76.2297842,31.0951079 76.3791367,31.5690647 C76.5194245,31.5479137 76.6597122,31.5302158 76.801295,31.5159712 C76.8258993,31.1771223 76.8707914,30.8430216 76.9338129,30.5158273 C76.548777,30.4420144 76.174964,30.3366906 75.814964,30.2033094" id="Fill-49" fill="#7F4F38" sketch:type="MSShapeGroup" mask="url(#mask-2)"></path>
                <path d="M85.4110791,50.1267626 L85.4110791,61.414964 C87.2002878,60.636259 88.5548201,59.1116547 89.0348201,57.2598561 C89.1582734,56.7828777 89.2238849,56.2843165 89.2238849,55.7706475 C89.2238849,53.2648921 87.661295,51.1061871 85.4110791,50.1267626" id="Fill-50" fill="#7F4F38" sketch:type="MSShapeGroup" mask="url(#mask-2)"></path>
                <path d="M78.3176978,16.4002878 C77.2774101,16.4041727 76.2936691,16.6368345 75.4044604,17.041295 C75.3988489,17.0326619 75.3928058,17.0244604 75.3871942,17.0158273 C75.3738129,17.0218705 75.3604317,17.0279137 75.347482,17.0339568 C76.2513669,18.3992806 76.7779856,20.0356835 76.7779856,21.7959712 C76.7779856,24.2218705 75.7769784,26.4146763 74.1656115,27.9828777 C74.8273381,28.6269065 75.3863309,29.376259 75.814964,30.2033094 C76.174964,30.3366906 76.548777,30.4420144 76.9338129,30.5158273 C77.6995683,26.5320863 81.203741,23.5225899 85.4110791,23.5225899 C85.4110791,19.5979856 82.2384173,16.4153957 78.3176978,16.4002878" id="Fill-51" fill="#7F4F38" sketch:type="MSShapeGroup" mask="url(#mask-2)"></path>
                <path d="M85.4110791,23.5225899 L85.4110791,23.5225899 C81.203741,23.5225899 77.6995683,26.5320863 76.9338129,30.5158273 C76.8707914,30.8430216 76.8258993,31.1771223 76.801295,31.5159712 C77.0892086,31.4870504 77.3818705,31.4723741 77.6771223,31.4723741 C82.4451799,31.4723741 86.3102158,35.3374101 86.3102158,40.105036 C86.3102158,40.3204317 86.302446,40.5336691 86.2873381,40.7447482 C89.4876259,40.4223022 92.172518,38.3516547 93.3720863,35.5018705 C93.8046043,34.4728058 94.0441727,33.3418705 94.0441727,32.1556835 C94.0441727,27.3876259 90.1791367,23.5225899 85.4110791,23.5225899" id="Fill-52" fill="#7F4F38" sketch:type="MSShapeGroup" mask="url(#mask-2)"></path>
                <path d="M71.9128058,14.0261871 L71.9128058,26.0939568 C72.0410072,26.2545324 72.1635971,26.4198561 72.2801439,26.5899281 C72.9716547,26.9680576 73.6057554,27.4372662 74.1656115,27.9828777 C75.7769784,26.4146763 76.7779856,24.2218705 76.7779856,21.7959712 C76.7779856,20.0356835 76.2513669,18.3992806 75.347482,17.0339568 C74.4958273,15.7489209 73.3092086,14.7043165 71.9128058,14.0261871" id="Fill-53" fill="#7F4F38" sketch:type="MSShapeGroup" mask="url(#mask-2)"></path>
                <path id="Fill-54" fill="#7F4F38" sketch:type="MSShapeGroup" mask="url(#mask-2)" d="M71.9128058,26.0939568 L71.9128058,26.4004317 C72.0366906,26.4604317 72.1592806,26.5238849 72.2801439,26.5899281 C72.1635971,26.4198561 72.0410072,26.2545324 71.9128058,26.0939568"></path>
                <path d="M71.9128058,26.4004317 L71.9128058,33.6789928 C73.1369784,32.58 74.6766906,31.8258993 76.3791367,31.5690647 C76.2297842,31.0951079 76.0402878,30.6384173 75.814964,30.2033094 C75.3863309,29.376259 74.8273381,28.6269065 74.1656115,27.9828777 C73.6057554,27.4372662 72.9716547,26.9680576 72.2801439,26.5899281 C72.1592806,26.5238849 72.0366906,26.4604317 71.9128058,26.4004317" id="Fill-55" fill="#7F4F38" sketch:type="MSShapeGroup" mask="url(#mask-2)"></path>
                <path d="M77.6771223,31.4723741 C77.3818705,31.4723741 77.0892086,31.4870504 76.801295,31.5159712 C76.6597122,31.5302158 76.5194245,31.5479137 76.3791367,31.5690647 C74.6766906,31.8258993 73.1369784,32.58 71.9128058,33.6789928 L71.9128058,35.4069065 C76.0666187,36.0315108 79.2509353,39.6155396 79.2509353,43.9433094 C79.2509353,44.7966906 79.1270504,45.6215827 78.8961151,46.4007194 L83.5851799,46.4007194 C83.7034532,46.2893525 83.818705,46.1753957 83.9305036,46.057554 C85.2677698,44.6529496 86.1366906,42.7989928 86.2873381,40.7447482 C86.302446,40.5336691 86.3102158,40.3204317 86.3102158,40.105036 C86.3102158,35.3374101 82.4451799,31.4723741 77.6771223,31.4723741" id="Fill-56" fill="#7F4F38" sketch:type="MSShapeGroup" mask="url(#mask-2)"></path>
                <path d="M71.9128058,35.4069065 L71.9128058,42.0168345 C72.0539568,42.636259 72.1286331,43.2811511 72.1286331,43.9433094 C72.1286331,44.6054676 72.0539568,45.2503597 71.9128058,45.8702158 L71.9128058,46.4309353 L74.7992806,46.4309353 L74.7992806,46.4007194 L78.8961151,46.4007194 C79.1270504,45.6215827 79.2509353,44.7966906 79.2509353,43.9433094 C79.2509353,39.6155396 76.0666187,36.0315108 71.9128058,35.4069065" id="Fill-57" fill="#7F4F38" sketch:type="MSShapeGroup" mask="url(#mask-2)"></path>
                <path id="Fill-58" fill="#7F4F38" sketch:type="MSShapeGroup" mask="url(#mask-2)" d="M71.9128058,42.0168345 L71.9128058,45.8702158 C72.0539568,45.2503597 72.1286331,44.6054676 72.1286331,43.9433094 C72.1286331,43.2811511 72.0539568,42.636259 71.9128058,42.0168345"></path>
                <path d="M80.0456115,61.2781295 C78.8533813,61.2781295 77.8873381,60.3120863 77.8873381,59.1198561 C77.8873381,57.9280576 78.8533813,56.9615827 80.0456115,56.9615827 C81.2374101,56.9615827 82.2034532,57.9280576 82.2034532,59.1198561 C82.2034532,60.3120863 81.2374101,61.2781295 80.0456115,61.2781295 M74.7992806,46.4309353 L71.9128058,46.4309353 L71.9128058,59.1198561 L75.312518,59.1198561 L75.312518,70.6433094 C75.312518,72.5326619 73.7952518,74.0676259 71.9128058,74.0969784 L71.9128058,78.8028777 L75.3858993,78.8028777 L75.3858993,80.9391367 C75.3858993,81.9129496 74.5955396,82.7028777 73.6221583,82.7028777 C72.7989928,82.7028777 72.1079137,82.14 71.9128058,81.3781295 L71.9128058,103.662302 C72.852518,103.605755 73.7559712,103.481871 74.6054676,103.300144 L85.4110791,83.9486331 L85.4110791,55.0640288 L80.5204317,55.0640288 L77.8592806,55.7477698 L77.6835971,55.0640288 L74.7992806,55.0640288 L74.7992806,46.4309353" id="Fill-59" fill="#E5B99A" sketch:type="MSShapeGroup" mask="url(#mask-2)"></path>
                <path d="M75.312518,59.1198561 L71.9128058,59.1198561 L71.9128058,74.0969784 C73.7952518,74.0676259 75.312518,72.5326619 75.312518,70.6433094 L75.312518,59.1198561" id="Fill-60" fill="#D99B72" sketch:type="MSShapeGroup" mask="url(#mask-2)"></path>
                <path d="M75.3858993,78.8028777 L71.9128058,78.8028777 L71.9128058,81.3781295 C72.1079137,82.14 72.7989928,82.7028777 73.6221583,82.7028777 C74.5955396,82.7028777 75.3858993,81.9129496 75.3858993,80.9391367 L75.3858993,78.8028777" id="Fill-61" fill="#E9E8E8" sketch:type="MSShapeGroup" mask="url(#mask-2)"></path>
                <path d="M80.0456115,56.9615827 C78.8533813,56.9615827 77.8873381,57.9280576 77.8873381,59.1198561 C77.8873381,60.3120863 78.8533813,61.2781295 80.0456115,61.2781295 C81.2374101,61.2781295 82.2034532,60.3120863 82.2034532,59.1198561 C82.2034532,57.9280576 81.2374101,56.9615827 80.0456115,56.9615827" id="Fill-62" fill="#231F1F" sketch:type="MSShapeGroup" mask="url(#mask-2)"></path>
                <path d="M74.6054676,103.300144 C73.7559712,103.481871 72.852518,103.605755 71.9128058,103.662302 L71.9128058,108.121727 L74.6054676,103.300144" id="Fill-63" fill="#231F1F" sketch:type="MSShapeGroup" mask="url(#mask-2)"></path>
                <path d="M87.1769784,95.3352518 L71.9128058,108.121727 L71.9128058,117.956978 C77.3054676,116.82259 82.4283453,114.960432 87.1769784,112.477122 L87.1769784,95.3352518 M87.1769784,92.6141007 L86.3102158,93.2296403 L87.1769784,93.841295 L87.1769784,92.6141007" id="Fill-64" fill="#B0362A" sketch:type="MSShapeGroup" mask="url(#mask-2)"></path>
                <path d="M85.4110791,83.9486331 L85.4110791,83.9486331 L71.9128058,108.121727 L88.1447482,94.5246043 L86.3102158,93.2296403 L91.5979856,89.4729496 L85.4110791,83.9486331" id="Fill-65" fill="#D34739" sketch:type="MSShapeGroup" mask="url(#mask-2)"></path>
                <path d="M85.4110791,46.4007194 L74.7992806,46.4007194 L74.7992806,55.0640288 L77.6835971,55.0640288 L77.6443165,54.9116547 L82.2315108,53.7328058 L82.4464748,54.5689209 L80.5204317,55.0640288 L85.4110791,55.0640288 L85.4110791,46.4007194" id="Fill-66" fill="#E5B99A" sketch:type="MSShapeGroup" mask="url(#mask-2)"></path>
                <path d="M82.2315108,53.7328058 L77.6443165,54.9116547 L77.8592806,55.7477698 L82.4464748,54.5689209 L82.2315108,53.7328058" id="Fill-67" fill="#3E3D3F" sketch:type="MSShapeGroup" mask="url(#mask-2)"></path>
                <path d="M27.7342446,53.8959712 C27.7342446,52.2176978 29.0943885,50.857554 30.7726619,50.857554 C32.4505036,50.857554 33.8106475,52.2176978 33.8106475,53.8959712 C33.8106475,55.5738129 32.4505036,56.9339568 30.7726619,56.9339568 C29.0943885,56.9339568 27.7342446,55.5738129 27.7342446,53.8959712" id="Fill-68" fill="#89553B" sketch:type="MSShapeGroup" mask="url(#mask-2)"></path>
            </g>
        </g>
    </g>
</svg>