<?xml version="1.0" encoding="UTF-8" standalone="no"?>
<svg width="292px" height="221px" viewBox="0 0 292 221" version="1.1" xmlns="http://www.w3.org/2000/svg" xmlns:xlink="http://www.w3.org/1999/xlink" xmlns:sketch="http://www.bohemiancoding.com/sketch/ns">
    <!-- Generator: Sketch 3.0.4 (8054) - http://www.bohemiancoding.com/sketch -->
    <title>dilma_sucesso</title>
    <desc>Created with Sketch.</desc>
    <defs></defs>
    <g id="Welcome" stroke="none" stroke-width="1" fill="none" fill-rule="evenodd" sketch:type="MSPage">
        <g id="Group-+-Imported-Layers-4" sketch:type="MSLayerGroup" transform="translate(3.000000, 1.000000)">
            <g id="Group" sketch:type="MSShapeGroup">
                <g id="Imported-Layers" transform="translate(-0.271186, 0.294118)" stroke="#E74C3C" stroke-width="2">
                    <path d="M143.597945,202.197487 L142.805083,201.639867 L-0.191741622,101.077276 L143.597945,-0.0429361814 L144.391359,0.514683712 L287.387633,101.077276 L143.597945,202.197487" id="Fill-2"></path>
                    <path d="M143.597945,141.754904 C121.147095,141.754904 102.882053,123.507027 102.882053,101.077276 C102.882053,78.6475245 121.147095,60.3996474 143.597945,60.3996474 C166.048796,60.3996474 184.313838,78.6475245 184.313838,101.077276 C184.313838,123.507027 166.048796,141.754904 143.597945,141.754904 L143.597945,141.754904 Z" id="Fill-4"></path>
                </g>
                <ellipse id="Oval-1" fill="#E74C3C" cx="142.050847" cy="217.985294" rx="33.0508475" ry="1.98529412"></ellipse>
            </g>
            <g id="Imported-Layers-4" transform="translate(95.401613, 10.054405)" sketch:type="MSShapeGroup">
                <g id="Group">
                    <path d="M71.5607452,48.9696456 C71.5607452,55.1556093 76.5729082,60.1710285 82.7561058,60.1710285 C88.9393035,60.1710285 93.9514665,55.1556093 93.9514665,48.9696456 C93.9514665,42.7831219 88.9393035,37.7682627 82.7561058,37.7682627 C76.5729082,37.7682627 71.5607452,42.7831219 71.5607452,48.9696456" id="Fill-1" fill="#89553B"></path>
                    <path d="M78.4643643,38.4218634 C78.4643643,43.5257736 82.5993708,47.6630043 87.7005369,47.6630043 C92.8022627,47.6630043 96.9367094,43.5257736 96.9367094,38.4218634 C96.9367094,33.3173933 92.8022627,29.1807226 87.7005369,29.1807226 C82.5993708,29.1807226 78.4643643,33.3173933 78.4643643,38.4218634" id="Fill-2" fill="#89553B"></path>
                    <path d="M64.2837608,25.6802904 C64.2837608,30.7842005 68.4187672,34.9214313 73.5199333,34.9214313 C78.6216592,34.9214313 82.7561058,30.7842005 82.7561058,25.6802904 C82.7561058,20.5758202 78.6216592,16.4391495 73.5199333,16.4391495 C68.4187672,16.4391495 64.2837608,20.5758202 64.2837608,25.6802904" id="Fill-3" fill="#89553B"></path>
                    <path d="M70.7675539,57.2077027 C70.7675539,61.6540916 74.558303,65.2586966 79.2340454,65.2586966 C83.9103475,65.2586966 87.7005369,61.6540916 87.7005369,57.2077027 C87.7005369,52.7607537 83.9103475,49.1567087 79.2340454,49.1567087 C74.558303,49.1567087 70.7675539,52.7607537 70.7675539,57.2077027" id="Fill-4" fill="#89553B"></path>
                    <path d="M64.2837608,15.365497 C64.2837608,20.4694071 68.4187672,24.6066379 73.5199333,24.6066379 C78.6216592,24.6066379 82.7561058,20.4694071 82.7561058,15.365497 C82.7561058,10.2610268 78.6216592,6.12435609 73.5199333,6.12435609 C68.4187672,6.12435609 64.2837608,10.2610268 64.2837608,15.365497" id="Fill-5" fill="#89553B"></path>
                    <path d="M44.4119957,11.1649784 C44.4119957,16.2688885 48.5470021,20.4061193 53.6481682,20.4061193 C58.749894,20.4061193 62.8843407,16.2688885 62.8843407,11.1649784 C62.8843407,6.06050821 58.749894,1.92383751 53.6481682,1.92383751 C48.5470021,1.92383751 44.4119957,6.06050821 44.4119957,11.1649784" id="Fill-6" fill="#89553B"></path>
                    <path d="M71.5607452,26.5668799 C71.5607452,32.7528436 76.5729082,37.7682627 82.7561058,37.7682627 C88.9393035,37.7682627 93.9514665,32.7528436 93.9514665,26.5668799 C93.9514665,20.3803561 88.9393035,15.365497 82.7561058,15.365497 C76.5729082,15.365497 71.5607452,20.3803561 71.5607452,26.5668799" id="Fill-7" fill="#89553B"></path>
                    <path d="M49.1700239,13.1252204 C49.1700239,19.3111841 54.1821869,24.3266033 60.3653846,24.3266033 C66.5485822,24.3266033 71.5607452,19.3111841 71.5607452,13.1252204 C71.5607452,6.93869663 66.5485822,1.92383751 60.3653846,1.92383751 C54.1821869,1.92383751 49.1700239,6.93869663 49.1700239,13.1252204" id="Fill-8" fill="#89553B"></path>
                    <path d="M45.2981084,25.6802904 C45.2981084,31.8662541 50.3102714,36.8816733 56.4934691,36.8816733 C62.6766668,36.8816733 67.6888297,31.8662541 67.6888297,25.6802904 C67.6888297,19.4937666 62.6766668,14.4789075 56.4934691,14.4789075 C50.3102714,14.4789075 45.2981084,19.4937666 45.2981084,25.6802904" id="Fill-9" fill="#89553B"></path>
                    <path d="M49.1700239,29.1807226 C49.1700239,35.3666863 54.1821869,40.3821054 60.3653846,40.3821054 C66.5485822,40.3821054 71.5607452,35.3666863 71.5607452,29.1807226 C71.5607452,22.9941988 66.5485822,17.9793397 60.3653846,17.9793397 C54.1821869,17.9793397 49.1700239,22.9941988 49.1700239,29.1807226" id="Fill-10" fill="#89553B"></path>
                    <path d="M61.5313814,36.8816733 C61.5313814,43.067637 66.5435443,48.0830562 72.726742,48.0830562 C78.9099397,48.0830562 83.9221026,43.067637 83.9221026,36.8816733 C83.9221026,30.6951495 78.9099397,25.6802904 72.726742,25.6802904 C66.5435443,25.6802904 61.5313814,30.6951495 61.5313814,36.8816733" id="Fill-11" fill="#89553B"></path>
                    <path d="M52.376935,41.8612481 C52.376935,48.0477718 57.3890979,53.0626309 63.5722956,53.0626309 C69.7554933,53.0626309 74.7676563,48.0477718 74.7676563,41.8612481 C74.7676563,35.6747243 69.7554933,30.6598652 63.5722956,30.6598652 C57.3890979,30.6598652 52.376935,35.6747243 52.376935,41.8612481" id="Fill-12" fill="#89553B"></path>
                    <path d="M31.9454018,41.8612481 C31.9454018,48.0477718 36.9575648,53.0626309 43.1407625,53.0626309 C49.3239601,53.0626309 54.3361231,48.0477718 54.3361231,41.8612481 C54.3361231,35.6747243 49.3239601,30.6598652 43.1407625,30.6598652 C36.9575648,30.6598652 31.9454018,35.6747243 31.9454018,41.8612481" id="Fill-13" fill="#89553B"></path>
                    <path d="M22.9073872,43.9038202 C22.9073872,50.0897839 27.9195501,55.1052031 34.1027478,55.1052031 C40.2859455,55.1052031 45.2981084,50.0897839 45.2981084,43.9038202 C45.2981084,37.7172965 40.2859455,32.7024373 34.1027478,32.7024373 C27.9195501,32.7024373 22.9073872,37.7172965 22.9073872,43.9038202" id="Fill-14" fill="#89553B"></path>
                    <path d="M43.1407625,41.8612481 C43.1407625,48.0477718 48.1529254,53.0626309 54.3361231,53.0626309 C60.5193208,53.0626309 65.5314837,48.0477718 65.5314837,41.8612481 C65.5314837,35.6747243 60.5193208,30.6598652 54.3361231,30.6598652 C48.1529254,30.6598652 43.1407625,35.6747243 43.1407625,41.8612481" id="Fill-15" fill="#89553B"></path>
                    <path d="M25.5125476,48.9696456 C25.5125476,55.1556093 20.5003846,60.1710285 14.317187,60.1710285 C8.13398927,60.1710285 3.12182631,55.1556093 3.12182631,48.9696456 C3.12182631,42.7831219 8.13398927,37.7682627 14.317187,37.7682627 C20.5003846,37.7682627 25.5125476,42.7831219 25.5125476,48.9696456" id="Fill-16" fill="#89553B"></path>
                    <path d="M18.6089285,38.4218634 C18.6089285,43.5257736 14.473922,47.6630043 9.37275593,47.6630043 C4.27103008,47.6630043 0.1365834,43.5257736 0.1365834,38.4218634 C0.1365834,33.3173933 4.27103008,29.1807226 9.37275593,29.1807226 C14.473922,29.1807226 18.6089285,33.3173933 18.6089285,38.4218634" id="Fill-17" fill="#89553B"></path>
                    <path d="M32.789532,25.6802904 C32.789532,30.7842005 28.6545256,34.9214313 23.5533595,34.9214313 C18.4516336,34.9214313 14.317187,30.7842005 14.317187,25.6802904 C14.317187,20.5758202 18.4516336,16.4391495 23.5533595,16.4391495 C28.6545256,16.4391495 32.789532,20.5758202 32.789532,25.6802904" id="Fill-18" fill="#89553B"></path>
                    <path d="M26.3057389,57.2077027 C26.3057389,61.6540916 22.5149898,65.2586966 17.8392474,65.2586966 C13.1629453,65.2586966 9.37275593,61.6540916 9.37275593,57.2077027 C9.37275593,52.7607537 13.1629453,49.1567087 17.8392474,49.1567087 C22.5149898,49.1567087 26.3057389,52.7607537 26.3057389,57.2077027" id="Fill-19" fill="#89553B"></path>
                    <path d="M32.789532,15.365497 C32.789532,20.4694071 28.6545256,24.6066379 23.5533595,24.6066379 C18.4516336,24.6066379 14.317187,20.4694071 14.317187,15.365497 C14.317187,10.2610268 18.4516336,6.12435609 23.5533595,6.12435609 C28.6545256,6.12435609 32.789532,10.2610268 32.789532,15.365497" id="Fill-20" fill="#89553B"></path>
                    <path d="M60.3653846,9.26746413 C60.3653846,14.491229 56.1335382,18.7259118 50.9125818,18.7259118 C45.6905058,18.7259118 41.4586595,14.491229 41.4586595,9.26746413 C41.4586595,4.04313915 45.6905058,-0.191543647 50.9125818,-0.191543647 C56.1335382,-0.191543647 60.3653846,4.04313915 60.3653846,9.26746413" id="Fill-21" fill="#89553B"></path>
                    <path d="M25.5125476,26.5668799 C25.5125476,32.7528436 20.5003846,37.7682627 14.317187,37.7682627 C8.13398927,37.7682627 3.12182631,32.7528436 3.12182631,26.5668799 C3.12182631,20.3803561 8.13398927,15.365497 14.317187,15.365497 C20.5003846,15.365497 25.5125476,20.3803561 25.5125476,26.5668799" id="Fill-22" fill="#89553B"></path>
                    <path d="M47.9032689,13.1252204 C47.9032689,19.3111841 42.8911059,24.3266033 36.7079082,24.3266033 C30.5247105,24.3266033 25.5125476,19.3111841 25.5125476,13.1252204 C25.5125476,6.93869663 30.5247105,1.92383751 36.7079082,1.92383751 C42.8911059,1.92383751 47.9032689,6.93869663 47.9032689,13.1252204" id="Fill-23" fill="#89553B"></path>
                    <path d="M57.9326327,25.6802904 C57.9326327,31.8662541 52.9204697,36.8816733 46.7372721,36.8816733 C40.5540744,36.8816733 35.5419114,31.8662541 35.5419114,25.6802904 C35.5419114,19.4937666 40.5540744,14.4789075 46.7372721,14.4789075 C52.9204697,14.4789075 57.9326327,19.4937666 57.9326327,25.6802904" id="Fill-24" fill="#89553B"></path>
                    <path d="M47.9032689,29.1807226 C47.9032689,35.3666863 42.8911059,40.3821054 36.7079082,40.3821054 C30.5247105,40.3821054 25.5125476,35.3666863 25.5125476,29.1807226 C25.5125476,22.9941988 30.5247105,17.9793397 36.7079082,17.9793397 C42.8911059,17.9793397 47.9032689,22.9941988 47.9032689,29.1807226" id="Fill-25" fill="#89553B"></path>
                    <path d="M62.8843407,33.8477787 C62.8843407,40.0343025 57.8721777,45.0491616 51.6889801,45.0491616 C45.5057824,45.0491616 40.4936194,40.0343025 40.4936194,33.8477787 C40.4936194,27.661815 45.5057824,22.6463959 51.6889801,22.6463959 C57.8721777,22.6463959 62.8843407,27.661815 62.8843407,33.8477787" id="Fill-26" fill="#89553B"></path>
                    <path d="M35.5419114,36.8816733 C35.5419114,43.067637 30.5297485,48.0830562 24.3465508,48.0830562 C18.1633531,48.0830562 13.1511901,43.067637 13.1511901,36.8816733 C13.1511901,30.6951495 18.1633531,25.6802904 24.3465508,25.6802904 C30.5297485,25.6802904 35.5419114,30.6951495 35.5419114,36.8816733" id="Fill-27" fill="#89553B"></path>
                    <path d="M14.317187,41.8612481 C14.317187,41.8612481 12.7308043,26.7360207 26.3057389,26.7360207 C39.8806734,26.7360207 20.2826349,18.7259118 20.2826349,18.7259118 L9.37275593,25.6802904 L14.317187,41.8612481" id="Fill-28" fill="#89553B"></path>
                    <path d="M15.716607,56.2903094 C15.716607,50.1037857 20.72877,45.0889265 26.9119677,45.0889265 L71.5607452,45.0889265 C77.7439429,45.0889265 82.7561058,50.1037857 82.7561058,56.2903094 L82.7561058,122.892052 C82.7561058,129.078576 77.7439429,134.093435 71.5607452,134.093435 L26.9119677,134.093435 C20.72877,134.093435 15.716607,129.078576 15.716607,122.892052 L15.716607,56.2903094" id="Fill-29" fill="#FBCBA8"></path>
                    <path d="M69.6603327,61.5527191 L69.6603327,76.504325 C69.6603327,78.9798306 67.6541241,80.9865583 65.1799494,80.9865583 C62.7057747,80.9865583 60.7006856,78.9798306 60.7006856,76.504325 L60.7006856,61.5527191 L69.6603327,61.5527191" id="Fill-30" fill="#EEA97B"></path>
                    <path d="M69.7554933,87.091312 L69.7554933,89.8630942 C69.7554933,91.1266102 68.7311178,92.1515367 67.4682811,92.1515367 C66.2043249,92.1515367 65.1799494,91.1266102 65.1799494,89.8630942 L65.1799494,87.091312 L69.7554933,87.091312" id="Fill-31" fill="#FFFFFF"></path>
                    <path d="M65.1799494,87.091312 L65.1799494,89.8630942 C65.1799494,91.1266102 64.1555739,92.1515367 62.8927372,92.1515367 C61.6299005,92.1515367 60.605525,91.1266102 60.605525,89.8630942 L60.605525,87.091312 L65.1799494,87.091312" id="Fill-32" fill="#FFFFFF"></path>
                    <path d="M47.2500196,61.5527191 C47.2500196,63.0996301 48.5027804,64.3530648 50.0488597,64.3530648 C51.5943793,64.3530648 52.8476999,63.0996301 52.8476999,61.5527191 C52.8476999,60.0063682 51.5943793,58.7523734 50.0488597,58.7523734 C48.5027804,58.7523734 47.2500196,60.0063682 47.2500196,61.5527191" id="Fill-33" fill="#231F1F"></path>
                    <path d="M72.999349,61.5527191 C72.999349,63.0996301 74.2521099,64.3530648 75.7981892,64.3530648 C77.3437087,64.3530648 78.5970294,63.0996301 78.5970294,61.5527191 C78.5970294,60.0063682 77.3437087,58.7523734 75.7981892,58.7523734 C74.2521099,58.7523734 72.999349,60.0063682 72.999349,61.5527191" id="Fill-34" fill="#231F1F"></path>
                    <path d="M9.41193969,60.6577286 C9.41193969,63.714586 11.8883535,66.1917718 14.9430076,66.1917718 C17.9982215,66.1917718 20.4746353,63.714586 20.4746353,60.6577286 C20.4746353,57.6014313 17.9982215,55.1236854 14.9430076,55.1236854 C11.8883535,55.1236854 9.41193969,57.6014313 9.41193969,60.6577286" id="Fill-35" fill="#FBCBA8"></path>
                    <path d="M12.1626398,65.7442766 C12.1626398,66.5126914 12.7845421,67.1349283 13.5525438,67.1349283 C14.3205456,67.1349283 14.9430076,66.5126914 14.9430076,65.7442766 C14.9430076,64.9758617 14.3205456,64.3530648 13.5525438,64.3530648 C12.7845421,64.3530648 12.1626398,64.9758617 12.1626398,65.7442766" id="Fill-36" fill="#F1F2F2"></path>
                    <path d="M46.1814224,55.64735 L52.1300773,57.1774589 L52.4094015,56.092605 L46.4601869,54.5624961" id="Fill-37" fill="#414042"></path>
                    <path d="M63.7413456,119.39162 C67.7414479,119.39162 71.3407564,118.452944 73.8462781,116.956999 L73.8462781,131.013054 L53.636413,131.013054 L53.636413,116.956999 C56.1419348,118.452944 59.7412432,119.39162 63.7413456,119.39162" id="Fill-38" fill="#231F1F"></path>
                    <path d="M32.2711868,96.5688021 L65.2515997,125.132328 L85.0461169,103.797615 L85.0461169,159.012031 C85.0461169,178.656456 69.1296726,194.580902 49.4963687,194.580902 C29.8636245,194.580902 13.9466205,178.656456 13.9466205,159.012031 L13.9466205,91.3881625 L32.2711868,96.5688021" id="Fill-39" fill="#C0392B"></path>
                    <path d="M15.716607,76.7401141 L65.2515997,125.132328 L17.8392474,103.569666 L20.4746353,99.3691478 L8.21347633,91.8082143 L15.716607,76.7401141" id="Fill-40" fill="#E74C3C"></path>
                    <path d="M65.2515997,125.132328 L82.7561058,93.7684564 L90.779261,100.936221 L83.9221026,105.809943 L86.3011168,107.49015 L65.2515997,125.132328" id="Fill-41" fill="#E74C3C"></path>
                    <path d="M68.9947685,45.0491616 L82.7561058,45.0491616 L82.7561058,56.2897494 L68.9947685,56.2897494 L68.9947685,45.0491616 Z" id="Fill-42" fill="#FBCBA8"></path>
                    <path d="M78.6328545,54.5624961 L72.6841996,56.0931651 L72.9629641,57.1774589 L78.911619,55.64735 L78.6328545,54.5624961" id="Fill-43" fill="#414042"></path>
                    <path d="M73.5938227,6.12435609 L73.5574378,6.12435609 C78.641251,6.14451858 82.7561058,10.2739084 82.7561058,15.365497 C88.9393035,15.365497 93.9514665,20.3803561 93.9514665,26.5668799 C93.9514665,28.1059499 93.641355,29.573331 93.0799076,30.9079758 C95.4158196,32.5853829 96.9367094,35.3252411 96.9367094,38.4218634 C96.9367094,41.3499049 95.5759133,43.9592671 93.4527132,45.6523561 C93.7768188,46.7008055 93.9514665,47.8147831 93.9514665,48.9696456 C93.9514665,53.476522 91.290889,57.3622818 87.4553585,59.1393812 C86.8334562,61.5420778 85.0763443,63.520242 82.7561058,64.5311668 L82.7561058,93.7684564 L90.779261,100.936221 L85.0461169,105.011284 L85.0461169,106.603561 L86.3011168,107.49015 L85.0461169,108.54196 L85.0461169,159.012031 C85.0461169,172.995838 76.9815388,185.094451 65.2515997,190.905729 L65.2515997,190.935412 C77.0190433,185.137016 85.1200062,173.023841 85.1200062,159.012031 L85.1200062,108.54196 L86.3750062,107.49015 L85.1200062,106.603561 L85.1200062,105.010724 L90.8531504,100.936221 L82.8299952,93.7684564 L82.8299952,64.5222057 C85.1502337,63.5096007 86.9011881,61.5336768 87.5214111,59.12986 C91.3580612,57.3527606 94.0253559,53.4770821 94.0253559,48.9696456 C94.0253559,47.8119827 93.8495887,46.696325 93.5243635,45.6467554 C95.6470038,43.9531063 97.0105988,41.3487848 97.0105988,38.4218634 C97.0105988,35.3258012 95.4846711,32.5932239 93.1498787,30.9163768 C93.7135651,29.5789317 94.0253559,28.1098704 94.0253559,26.5668799 C94.0253559,20.3803561 89.0131929,15.365497 82.8299952,15.365497 C82.8299952,10.2610268 78.6949888,6.12435609 73.5938227,6.12435609 M65.2515997,3.01149179 L65.2515997,3.0439758 C67.0624493,3.92384443 68.6012516,5.27921175 69.7051142,6.9465376 C69.7230267,6.93869663 69.7403796,6.93085566 69.7577324,6.92301469 C68.6404354,5.24560761 67.0831607,3.88743993 65.2515997,3.01149179" id="Fill-44" fill="#E9E8E8"></path>
                    <path d="M93.4527132,45.6523561 C91.8747271,46.9108315 89.8757954,47.6630043 87.7005369,47.6630043 C85.8818505,47.6630043 84.1857534,47.1370994 82.7561058,46.2286672 L82.7561058,49.8836785 C85.6736168,51.1550354 87.7005369,53.9559412 87.7005369,57.2077027 C87.7005369,57.8736249 87.6160119,58.5205048 87.4553585,59.1393812 C91.290889,57.3622818 93.9514665,53.476522 93.9514665,48.9696456 C93.9514665,47.8147831 93.7768188,46.7008055 93.4527132,45.6523561 M80.8361015,44.6044667 C80.6905618,44.7573656 80.5416635,44.9052239 80.3882871,45.0491616 L81.264324,45.0491616 C81.1165453,44.9057839 80.9738044,44.7573656 80.8361015,44.6044667" id="Fill-45" fill="#7F4F38"></path>
                    <path d="M93.0799076,30.9079758 C91.5243123,34.6061124 88.0431149,37.292764 83.8918752,37.7111357 C83.6970759,40.3759447 82.5702628,42.7820017 80.8361015,44.6044667 C80.9738044,44.7573656 81.1165453,44.9057839 81.264324,45.0491616 L82.7561058,45.0491616 L82.7561058,46.2286672 C84.1857534,47.1370994 85.8818505,47.6630043 87.7005369,47.6630043 C89.8757954,47.6630043 91.8747271,46.9108315 93.4527132,45.6523561 C95.5759133,43.9592671 96.9367094,41.3499049 96.9367094,38.4218634 C96.9367094,35.3252411 95.4158196,32.5853829 93.0799076,30.9079758" id="Fill-46" fill="#7F4F38"></path>
                    <path d="M70.3119027,24.0336871 C70.6041016,24.5976768 70.8498398,25.19079 71.0435195,25.8057459 C71.2248844,25.7783025 71.4073688,25.7553397 71.5915324,25.7368574 C71.6234392,25.2972031 71.6810953,24.8637096 71.7628215,24.4391772 C71.2635084,24.3428453 70.7787493,24.2067485 70.3119027,24.0336871" id="Fill-47" fill="#7F4F38"></path>
                    <path d="M82.7561058,49.8836785 L82.7561058,64.5311668 C85.0763443,63.520242 86.8334562,61.5420778 87.4553585,59.1393812 C87.6160119,58.5205048 87.7005369,57.8736249 87.7005369,57.2077027 C87.7005369,53.9559412 85.6736168,51.1550354 82.7561058,49.8836785" id="Fill-48" fill="#7F4F38"></path>
                    <path d="M73.5574378,6.12435609 C72.2089566,6.12939672 70.9326855,6.43127398 69.7795633,6.95605877 C69.7722863,6.94485739 69.7650094,6.93365601 69.7577324,6.92301469 C69.7403796,6.93085566 69.7230267,6.93869663 69.7051142,6.9465376 C70.878388,8.71747623 71.5607452,10.8412584 71.5607452,13.1252204 C71.5607452,16.272809 70.2632029,19.1179602 68.1735888,21.1526914 C69.0311535,21.9883146 69.7560531,22.9605946 70.3119027,24.0336871 C70.7787493,24.2067485 71.2635084,24.3428453 71.7628215,24.4391772 C72.7558499,19.269739 77.3000468,15.365497 82.7561058,15.365497 C82.7561058,10.2739084 78.641251,6.14451858 73.5574378,6.12435609" id="Fill-49" fill="#7F4F38"></path>
                    <path d="M82.7561058,15.365497 L82.7561058,15.365497 C77.3000468,15.365497 72.7558499,19.269739 71.7628215,24.4391772 C71.6810953,24.8637096 71.6234392,25.2972031 71.5915324,25.7368574 C71.9643379,25.6993328 72.3433009,25.6802904 72.726742,25.6802904 C78.9099397,25.6802904 83.9221026,30.6951495 83.9221026,36.8816733 C83.9221026,37.1605877 83.9120268,37.4372619 83.8918752,37.7111357 C88.0431149,37.292764 91.5243123,34.6061124 93.0799076,30.9079758 C93.641355,29.573331 93.9514665,28.1059499 93.9514665,26.5668799 C93.9514665,20.3803561 88.9393035,15.365497 82.7561058,15.365497" id="Fill-50" fill="#7F4F38"></path>
                    <path d="M65.2515997,3.0439758 L65.2515997,18.7018289 C65.4178508,18.9101746 65.5768249,19.1246811 65.7279623,19.3453483 C66.6247107,19.8359689 67.4470099,20.4453241 68.1735888,21.1526914 C70.2632029,19.1179602 71.5607452,16.272809 71.5607452,13.1252204 C71.5607452,10.8412584 70.878388,8.71747623 69.7051142,6.9465376 C68.6012516,5.27921175 67.0624493,3.92384443 65.2515997,3.0439758" id="Fill-51" fill="#7F4F38"></path>
                    <path d="M65.2515997,18.7018289 L65.2515997,19.099478 C65.4122531,19.1773276 65.571787,19.2596577 65.7279623,19.3453483 C65.5768249,19.1246811 65.4178508,18.9101746 65.2515997,18.7018289" id="Fill-52" fill="#7F4F38"></path>
                    <path d="M65.2515997,19.099478 L65.2515997,28.5428038 C66.8391018,27.1174278 68.8357944,26.138987 71.0435195,25.8057459 C70.8498398,25.19079 70.6041016,24.5976768 70.3119027,24.0336871 C69.7560531,22.9605946 69.0311535,21.9883146 68.1735888,21.1526914 C67.4470099,20.4453241 66.6247107,19.8359689 65.7279623,19.3453483 C65.571787,19.2596577 65.4122531,19.1773276 65.2515997,19.099478" id="Fill-53" fill="#7F4F38"></path>
                    <path d="M72.726742,25.6802904 C72.3433009,25.6802904 71.9643379,25.6993328 71.5915324,25.7368574 C71.4073688,25.7553397 71.2248844,25.7783025 71.0435195,25.8057459 C68.8357944,26.138987 66.8391018,27.1174278 65.2515997,28.5428038 L65.2515997,30.7853207 C70.6382475,31.5957407 74.7676563,36.2459948 74.7676563,41.8612481 C74.7676563,42.9690648 74.6070028,44.0387969 74.3075269,45.0491616 L80.3882871,45.0491616 C80.5416635,44.9052239 80.6905618,44.7573656 80.8361015,44.6044667 C82.5702628,42.7820017 83.6970759,40.3759447 83.8918752,37.7111357 C83.9120268,37.4372619 83.9221026,37.1605877 83.9221026,36.8816733 C83.9221026,30.6951495 78.9099397,25.6802904 72.726742,25.6802904" id="Fill-54" fill="#7F4F38"></path>
                    <path d="M65.2515997,30.7853207 L65.2515997,39.3610994 C65.4346439,40.1653587 65.5314837,41.0015419 65.5314837,41.8612481 C65.5314837,42.7203941 65.4346439,43.5571374 65.2515997,44.3613967 L65.2515997,45.0889265 L68.9947685,45.0889265 L68.9947685,45.0491616 L74.3075269,45.0491616 C74.6070028,44.0387969 74.7676563,42.9690648 74.7676563,41.8612481 C74.7676563,36.2459948 70.6382475,31.5957407 65.2515997,30.7853207" id="Fill-55" fill="#7F4F38"></path>
                    <path d="M65.2515997,39.3610994 L65.2515997,44.3613967 C65.4346439,43.5571374 65.5314837,42.7203941 65.5314837,41.8612481 C65.5314837,41.0015419 65.4346439,40.1653587 65.2515997,39.3610994" id="Fill-56" fill="#7F4F38"></path>
                    <path d="M75.7981892,64.3530648 C74.2521099,64.3530648 72.999349,63.0996301 72.999349,61.5527191 C72.999349,60.0063682 74.2521099,58.7523734 75.7981892,58.7523734 C77.3437087,58.7523734 78.5970294,60.0063682 78.5970294,61.5527191 C78.5970294,63.0996301 77.3437087,64.3530648 75.7981892,64.3530648 M68.9947685,45.0889265 L65.2515997,45.0889265 L65.2515997,61.5527191 L69.6603327,61.5527191 L69.6603327,76.504325 C69.6603327,78.9557476 67.6927481,80.9473535 65.2515997,80.9859983 L65.2515997,87.091312 L69.7554933,87.091312 L69.7554933,89.8630942 C69.7554933,91.1266102 68.7311178,92.1515367 67.4682811,92.1515367 C66.4013632,92.1515367 65.5051746,91.4206465 65.2515997,90.4332446 L65.2515997,119.346254 C66.4707745,119.273445 67.6418092,119.112705 68.7434327,118.875796 L82.7561058,93.7684564 L82.7561058,56.2903094 L76.4128145,56.2903094 L72.9629641,57.1774589 L72.7345788,56.2903094 L68.9947685,56.2903094 L68.9947685,45.0889265" id="Fill-57" fill="#E5B99A"></path>
                    <path d="M69.6603327,61.5527191 L65.2515997,61.5527191 L65.2515997,80.9859983 C67.6927481,80.9473535 69.6603327,78.9557476 69.6603327,76.504325 L69.6603327,61.5527191" id="Fill-58" fill="#D99B72"></path>
                    <path d="M69.7554933,87.091312 L65.2515997,87.091312 L65.2515997,90.4332446 C65.5051746,91.4206465 66.4013632,92.1515367 67.4682811,92.1515367 C68.7311178,92.1515367 69.7554933,91.1266102 69.7554933,89.8630942 L69.7554933,87.091312" id="Fill-59" fill="#E9E8E8"></path>
                    <path d="M75.7981892,58.7523734 C74.2521099,58.7523734 72.999349,60.0063682 72.999349,61.5527191 C72.999349,63.0996301 74.2521099,64.3530648 75.7981892,64.3530648 C77.3437087,64.3530648 78.5970294,63.0996301 78.5970294,61.5527191 C78.5970294,60.0063682 77.3437087,58.7523734 75.7981892,58.7523734" id="Fill-60" fill="#231F1F"></path>
                    <path d="M68.7434327,118.875796 C67.6418092,119.112705 66.4707745,119.273445 65.2515997,119.346254 L65.2515997,125.132328 L68.7434327,118.875796" id="Fill-61" fill="#231F1F"></path>
                    <path d="M85.0461169,108.54196 L65.2515997,125.132328 L65.2515997,190.905729 C76.9815388,185.094451 85.0461169,172.995838 85.0461169,159.012031 L85.0461169,108.54196 M85.0461169,105.011284 L83.9221026,105.809943 L85.0461169,106.603561 L85.0461169,105.011284" id="Fill-62" fill="#B0362A"></path>
                    <path d="M82.7561058,93.7684564 L82.7561058,93.7684564 L65.2515997,125.132328 L86.3011168,107.49015 L83.9221026,105.809943 L90.779261,100.936221 L82.7561058,93.7684564" id="Fill-63" fill="#D34739"></path>
                    <path d="M82.7561058,45.0491616 L68.9947685,45.0491616 L68.9947685,56.2903094 L72.7345788,56.2903094 L72.6841996,56.0931651 L78.6328545,54.5624961 L78.911619,55.64735 L76.4128145,56.2903094 L82.7561058,56.2903094 L82.7561058,45.0491616" id="Fill-64" fill="#E5B99A"></path>
                    <path d="M78.6328545,54.5624961 L72.6841996,56.0931651 L72.7345788,56.2903094 L72.9629641,57.1774589 L76.4128145,56.2903094 L78.911619,55.64735 L78.6328545,54.5624961" id="Fill-65" fill="#3E3D3F"></path>
                    <path d="M7.96102095,54.7747623 C7.96102095,52.5972135 9.72540979,50.8324356 11.9012281,50.8324356 C14.0770465,50.8324356 15.8408755,52.5972135 15.8408755,54.7747623 C15.8408755,56.951191 14.0770465,58.716529 11.9012281,58.716529 C9.72540979,58.716529 7.96102095,56.951191 7.96102095,54.7747623" id="Fill-66" fill="#89553B"></path>
                </g>
            </g>
        </g>
    </g>
</svg>