<svg xmlns="http://www.w3.org/2000/svg" style="display: none;">
  
    <symbol id="icon-vote" viewBox="0 0 512 512">
      <path d="m500 416l0 0-45 0 0-331c0-4-3-8-8-8l0 0-289 0c0 0-1 0-1 0l0 0c-1 1-2 1-2 1 0 0-1 0-1 0 0 1-1 1-1 1l-98 99c-1 0-1 1-2 1 0 0 0 1 0 1 0 0 0 1 0 2 0 0 0 0 0 0-1 0-1 1-1 1l0 234-44 0c-5 0-8 3-8 7 0 4 3 8 8 8l0 0 440 0 0 0 52 0c4 0 8-4 8-8 0-4-4-8-8-8z m-350-313l1 72-73 0z m-82 88l90 0c2 0 4-1 6-3 1-1 2-3 2-5l0-91 274 0 0 324-84 0c0 0 0 0-1 0-3-6-9-11-16-15-27-15-44-23-51-25-6-2-9-4-9-8-1-3 1-9 6-18 5-8 7-21 8-37 1-17 0-30-4-38-3-6-7-11-14-15-6-4-13-6-20-6-5 0-10 1-14 3-10 4-18 10-22 18-4 9-5 20-5 33 0 17 3 29 7 37 6 11 9 18 9 23-1 4-4 7-9 8-5 1-13 5-25 10-12 6-22 12-29 16-5 4-10 9-14 15l-85 0z"/>
    </symbol>
  
    <symbol id="icon-results" viewBox="0 0 512 512">
      <path d="m464 82c-25 0-46 21-46 46 0 11 4 20 9 28l-130 134c-7-6-17-9-27-9-25 0-46 21-46 46 0 1 0 3 0 4l-135 32c-7-17-23-29-43-29-25 0-46 20-46 46 0 25 21 46 46 46 26 0 46-21 46-46 0-2 0-3 0-4l135-32c7 17 24 29 43 29 26 0 46-21 46-46 0-11-3-20-9-28l130-134c8 6 17 9 27 9 26 0 46-20 46-46 0-25-20-46-46-46"/>
    </symbol>
  
    <symbol id="icon-share" viewBox="0 0 512 512">
      <path d="m421 199c-5 0-9 3-9 8l0 186c0 31-25 57-57 57l-280 0c-32 0-57-26-57-57l0-281c0-31 25-57 57-57l190 0c5 0 9-4 9-9 0-4-4-8-9-8l-190 0c-41 0-75 33-75 74l0 281c0 41 34 74 75 74l280 0c41 0 75-33 75-74l0-186c0-5-4-8-9-8z m86-90c0-1 0-2-1-3 0 0 0 0 0 0 0-1-1-2-2-3 0 0 0 0 0 0l-61-62c-3-2-7-3-10-1-3 1-5 4-5 8l1 49c-44 4-92 21-139 50-56 33-93 71-95 72-3 4-3 9 1 13 1 1 3 2 6 2 2 0 4-1 6-2 1-2 104-105 221-118l2 54c0 4 2 7 5 8 1 0 2 1 4 1 2 0 4-1 6-3l58-58c0 0 0 0 0 0l0 0c0 0 0-1 0-1 1 0 2-1 2-2 0 0 0 0 0-1 0 0 1 0 1-1 0 0 0-1 0-2 0 0 0 0 0 0z"/>
    </symbol>
  
    <symbol id="icon-nav-icons" viewBox="0 0 512 512">
      <path d="m417 224c17 0 31 14 31 32c0 18-14 32-31 32l-322 0c-17 0-31-14-31-32c0-18 14-32 31-32z m0-128c17 0 31 14 31 32c0 18-14 32-31 32l-322 0c-17 0-31-14-31-32c0-18 14-32 31-32z m0 256c17 0 31 14 31 32c0 18-14 32-31 32l-322 0c-17 0-31-14-31-32c0-18 14-32 31-32z"/>
    </symbol>
  
</svg>
